<svg viewBox="64 64 896 896" focusable="false"><path d="M885.9 402.1c4.4-35.8-6-72.8-26-100.5-1.4-83.9-53.7-143-169.4-143h-33.3c-154.1 0-199.9 58.4-266.7 59.9-5.4-20.7-24.1-35.9-46.5-35.9h-96c-26.5 0-48 21.5-48 48v360c0 26.5 21.5 48 48 48h148.1c28.7 25.4 69 91 103.1 125.1 20.5 20.5 15.2 162.9 107.6 162.9 145.9 0 161.2-144.7 129.6-226.9h54.7c95.1 0 165.4-106.2 108.1-203.1 7.2-34 1.5-66.8-13.3-94.5zm-79.1 13.7c32.4 30.6 28 76.6 7.8 98.4 14.2 0 33.5 28.4 33.4 56.7-.1 28.4-25.1 56.7-56.7 56.7h-156c0 56.7 42.5 83.1 42.5 141.8 0 35.6 0 85.1-70.9 85.1-28.4-28.4-14.2-99.3-56.7-141.8-39.8-39.9-99.3-146.2-141.8-146.2H392V287.3c80.4 0 150-56.7 257.5-56.7 61.4 0 154.1-13.2 136.4 98.8 22.8 12.3 39.7 54.7 20.9 86.4zM296 314.6c-19.9 0-36-16.1-36-36s16.1-36 36-36 36 16.1 36 36-16.1 36-36 36z"/></svg>