<svg viewBox="64 64 896 896" focusable="false"><path d="m855.4 511.9 77.9-76.3c23.2-22 12.4-61.1-18.1-68.4l-106.2-27 30-105.1c8.5-30.2-20-58.7-50.3-50.3l-105.1 29.9-27.1-106.2c-7.2-30-46.7-41-68.3-18.1L512 169l-76.2-78.5c-21.4-22.6-61.1-12.3-68.3 18.1l-27.1 106.2-105.1-29.9c-30.2-8.5-58.7 20.1-50.3 50.3l30 105-106.2 27.1c-30.5 7.3-41.3 46.4-18.1 68.4l77.9 76.3-77.9 76.3c-23.2 22-12.4 61.1 18.1 68.4L215 683.6l-30 105.1c-8.5 30.2 20 58.7 50.3 50.3l105-30 27.1 106.2c7.5 31.5 46.9 40.7 68.3 18.1l76.2-78 76.2 78c21.2 22.9 61 12.7 68.3-18.1L683.7 809l105.1 29.9c30.2 8.5 58.7-20.1 50.3-50.3l-30.1-105 106.2-27.1c30.5-7.3 41.3-46.4 18.1-68.4l-77.9-76.2z"/></svg>