<svg viewBox="64 64 896 896" focusable="false"><path d="M352 212v120c0 19.9-16.1 36-36 36H164c-19.9 0-36-16.1-36-36V212c0-19.9 16.1-36 36-36h152c19.9 0 36 16.1 36 36zm272 360V452c0-19.9-16.1-36-36-36H436c-19.9 0-36 16.1-36 36v120c0 19.9 16.1 36 36 36h152c19.9 0 36-16.1 36-36zm48-360v120c0 19.9 16.1 36 36 36h152c19.9 0 36-16.1 36-36V212c0-19.9-16.1-36-36-36H708c-19.9 0-36 16.1-36 36zm-48 120V212c0-19.9-16.1-36-36-36H436c-19.9 0-36 16.1-36 36v120c0 19.9 16.1 36 36 36h152c19.9 0 36-16.1 36-36zm-308 84H164c-19.9 0-36 16.1-36 36v120c0 19.9 16.1 36 36 36h152c19.9 0 36-16.1 36-36V452c0-19.9-16.1-36-36-36zM128 692v120c0 19.9 16.1 36 36 36h152c19.9 0 36-16.1 36-36V692c0-19.9-16.1-36-36-36H164c-19.9 0-36 16.1-36 36zm580-84h152c19.9 0 36-16.1 36-36V452c0-19.9-16.1-36-36-36H708c-19.9 0-36 16.1-36 36v120c0 19.9 16.1 36 36 36zm0 240h152c19.9 0 36-16.1 36-36V692c0-19.9-16.1-36-36-36H708c-19.9 0-36 16.1-36 36v120c0 19.9 16.1 36 36 36zM400 692v120c0 19.9 16.1 36 36 36h152c19.9 0 36-16.1 36-36V692c0-19.9-16.1-36-36-36H436c-19.9 0-36 16.1-36 36z"/></svg>