<svg viewBox="64 64 896 896" focusable="false"><path d="M899.4 527.4c57.1-96.7-12.8-203.1-108.1-203.1h-54.7c30.3-79 19.6-226.9-129.6-226.9-92.4 0-87.1 142.4-107.6 162.9-34.1 34.1-74.4 99.7-103.1 125.1H248c-26.5 0-48 21.5-48 48v360c0 26.5 21.5 48 48 48h96c22.3 0 41.1-15.3 46.5-35.9 66.8 1.5 112.6 59.9 266.7 59.9h33.3c115.7 0 168-59.1 169.4-143 20-27.6 30.4-64.7 26-100.5 14.8-27.7 20.5-60.5 13.5-94.5zm-92.6 80.8c18.8 31.7 1.9 74.1-20.9 86.4 17.6 111.7-74.8 98.8-136.4 98.8-107.5 0-177-56.7-257.5-56.7V457.4h16.4c42.5 0 102-106.3 141.8-146.2 42.5-42.5 28.4-113.4 56.7-141.8 70.9 0 70.9 49.5 70.9 85.1 0 58.8-42.5 85.1-42.5 141.8h156c31.7 0 56.6 28.4 56.7 56.7.1 28.3-19.2 56.7-33.4 56.7 20.2 21.9 24.6 67.9-7.8 98.5zM332 745.4c0 19.9-16.1 36-36 36s-36-16.1-36-36 16.1-36 36-36 36 16.1 36 36z"/></svg>