<svg viewBox="64 64 896 896" focusable="false"><path fill="#DDF4F2" d="M512 924c-55.6 0-109.6-10.9-160.4-32.4-49.1-20.7-93.1-50.5-131-88.3-37.8-37.8-67.6-81.9-88.3-131C110.9 621.6 100 567.6 100 512c0-55.6 10.9-109.6 32.4-160.4 20.7-49.1 50.5-93.1 88.3-131 37.8-37.8 81.9-67.6 131-88.3C402.4 110.9 456.4 100 512 100c55.6 0 109.6 10.9 160.4 32.4 49.1 20.7 93.1 50.5 131 88.3 37.8 37.8 67.6 81.9 88.3 131C913.1 402.4 924 456.4 924 512c0 55.6-10.9 109.6-32.4 160.4-20.7 49.1-50.5 93.1-88.3 131s-81.9 67.6-131 88.3C621.6 913.1 567.6 924 512 924z"/><path fill="#1DB8A9" d="M512 136c50.8 0 100 9.9 146.3 29.5 44.8 18.9 85 46.1 119.5 80.6 34.6 34.6 61.7 74.8 80.6 119.5C878.1 412 888 461.2 888 512c0 50.8-9.9 100-29.5 146.3-18.9 44.8-46.1 85-80.6 119.5-34.6 34.6-74.8 61.7-119.5 80.6C612 878.1 562.8 888 512 888s-100-9.9-146.3-29.5c-44.8-18.9-85-46.1-119.5-80.6-34.6-34.6-61.7-74.8-80.6-119.5C145.9 612 136 562.8 136 512c0-50.8 9.9-100 29.5-146.3 18.9-44.8 46.1-85 80.6-119.5 34.6-34.6 74.8-61.7 119.5-80.6C412 145.9 461.2 136 512 136m0-72C264.6 64 64 264.6 64 512s200.6 448 448 448 448-200.6 448-448S759.4 64 512 64z"/><path fill="#1DB8A9" d="M512 64C264.6 64 64 264.6 64 512s200.6 448 448 448 448-200.6 448-448S759.4 64 512 64zm375.9 440.8-154.7 55.4-81-225.9L807 278.8c49.3 62.2 79.3 140.6 80.9 226zm-222.5 79.7-225.9 81-81-225.9 225.9-81 81 225.9zm86.2-362.3L628 266.5l-44.3-123.7c60.2 11.6 118.4 38.3 167.9 79.4zm-246.8-86.1 55.4 154.7-225.9 81L278.8 217c62.2-49.3 140.6-79.3 226-80.9zM222.2 272.4 266.5 396l-123.7 44.3c11.6-60.2 38.3-118.4 79.4-167.9zm-86.1 246.8 154.7-55.4 81 225.9L217 745.2c-49.3-62.2-79.3-140.6-80.9-226zm136.3 282.6L396 757.5l44.3 123.7c-60.2-11.6-118.4-38.3-167.9-79.4zm246.8 86.1-55.4-154.7 225.9-81L745.2 807c-62.2 49.3-140.6 79.3-226 80.9zm282.6-136.3L757.5 628l123.7-44.3c-11.6 60.2-38.3 118.4-79.4 167.9z"/></svg>