<?xml version="1.0" encoding="utf-8"?>
<!-- Generator: Adobe Illustrator 25.2.0, SVG Export Plug-In . SVG Version: 6.00 Build 0)  -->
<svg version="1.1" id="Layer_1" xmlns="http://www.w3.org/2000/svg" xmlns:xlink="http://www.w3.org/1999/xlink" x="0px" y="0px"
	 viewBox="0 0 1024 1024" enable-background="new 0 0 1024 1024" xml:space="preserve">
<g>
	<path fill="#3D8554" d="M896,832c0,35.3-28.7,64-64,64H192c-35.3,0-64-28.7-64-64V192c0-35.3,28.7-64,64-64h640
		c35.3,0,64,28.7,64,64V832z"/>
</g>
<g>
	<path fill="#FFFFFF" d="M320.9,275.6h252c83.8,0,136.8,58.3,136.8,128.9c0,55-22.3,96.2-74,117.2v1.3
		c50.4,13.1,64.8,62.2,68.1,109.3c2,29.5,1.3,84.4,19.6,110.6H620.7c-12.4-29.5-11.1-74.6-16.4-111.9c-7.2-49.1-26.2-70.7-77.9-70.7
		H423.6V743H320.9V275.6z M423.6,487h112.6c45.8,0,70.7-19.6,70.7-66.8c0-45.2-24.9-64.8-70.7-64.8H423.6V487z"/>
</g>
</svg>
