<?xml version="1.0" encoding="utf-8"?>
<!-- Generator: Adobe Illustrator 25.2.0, SVG Export Plug-In . SVG Version: 6.00 Build 0)  -->
<svg version="1.1" id="Layer_1" xmlns="http://www.w3.org/2000/svg" xmlns:xlink="http://www.w3.org/1999/xlink" x="0px" y="0px"
	 viewBox="0 0 1024 1024" enable-background="new 0 0 1024 1024" xml:space="preserve">
<path fill="#E24759" d="M896,832c0,35.3-28.7,64-64,64H192c-35.3,0-64-28.7-64-64V192c0-35.3,28.7-64,64-64h640
	c35.3,0,64,28.7,64,64V832z"/>
<g>
	<path fill="#FFFFFF" d="M314.7,275.6h201.6c121.1,0,212.1,75.9,212.1,231c0,135.5-69.4,236.3-212.1,236.3H314.7V275.6z
		 M417.4,656.6h91.6c59.6,0,116.5-36.7,116.5-140.1c0-94.3-32.7-154.5-134.8-154.5h-73.3V656.6z"/>
</g>
</svg>
