<?xml version="1.0" encoding="utf-8"?>
<!-- Generator: Adobe Illustrator 25.2.0, SVG Export Plug-In . SVG Version: 6.00 Build 0)  -->
<svg version="1.1" id="Layer_1" xmlns="http://www.w3.org/2000/svg" xmlns:xlink="http://www.w3.org/1999/xlink" x="0px" y="0px"
	 viewBox="0 0 1024 1024" enable-background="new 0 0 1024 1024" xml:space="preserve">
<g>
	<path fill="#0BAFE5" d="M896,832c0,35.3-28.7,64-64,64H192c-35.3,0-64-28.7-64-64V192c0-35.3,28.7-64,64-64h640
		c35.3,0,64,28.7,64,64V832z"/>
</g>
<g>
	<path fill="#FFFFFF" d="M646.5,689.9c-36,46.5-83.1,64.1-128.3,64.1c-144.6,0-229.7-108-229.7-242.8
		c0-138.8,85.1-246.8,229.7-246.8c95.6,0,185.9,58.9,197,164.9h-98.2c-11.8-51.7-50.4-78.5-98.8-78.5c-92.3,0-127,78.5-127,160.4
		c0,77.9,34.7,156.4,127,156.4c66.8,0,105.4-36,111.3-100.8H526.1v-76.6h196.4V743H657L646.5,689.9z"/>
</g>
</svg>
