<?xml version="1.0" encoding="utf-8"?>
<!-- Generator: Adobe Illustrator 25.2.0, SVG Export Plug-In . SVG Version: 6.00 Build 0)  -->
<svg version="1.1" id="Layer_1" xmlns="http://www.w3.org/2000/svg" xmlns:xlink="http://www.w3.org/1999/xlink" x="0px" y="0px"
	 viewBox="0 0 1024 1024" enable-background="new 0 0 1024 1024" xml:space="preserve">
<g>
	<path fill="#616EB2" d="M896,832c0,35.3-28.7,64-64,64H192c-35.3,0-64-28.7-64-64V192c0-35.3,28.7-64,64-64h640
		c35.3,0,64,28.7,64,64V832z"/>
</g>
<g>
	<path fill="#FFFFFF" d="M338.9,275.6h210.8c116.5,0,161.7,74,161.7,149.9c0,75.9-45.2,149.9-161.7,149.9h-108V743H338.9V275.6z
		 M441.6,495.5h79.9c47.8,0,90.3-10.5,90.3-70c0-59.6-42.5-70-90.3-70h-79.9V495.5z"/>
</g>
</svg>
