<?xml version="1.0" encoding="utf-8"?>
<!-- Generator: Adobe Illustrator 25.2.0, SVG Export Plug-In . SVG Version: 6.00 Build 0)  -->
<svg version="1.1" id="Layer_1" xmlns="http://www.w3.org/2000/svg" xmlns:xlink="http://www.w3.org/1999/xlink" x="0px" y="0px"
	 viewBox="0 0 1024 1024" enable-background="new 0 0 1024 1024" xml:space="preserve">
<path fill="#FEDD1D" d="M896,832c0,35.3-28.7,64-64,64H192c-35.3,0-64-28.7-64-64V192c0-35.3,28.7-64,64-64h640
	c35.3,0,64,28.7,64,64V832z"/>
<g>
	<path fill="#FFFFFF" d="M414.8,587.8c0,62.2,48.4,86.4,103.4,86.4c36,0,91-10.5,91-58.3c0-50.4-70-58.9-138.8-77.2
		C401.1,520.4,331,493.6,331,405.9c0-95.6,90.3-141.4,174.8-141.4C603.3,264.5,693,307,693,415h-99.5c-3.3-56.3-43.2-70.7-92.3-70.7
		c-32.7,0-70.7,13.7-70.7,53c0,36,22.3,40.6,139.4,70.7c34,8.5,138.8,30.1,138.8,136.1c0,85.7-67.4,149.9-194.4,149.9
		c-103.4,0-200.3-51.1-199-166.2H414.8z"/>
</g>
</svg>
