<?xml version="1.0" encoding="utf-8"?>
<!-- Generator: Adobe Illustrator 27.8.1, SVG Export Plug-In . SVG Version: 6.00 Build 0)  -->
<svg version="1.1" id="Layer_2" xmlns="http://www.w3.org/2000/svg" xmlns:xlink="http://www.w3.org/1999/xlink" x="0px" y="0px"
	 viewBox="0 0 896 896" style="enable-background:new 0 0 896 896;" xml:space="preserve">
<path d="M647.4,462.7c0,41.3-25,124.2-134.3,124.2h-76.7V338.5h74.2C604.5,338.5,647.4,395.4,647.4,462.7z M848.6,448
	c0,221.3-179.3,400.6-400.6,400.6S47.4,669.3,47.4,448S226.7,47.4,448,47.4S848.6,226.7,848.6,448z M317.5,295h-48.2v335.2h48.2
	V446.4V295z M325,225.2c0-17.2-14.1-31.6-31.6-31.6s-31.6,14.1-31.6,31.6c0,17.2,14.1,31.6,31.6,31.6S325,242.4,325,225.2z
	 M696.8,462.7c0-79.2-54.5-167.7-178.4-167.7H388.2v335.5H519C629.5,630.5,696.8,548.8,696.8,462.7z"/>
</svg>
