<svg viewBox="64 64 896 896" focusable="false"><path d="M868.6 786.3H155.4c-15.1 0-27.4 12.3-27.4 27.4v54.9c0 15.1 12.3 27.4 27.4 27.4h713.1c15.1 0 27.4-12.3 27.4-27.4v-54.9c.1-15.1-12.2-27.4-27.3-27.4zm0-219.4H155.4c-15.1 0-27.4 12.3-27.4 27.4v54.9c0 15.1 12.3 27.4 27.4 27.4h713.1c15.1 0 27.4-12.3 27.4-27.4v-54.9c.1-15.2-12.2-27.4-27.3-27.4zm0-219.5H155.4c-15.1 0-27.4 12.3-27.4 27.4v54.9c0 15.1 12.3 27.4 27.4 27.4h713.1c15.1 0 27.4-12.3 27.4-27.4v-54.9c.1-15.1-12.2-27.4-27.3-27.4zm0-219.4H155.4c-15.1 0-27.4 12.3-27.4 27.4v54.9c0 15.1 12.3 27.4 27.4 27.4h713.1c15.1 0 27.4-12.3 27.4-27.4v-54.9c.1-15.1-12.2-27.4-27.3-27.4z"/></svg>