<svg viewBox="64 64 896 896" focusable="false"><path d="M868.6 786.3H155.4c-15.1 0-27.4 12.3-27.4 27.4v54.9c0 15.1 12.3 27.4 27.4 27.4h713.1c15.1 0 27.4-12.3 27.4-27.4v-54.9c.1-15.1-12.2-27.4-27.3-27.4zM749.7 566.9H274.3c-10.1 0-18.3 12.3-18.3 27.4v54.9c0 15.1 8.2 27.4 18.3 27.4h475.4c10.1 0 18.3-12.3 18.3-27.4v-54.9c0-15.2-8.2-27.4-18.3-27.4zm118.9-219.5H155.4c-15.1 0-27.4 12.3-27.4 27.4v54.9c0 15.1 12.3 27.4 27.4 27.4h713.1c15.1 0 27.4-12.3 27.4-27.4v-54.9c.1-15.1-12.2-27.4-27.3-27.4zM749.7 128H274.3c-10.1 0-18.3 12.3-18.3 27.4v54.9c0 15.1 8.2 27.4 18.3 27.4h475.4c10.1 0 18.3-12.3 18.3-27.4v-54.9c0-15.1-8.2-27.4-18.3-27.4z"/></svg>