<svg viewBox="64 64 896 896" focusable="false"><path d="M572 176h288c19.9 0 36 16.1 36 36v240c0 19.9-16.1 36-36 36H572c-19.9 0-36-16.1-36-36V212c0-19.9 16.1-36 36-36zm-120 0H164c-19.9 0-36 16.1-36 36v240c0 19.9 16.1 36 36 36h288c19.9 0 36-16.1 36-36V212c0-19.9-16.1-36-36-36zM128 572v240c0 19.9 16.1 36 36 36h288c19.9 0 36-16.1 36-36V572c0-19.9-16.1-36-36-36H164c-19.9 0-36 16.1-36 36zm444 276h288c19.9 0 36-16.1 36-36V572c0-19.9-16.1-36-36-36H572c-19.9 0-36 16.1-36 36v240c0 19.9 16.1 36 36 36z"/></svg>