<svg viewBox="64 64 896 896" focusable="false"><path d="M512 64C264.6 64 64 264.7 64 512c0 247.5 200.6 448 448 448s448-200.5 448-448c0-247.3-200.6-448-448-448zm0 809.3c-199.7 0-361.3-161.6-361.3-361.3 0-199.6 161.6-361.3 361.3-361.3 199.6 0 361.3 161.6 361.3 361.3 0 199.7-161.6 361.3-361.3 361.3zm193.7-461c0 121.1-130.8 123-130.8 167.8v11.4c0 12-9.7 21.7-21.7 21.7h-82.5c-12 0-21.7-9.7-21.7-21.7v-15.6c0-64.6 49-90.4 85.9-111.1 31.7-17.8 51.2-29.9 51.2-53.4 0-31.2-39.7-51.8-71.9-51.8-41.9 0-61.2 19.8-88.4 54.1-7.3 9.2-20.7 11-30.1 3.8l-50.3-38.1c-9.2-7-11.3-20-4.8-29.6 42.7-62.7 97-97.9 181.7-97.9 88.8 0 183.4 69.2 183.4 160.4zm-117.8 302c0 41.8-34 75.9-75.9 75.9s-75.9-34-75.9-75.9c0-41.8 34-75.9 75.9-75.9s75.9 34.1 75.9 75.9z"/></svg>