<svg viewBox="64 64 896 896" focusable="false"><path d="M960 512c0 247.5-200.6 448-448 448S64 759.5 64 512C64 264.7 264.6 64 512 64s448 200.7 448 448zM524 212.1c-98.4 0-161.2 41.5-210.5 115.2-6.4 9.5-4.3 22.4 4.9 29.4l62.7 47.5c9.4 7.1 22.8 5.4 30.1-3.8 32.3-40.9 54.4-64.7 103.5-64.7 36.9 0 82.6 23.8 82.6 59.5 0 27.1-22.3 40.9-58.8 61.4-42.5 23.8-98.7 53.5-98.7 127.6v7.2c0 12 9.7 21.7 21.7 21.7h101.2c12 0 21.7-9.7 21.7-21.7V589c0-51.4 150.3-53.6 150.3-192.7-.2-104.7-108.9-184.2-210.7-184.2zm-12 448c-45.8 0-83.1 37.3-83.1 83.1s37.3 83.1 83.1 83.1 83.1-37.3 83.1-83.1-37.3-83.1-83.1-83.1z"/></svg>