<?xml version="1.0" encoding="utf-8"?>
<!-- Generator: Adobe Illustrator 25.2.3, SVG Export Plug-In . SVG Version: 6.00 Build 0)  -->
<svg version="1.1" id="icon" xmlns="http://www.w3.org/2000/svg" xmlns:xlink="http://www.w3.org/1999/xlink" x="0px" y="0px"
	 viewBox="0 0 1024 1024" enable-background="new 0 0 1024 1024" xml:space="preserve">
<g>
	<path fill="#DDF4F2" d="M512,924c-55.6,0-109.6-10.9-160.4-32.4c-49.1-20.7-93.1-50.5-131-88.3c-37.8-37.8-67.6-81.9-88.3-131
		C110.9,621.6,100,567.6,100,512c0-55.6,10.9-109.6,32.4-160.4c20.7-49.1,50.5-93.1,88.3-131c37.8-37.8,81.9-67.6,131-88.3
		C402.4,110.9,456.4,100,512,100c55.6,0,109.6,10.9,160.4,32.4c49.1,20.7,93.1,50.5,131,88.3c37.8,37.8,67.6,81.9,88.3,131
		C913.1,402.4,924,456.4,924,512c0,55.6-10.9,109.6-32.4,160.4c-20.7,49.1-50.5,93.1-88.3,131s-81.9,67.6-131,88.3
		C621.6,913.1,567.6,924,512,924z"/>
	<g>
		<path fill="#1DB8A9" d="M512,136c50.8,0,100,9.9,146.3,29.5c44.8,18.9,85,46.1,119.5,80.6c34.6,34.6,61.7,74.8,80.6,119.5
			C878.1,412,888,461.2,888,512c0,50.8-9.9,100-29.5,146.3c-18.9,44.8-46.1,85-80.6,119.5c-34.6,34.6-74.8,61.7-119.5,80.6
			C612,878.1,562.8,888,512,888s-100-9.9-146.3-29.5c-44.8-18.9-85-46.1-119.5-80.6c-34.6-34.6-61.7-74.8-80.6-119.5
			C145.9,612,136,562.8,136,512c0-50.8,9.9-100,29.5-146.3c18.9-44.8,46.1-85,80.6-119.5c34.6-34.6,74.8-61.7,119.5-80.6
			C412,145.9,461.2,136,512,136 M512,64C264.6,64,64,264.6,64,512s200.6,448,448,448s448-200.6,448-448S759.4,64,512,64L512,64z"/>
	</g>
</g>
<path fill="#1DB8A9" d="M512,64C264.6,64,64,264.6,64,512s200.6,448,448,448s448-200.6,448-448S759.4,64,512,64z M887.9,504.8
	l-154.7,55.4l-81-225.9L807,278.8C856.3,341,886.3,419.4,887.9,504.8z M665.4,584.5l-225.9,81l-81-225.9l225.9-81L665.4,584.5z
	 M751.6,222.2L628,266.5l-44.3-123.7C643.9,154.4,702.1,181.1,751.6,222.2z M504.8,136.1l55.4,154.7l-225.9,81L278.8,217
	C341,167.7,419.4,137.7,504.8,136.1z M222.2,272.4L266.5,396l-123.7,44.3C154.4,380.1,181.1,321.9,222.2,272.4z M136.1,519.2
	l154.7-55.4l81,225.9L217,745.2C167.7,683,137.7,604.6,136.1,519.2z M272.4,801.8L396,757.5l44.3,123.7
	C380.1,869.6,321.9,842.9,272.4,801.8z M519.2,887.9l-55.4-154.7l225.9-81L745.2,807C683,856.3,604.6,886.3,519.2,887.9z
	 M801.8,751.6L757.5,628l123.7-44.3C869.6,643.9,842.9,702.1,801.8,751.6z"/>
</svg>
