<?xml version="1.0" encoding="utf-8"?>
<!-- Generator: Adobe Illustrator 26.2.1, SVG Export Plug-In . SVG Version: 6.00 Build 0)  -->
<svg version="1.1" id="icon" xmlns="http://www.w3.org/2000/svg" xmlns:xlink="http://www.w3.org/1999/xlink" x="0px" y="0px"
	 viewBox="0 0 1024 1024" enable-background="new 0 0 1024 1024" xml:space="preserve">
<g>
	<g>
		<path fill="#666666" d="M448,704c0,106-86,192-192,192S64,810,64,704s86-192,192-192S448,598,448,704z M512,64
			c-106,0-192,86-192,192s86,192,192,192s192-86,192-192S618,64,512,64z M768,512c-106,0-192,86-192,192s86,192,192,192
			s192-86,192-192S874,512,768,512z"/>
	</g>
</g>
</svg>
