<?xml version="1.0" encoding="utf-8"?>
<!-- Generator: Adobe Illustrator 27.0.1, SVG Export Plug-In . SVG Version: 6.00 Build 0)  -->
<svg version="1.1" id="icon" xmlns="http://www.w3.org/2000/svg" xmlns:xlink="http://www.w3.org/1999/xlink" x="0px" y="0px"
	 viewBox="0 0 1024 1024" enable-background="new 0 0 1024 1024" xml:space="preserve">
<ellipse fill="#666666" cx="239.9" cy="512" rx="111.9" ry="111.5"/>
<path fill="#666666" d="M239.9,192c26.6,0,47.9,21.3,47.9,47.5c0,26.2-21.3,47.5-47.9,47.5c-26.6,0-47.9-21.3-47.9-47.5
	C192,213.3,213.3,192,239.9,192 M239.9,128C178.1,128,128,177.9,128,239.5S178.1,351,239.9,351s111.9-49.9,111.9-111.5
	S301.8,128,239.9,128L239.9,128z"/>
<path fill="#666666" d="M239.9,737c26.6,0,47.9,21.3,47.9,47.5c0,26.2-21.3,47.5-47.9,47.5c-26.6,0-47.9-21.3-47.9-47.5
	C192,758.3,213.3,737,239.9,737 M239.9,673C178.1,673,128,722.9,128,784.5S178.1,896,239.9,896s111.9-49.9,111.9-111.5
	S301.8,673,239.9,673L239.9,673z"/>
<ellipse fill="#666666" cx="784.1" cy="512" rx="111.9" ry="111.5"/>
<path fill="#666666" d="M784.1,192c26.6,0,47.9,21.3,47.9,47.5c0,26.2-21.3,47.5-47.9,47.5c-26.6,0-47.9-21.3-47.9-47.5
	C736.2,213.3,757.5,192,784.1,192 M784.1,128c-61.9,0-111.9,49.9-111.9,111.5S722.2,351,784.1,351S896,301.1,896,239.5
	S845.9,128,784.1,128L784.1,128z"/>
<path fill="#666666" d="M784.1,737c26.6,0,47.9,21.3,47.9,47.5c0,26.2-21.3,47.5-47.9,47.5c-26.6,0-47.9-21.3-47.9-47.5
	C736.2,758.3,757.5,737,784.1,737 M784.1,673c-61.9,0-111.9,49.9-111.9,111.5S722.2,896,784.1,896S896,846.1,896,784.5
	S845.9,673,784.1,673L784.1,673z"/>
<path fill="#666666" d="M512,464.5c26.6,0,47.9,21.3,47.9,47.5c0,26.2-21.3,47.5-47.9,47.5c-26.6,0-47.9-21.3-47.9-47.5
	C464.1,485.8,485.4,464.5,512,464.5 M512,400.5c-61.9,0-111.9,49.9-111.9,111.5S450.1,623.5,512,623.5S623.9,573.6,623.9,512
	S573.8,400.5,512,400.5L512,400.5z"/>
<ellipse fill="#666666" cx="512" cy="239.5" rx="111.9" ry="111.5"/>
<ellipse fill="#666666" cx="512" cy="784.5" rx="111.9" ry="111.5"/>
</svg>
