<?xml version="1.0" encoding="utf-8"?>
<!-- Generator: Adobe Illustrator 27.3.1, SVG Export Plug-In . SVG Version: 6.00 Build 0)  -->
<svg version="1.1" id="icon" xmlns="http://www.w3.org/2000/svg" xmlns:xlink="http://www.w3.org/1999/xlink" x="0px" y="0px"
	 viewBox="0 0 1024 1024" enable-background="new 0 0 1024 1024" xml:space="preserve">
<path fill="#666666" d="M896,824c0,39.8-32.2,72-72,72H200c-39.8,0-72-32.2-72-72V200c0-39.8,32.2-72,72-72h624
	c39.8,0,72,32.2,72,72V824z M519.8,722.9c91.7-0.7,155.6-33.9,155.6-124.9c0-44.2-22.9-78.4-68.4-90.4
	c40.5-15.2,59.4-48.2,59.4-90.1c0-88.6-77.7-116.5-166.3-116.5H348.6v421.9H519.8z M450.3,379.3c50.1,0,80.7-2.6,99.4,11.8
	c19.4,14.9,21.5,56.6,1.2,73.7c-18.1,15.2-50.5,12.2-100.5,12.2V379.3z M521.6,543.6c35,0.2,52.4,17.9,52.4,53
	c0,58.6-65.6,48.1-123.7,48.1V543.6H521.6z"/>
</svg>
