<?xml version="1.0" encoding="utf-8"?>
<!-- Generator: Adobe Illustrator 27.3.1, SVG Export Plug-In . SVG Version: 6.00 Build 0)  -->
<svg version="1.1" id="icon" xmlns="http://www.w3.org/2000/svg" xmlns:xlink="http://www.w3.org/1999/xlink" x="0px" y="0px"
	 viewBox="0 0 1024 1024" enable-background="new 0 0 1024 1024" xml:space="preserve">
<g>
	<path fill="#666666" d="M246.5,894.9v-738H505c151.8,0,273.2,50.9,273.2,202c0,72.2-38.9,130.2-105.4,155.9
		c73.7,18.4,122.1,77.3,122.1,162.9c0,153.4-108.1,215.9-261.5,217.2H246.5z M398.6,572.9v200h130.3c66.3,0,114-31.8,114-96.7
		c0-67.8-35-102.3-104.9-103.3H398.6z M398.6,465.9c114.1,0,227.6,15.9,227.6-91.7c0-112.5-108-94.3-227.6-94.3V465.9z"/>
</g>
</svg>
