<?xml version="1.0" encoding="utf-8"?>
<!-- Generator: Adobe Illustrator 27.3.1, SVG Export Plug-In . SVG Version: 6.00 Build 0)  -->
<svg version="1.1" id="icon" xmlns="http://www.w3.org/2000/svg" xmlns:xlink="http://www.w3.org/1999/xlink" x="0px" y="0px"
	 viewBox="0 0 1024 1024" enable-background="new 0 0 1024 1024" xml:space="preserve">
<path fill="#666666" d="M896,824c0,39.8-32.2,72-72,72H200c-39.8,0-72-32.2-72-72V200c0-39.8,32.2-72,72-72h624
	c39.8,0,72,32.2,72,72V824z M485.1,722.9c223.5-1.2,252.1-308.7,97.6-396.5c-54.1-30.7-85.5-25.4-236.4-25.4v421.9H485.1z
	 M574,502.7c0,31.2,1.2,78.1-23.5,110.8c-26.8,35.6-62.3,31.1-102.6,31.1V379.6C494,379.6,574,368.9,574,502.7z"/>
</svg>
