<?xml version="1.0" encoding="utf-8"?>
<!-- Generator: Adobe Illustrator 27.3.1, SVG Export Plug-In . SVG Version: 6.00 Build 0)  -->
<svg version="1.1" id="icon" xmlns="http://www.w3.org/2000/svg" xmlns:xlink="http://www.w3.org/1999/xlink" x="0px" y="0px"
	 viewBox="0 0 1024 1024" enable-background="new 0 0 1024 1024" xml:space="preserve">
<g>
	<path fill="#666666" d="M817.7,648.9c-11.9,164.6-129.8,256-297,256c-204.5,0-304.6-153.3-304.6-357.7c0-65.3-2.9-145.2,37.5-232.6
		c51.4-111,149.2-167.7,269.1-167.7c168.3,0,279.5,93,296,260.5h-152c-7.3-93.8-49.9-135.5-144-135.5c-50.7,0-88.6,18.2-113.8,54.5
		c-42.3,61.1-38.8,157.8-38.8,224.6c0,124.7,25.9,229.9,150.5,229.9c89.3,0,137.9-37.7,145-132H817.7z"/>
</g>
</svg>
