<?xml version="1.0" encoding="utf-8"?>
<!-- Generator: Adobe Illustrator 27.3.1, SVG Export Plug-In . SVG Version: 6.00 Build 0)  -->
<svg version="1.1" id="icon" xmlns="http://www.w3.org/2000/svg" xmlns:xlink="http://www.w3.org/1999/xlink" x="0px" y="0px"
	 viewBox="0 0 1024 1024" enable-background="new 0 0 1024 1024" xml:space="preserve">
<path fill="#666666" d="M896,824c0,39.8-32.2,72-72,72H200c-39.8,0-72-32.2-72-72V200c0-39.8,32.2-72,72-72h624
	c39.8,0,72,32.2,72,72V824z M587,580.1c-1.5,45.5-24,69-73.3,69c-67.2,0-75.3-58-75.3-125.5c0-35.9-1.4-88.5,18.5-120.5
	c24.6-39.6,87.9-33.1,111.3-11.6c12.2,11.2,18.6,29.7,19.4,55.3H689C680.2,348.5,611.3,295,512.6,295c-70.8,0-127.1,34.8-156,97.2
	c-39.3,84.7-50.2,336.6,157.2,336.6c96.7,0,170.1-53.7,174.4-148.6H587z"/>
</svg>
