<?xml version="1.0" encoding="utf-8"?>
<!-- Generator: Adobe Illustrator 27.3.1, SVG Export Plug-In . SVG Version: 6.00 Build 0)  -->
<svg version="1.1" xmlns="http://www.w3.org/2000/svg" xmlns:xlink="http://www.w3.org/1999/xlink" x="0px" y="0px"
	 viewBox="0 0 1008 1008" enable-background="new 0 0 1008 1008" xml:space="preserve">
<g id="evidence-types" display="none">
	<g id="oncogenic" display="inline">
		<path fill="#666666" d="M855.4,495.9l77.9-76.3c23.2-22,12.4-61.1-18.1-68.4L809,324.2L839,219.1c8.5-30.2-20-58.7-50.3-50.3
			l-105.1,29.9L656.6,92.5c-7.2-30-46.7-41-68.3-18.1L512,153l-76.2-78.5c-21.4-22.6-61.1-12.3-68.3,18.1l-27.1,106.2l-105.1-29.9
			c-30.2-8.5-58.7,20.1-50.3,50.3L215,324.2l-106.2,27.1c-30.5,7.3-41.3,46.4-18.1,68.4l77.9,76.3l-77.9,76.3
			c-23.2,22-12.4,61.1,18.1,68.4L215,667.6L185,772.7c-8.5,30.2,20,58.7,50.3,50.3L340.3,793l27.1,106.2
			c7.5,31.5,46.9,40.7,68.3,18.1l76.2-78l76.2,78c21.2,22.9,61,12.7,68.3-18.1L683.7,793l105.1,29.9c30.2,8.5,58.7-20.1,50.3-50.3
			L809,667.6l106.2-27.1c30.5-7.3,41.3-46.4,18.1-68.4L855.4,495.9L855.4,495.9z"/>
	</g>
	<g id="functional">
		<path display="inline" fill="#666666" d="M929.9,603.7l-77-44.4c7.8-41.9,7.8-84.9,0-126.8l77-44.4c8.9-5.1,12.8-15.5,9.9-25.3
			c-20.1-64.3-54.2-122.5-98.8-170.9c-6.9-7.4-18.1-9.2-26.7-4.2l-77,44.4c-32.3-27.8-69.5-49.3-109.8-63.4V80c0-10.1-7-19-17-21.1
			c-66.3-14.8-134.2-14.1-197.3,0c-9.9,2.2-17,11-17,21.1v88.9c-40.1,14.3-77.3,35.8-109.8,63.4l-76.8-44.4
			c-8.9-5.1-19.9-3.4-26.7,4.2c-44.6,48.2-78.8,106.4-98.8,170.9c-3.1,9.8,1.1,20.2,9.9,25.3l77,44.4c-7.8,41.9-7.8,84.9,0,126.8
			l-77,44.4c-8.9,5.1-12.8,15.5-9.9,25.3c20.1,64.3,54.2,122.5,98.8,170.9c6.9,7.4,18.1,9.2,26.7,4.2l77-44.4
			c32.3,27.8,69.5,49.3,109.8,63.4V912c0,10.1,7,19,17,21.1c66.3,14.8,134.2,14.1,197.3,0c9.9-2.2,17-11,17-21.1v-88.9
			c40.1-14.3,77.3-35.8,109.8-63.4l77,44.4c8.9,5.1,19.9,3.4,26.7-4.2c44.6-48.2,78.8-106.4,98.8-170.9
			C942.7,619.2,938.8,608.7,929.9,603.7z M511.9,640.3c-79.7,0-144.5-64.9-144.5-144.5s64.9-144.5,144.5-144.5
			s144.5,64.9,144.5,144.5S591.6,640.3,511.9,640.3z"/>
	</g>
	<g id="predisposing">
		<path display="inline" fill="#666666" d="M943.1,777.8c28.3,49-7.2,110.2-63.7,110.2H144.6c-56.6,0-91.9-61.3-63.7-110.2
			l367.4-637c28.3-49,99.1-48.9,127.3,0L943.1,777.8L943.1,777.8z M512,646.1c-38.9,0-70.4,31.5-70.4,70.4s31.5,70.4,70.4,70.4
			s70.4-31.5,70.4-70.4S550.9,646.1,512,646.1z M445.1,392.9l11.4,208.2c0.5,9.7,8.6,17.4,18.3,17.4h74.3c9.8,0,17.8-7.6,18.3-17.4
			l11.4-208.2c0.6-10.5-7.8-19.4-18.3-19.4h-97.1C452.9,373.5,444.6,382.4,445.1,392.9L445.1,392.9z"/>
	</g>
	<g id="prognostic">
		<path display="inline" fill="#666666" d="M955.6,724.2L738.2,226.4c-7.7-17.7-24.6-29-43.1-29H543.3l3.8,36
			c0.8,7.3-5,13.8-12.4,13.8h-45.4c-7.4,0-13.2-6.4-12.4-13.8l3.8-36H328.9c-18.6,0-35.4,11.3-43.1,29L68.4,724.2
			c-14.4,33,8.6,70.5,43.2,70.5h306.2l16-151.9c1.3-12.7,12-22.3,24.7-22.3h107c12.7,0,23.4,9.6,24.7,22.3l16,151.9h306.2
			C947.1,794.7,970,757.1,955.6,724.2L955.6,724.2z M469.1,308c0.7-6.3,6-11.1,12.4-11.1h61.1c6.4,0,11.7,4.8,12.4,11.1l7.2,67.8
			c1.2,11-7.5,20.6-18.6,20.6h-63.1c-11.1,0-19.7-9.6-18.6-20.6L469.1,308z M555,570.7h-86c-14.8,0-26.3-12.8-24.7-27.5l7.9-74.7
			c1.3-12.7,12-22.3,24.7-22.3h70.2c12.7,0,23.4,9.6,24.7,22.3l7.9,74.7C581.3,557.9,569.8,570.7,555,570.7z"/>
	</g>
	<g id="diagnostic">
		<path display="inline" fill="#666666" d="M911.9,795.8L751.8,635.7c-7.2-7.2-17-11.2-27.3-11.2h-26.2
			c44.3-56.7,70.7-128,70.7-205.6c0-184.5-149.5-334-334-334s-334,149.5-334,334s149.5,334,334,334c77.6,0,148.9-26.3,205.6-70.7
			v26.2c0,10.3,4,20.1,11.2,27.3l160.1,160.1c15.1,15.1,39.5,15.1,54.4,0l45.4-45.4C926.9,835.3,926.9,810.9,911.9,795.8z
			 M434.9,674C294,674,179.8,560,179.8,418.9c0-140.9,114-255.1,255.1-255.1c140.9,0,255.1,114,255.1,255.1
			C690.1,559.8,576.1,674,434.9,674z"/>
	</g>
	<g id="predictive">
		<path display="inline" fill="#666666" d="M942.7,473.9c-183.3-357.6-678.1-357.7-861.4,0c-7,13.9-7,30.3,0,44.2
			c183.3,357.6,678.1,357.7,861.4,0C949.7,504.2,949.7,487.8,942.7,473.9z M512,714c-120.4,0-218-97.6-218-218s97.6-218,218-218
			s218,97.6,218,218C730,616.3,632.5,714.1,512,714z M473.7,356.4c49,66.5-34.7,150.2-101.3,101.3c-21,77.3,24.7,156.9,101.9,177.9
			s156.9-24.7,177.9-101.9C681.9,424.4,580.1,325.4,473.7,356.4z"/>
	</g>
</g>
<g id="evidence-directions" display="none">
	<g id="does-not-support" display="inline">
		<path fill="#666666" d="M885.9,386.1c4.4-35.8-6-72.8-26-100.5c-1.4-83.9-53.7-143-169.4-143c-10.5,0-22.5,0-33.3,0
			c-154.1,0-199.9,58.4-266.7,59.9c-5.4-20.7-24.1-35.9-46.5-35.9h-96c-26.5,0-48,21.5-48,48v360c0,26.5,21.5,48,48,48h148.1
			c28.7,25.4,69,91,103.1,125.1c20.5,20.5,15.2,162.9,107.6,162.9c145.9,0,161.2-144.7,129.6-226.9h54.7
			c95.1,0,165.4-106.2,108.1-203.1C906.4,446.6,900.7,413.8,885.9,386.1z M806.8,399.8c32.4,30.6,28,76.6,7.8,98.4
			c14.2,0,33.5,28.4,33.4,56.7c-0.1,28.4-25.1,56.7-56.7,56.7h-156c0,56.7,42.5,83.1,42.5,141.8c0,35.6,0,85.1-70.9,85.1
			c-28.4-28.4-14.2-99.3-56.7-141.8c-39.8-39.9-99.3-146.2-141.8-146.2H392V271.3c80.4,0,150-56.7,257.5-56.7
			c61.4,0,154.1-13.2,136.4,98.8C808.7,325.7,825.6,368.1,806.8,399.8L806.8,399.8z M296,298.6c-19.9,0-36-16.1-36-36s16.1-36,36-36
			s36,16.1,36,36S315.9,298.6,296,298.6z"/>
	</g>
	<g id="supports" display="inline">
		<path fill="#666666" d="M899.4,511.4c57.1-96.7-12.8-203.1-108.1-203.1h-54.7c30.3-79,19.6-226.9-129.6-226.9
			c-92.4,0-87.1,142.4-107.6,162.9c-34.1,34.1-74.4,99.7-103.1,125.1H248c-26.5,0-48,21.5-48,48v360c0,26.5,21.5,48,48,48h96
			c22.3,0,41.1-15.3,46.5-35.9c66.8,1.5,112.6,59.9,266.7,59.9c10.8,0,22.8,0,33.3,0c115.7,0,168-59.1,169.4-143
			c20-27.6,30.4-64.7,26-100.5C900.7,578.2,906.4,545.4,899.4,511.4z M806.8,592.2c18.8,31.7,1.9,74.1-20.9,86.4
			c17.6,111.7-74.8,98.8-136.4,98.8c-107.5,0-177-56.7-257.5-56.7V441.4h16.4c42.5,0,102-106.3,141.8-146.2
			c42.5-42.5,28.4-113.4,56.7-141.8c70.9,0,70.9,49.5,70.9,85.1c0,58.8-42.5,85.1-42.5,141.8h156c31.7,0,56.6,28.4,56.7,56.7
			c0.1,28.3-19.2,56.7-33.4,56.7C834.8,515.6,839.2,561.6,806.8,592.2L806.8,592.2z M332,729.4c0,19.9-16.1,36-36,36s-36-16.1-36-36
			s16.1-36,36-36S332,709.5,332,729.4z"/>
	</g>
</g>
<g id="variant-origin" display="none">
	<g id="rare_germline">
		<path display="inline" fill="#666666" d="M512,384.5c61.9,0,111.9,49.9,111.9,111.5S573.9,607.5,512,607.5S400.1,557.6,400.1,496
			S450.1,384.5,512,384.5z M400.1,223.5c0,61.6,50.1,111.5,111.9,111.5s111.9-49.9,111.9-111.5S573.9,112,512,112
			S400.1,161.9,400.1,223.5z M400.1,768.5c0,61.6,50.1,111.5,111.9,111.5s111.9-49.9,111.9-111.5S573.9,657,512,657
			S400.1,706.9,400.1,768.5z"/>
	</g>
	<g id="common_germline">
		<path display="inline" fill="#666666" d="M336.1,384.5c61.9,0,111.9,49.9,111.9,111.5s-50.1,111.5-111.9,111.5
			S224.2,557.6,224.2,496S274.2,384.5,336.1,384.5z M224.2,223.5c0,61.6,50.1,111.5,111.9,111.5S448,285.1,448,223.5
			S397.9,112,336.1,112S224.2,161.9,224.2,223.5z M224.2,768.5c0,61.6,50.1,111.5,111.9,111.5S448,830.1,448,768.5
			S397.9,657,336.1,657S224.2,706.9,224.2,768.5z M687.9,384.5c61.9,0,111.9,49.9,111.9,111.5s-50.1,111.5-111.9,111.5
			S576,557.6,576,496S626.1,384.5,687.9,384.5z M576,223.5c0,61.6,50.1,111.5,111.9,111.5s111.9-49.9,111.9-111.5
			S749.8,112,687.9,112S576,161.9,576,223.5z M576,768.5c0,61.6,50.1,111.5,111.9,111.5s111.9-49.9,111.9-111.5S749.8,657,687.9,657
			S576,706.9,576,768.5z"/>
	</g>
	<g id="mixed" display="inline">
		<ellipse fill="#666666" cx="239.9" cy="496" rx="111.9" ry="111.5"/>
		<g>
			<path fill="#666666" d="M239.9,176c12.9,0,24.9,5,34,14c9,8.9,13.9,20.8,13.9,33.5s-4.9,24.6-13.9,33.5c-9,9-21.1,14-34,14
				s-24.9-5-34-14c-9-8.9-13.9-20.8-13.9-33.5s4.9-24.6,13.9-33.5C215,181,227,176,239.9,176 M239.9,112
				C178.1,112,128,161.9,128,223.5S178.1,335,239.9,335s111.9-49.9,111.9-111.5S301.8,112,239.9,112L239.9,112z"/>
		</g>
		<g>
			<path fill="#666666" d="M239.9,721c12.9,0,24.9,5,34,14c9,8.9,13.9,20.8,13.9,33.5c0,12.7-4.9,24.6-13.9,33.5c-9,9-21.1,14-34,14
				s-24.9-5-34-14c-9-8.9-13.9-20.8-13.9-33.5c0-12.7,4.9-24.6,13.9-33.5C215,726,227,721,239.9,721 M239.9,657
				C178.1,657,128,706.9,128,768.5S178.1,880,239.9,880s111.9-49.9,111.9-111.5S301.8,657,239.9,657L239.9,657z"/>
		</g>
		<ellipse fill="#666666" cx="784.1" cy="496" rx="111.9" ry="111.5"/>
		<g>
			<path fill="#666666" d="M784.1,176c12.9,0,24.9,5,34,14c9,8.9,13.9,20.8,13.9,33.5s-4.9,24.6-13.9,33.5c-9,9-21.1,14-34,14
				s-24.9-5-34-14c-9-8.9-13.9-20.8-13.9-33.5s4.9-24.6,13.9-33.5C759.1,181,771.2,176,784.1,176 M784.1,112
				c-61.9,0-111.9,49.9-111.9,111.5S722.2,335,784.1,335S896,285.1,896,223.5S845.9,112,784.1,112L784.1,112z"/>
		</g>
		<g>
			<path fill="#666666" d="M784.1,721c12.9,0,24.9,5,34,14c9,8.9,13.9,20.8,13.9,33.5c0,12.7-4.9,24.6-13.9,33.5c-9,9-21.1,14-34,14
				s-24.9-5-34-14c-9-8.9-13.9-20.8-13.9-33.5c0-12.7,4.9-24.6,13.9-33.5C759.1,726,771.2,721,784.1,721 M784.1,657
				c-61.9,0-111.9,49.9-111.9,111.5S722.2,880,784.1,880S896,830.1,896,768.5S845.9,657,784.1,657L784.1,657z"/>
		</g>
		<g>
			<path fill="#666666" d="M512,448.5c12.9,0,24.9,5,34,14c9,8.9,13.9,20.8,13.9,33.5s-4.9,24.6-13.9,33.5c-9,9-21.1,14-34,14
				c-12.9,0-24.9-5-34-14c-9-8.9-13.9-20.8-13.9-33.5s4.9-24.6,13.9-33.5C487,453.5,499.1,448.5,512,448.5 M512,384.5
				c-61.9,0-111.9,49.9-111.9,111.5S450.1,607.5,512,607.5S623.9,557.6,623.9,496S573.8,384.5,512,384.5L512,384.5z"/>
		</g>
		<ellipse fill="#666666" cx="512" cy="223.5" rx="111.9" ry="111.5"/>
		<ellipse fill="#666666" cx="512" cy="768.5" rx="111.9" ry="111.5"/>
	</g>
	<g id="somatic">
		<path display="inline" fill="#666666" d="M623.5,496c0,61.9-49.9,111.9-111.5,111.9S400.5,557.9,400.5,496S450.4,384.1,512,384.1
			S623.5,434.1,623.5,496z M784.5,384.1C722.9,384.1,673,434.1,673,496s49.9,111.9,111.5,111.9S896,557.9,896,496
			S846.1,384.1,784.5,384.1z M239.5,384.1C177.9,384.1,128,434.1,128,496s49.9,111.9,111.5,111.9S351,557.9,351,496
			S301.1,384.1,239.5,384.1z"/>
	</g>
	<g id="unknown">
		<path display="inline" fill="#666666" d="M960,496c0,247.5-200.6,448-448,448S64,743.5,64,496C64,248.7,264.6,48,512,48
			S960,248.7,960,496z M524,196.1c-98.4,0-161.2,41.5-210.5,115.2c-6.4,9.5-4.3,22.4,4.9,29.4l62.7,47.5c9.4,7.1,22.8,5.4,30.1-3.8
			c32.3-40.9,54.4-64.7,103.5-64.7c36.9,0,82.6,23.8,82.6,59.5c0,27.1-22.3,40.9-58.8,61.4c-42.5,23.8-98.7,53.5-98.7,127.6v7.2
			c0,12,9.7,21.7,21.7,21.7h101.2c12,0,21.7-9.7,21.7-21.7v-2.4c0-51.4,150.3-53.6,150.3-192.7C734.5,275.6,625.8,196.1,524,196.1z
			 M512,644.1c-45.8,0-83.1,37.3-83.1,83.1c0,45.8,37.3,83.1,83.1,83.1s83.1-37.3,83.1-83.1C595.1,681.4,557.8,644.1,512,644.1z"/>
	</g>
</g>
<g id="clinical-significance">
	<g id="unknown_1_" display="none">
		<path display="inline" fill="#666666" d="M512.6,151.7c-107.3,0-176.9,44-231.5,122.4c-9.9,14.2-6.8,33.7,7,44.2l58,44
			c14,10.6,33.8,8.1,44.7-5.6c33.7-42.2,58.7-66.5,111.3-66.5c41.4,0,92.5,26.6,92.5,66.7c0,30.3-25,45.9-65.9,68.8
			c-47.6,26.7-110.7,59.9-110.7,143.1v13.2c0,17.8,14.5,32.3,32.3,32.3h97.5c17.8,0,32.3-14.5,32.3-32.3v-7.8
			c0-57.6,168.5-60,168.5-216C748.6,240.8,626.8,151.7,512.6,151.7z M499.2,654c-51.4,0-93.2,41.8-93.2,93.2
			c0,51.4,41.8,93.2,93.2,93.2s93.2-41.8,93.2-93.2S550.5,654,499.2,654z"/>
	</g>
	<g id="neomorphic">
		<path fill="#666666" d="M556.4,237.9l57,57L180.7,727.6c-11.1,11.1-11.1,29,0,40.1l58.9,58.9c11.1,11.1,29,11.1,40.1,0
			l432.7-432.7l57,57c26.5,26.5,71.7,7.7,71.7-29.7v-213c0-23.2-18.8-42-42-42h-213C548.7,166.2,529.9,211.5,556.4,237.9
			L556.4,237.9z"/>
	</g>
	<g id="dominant-negative" display="none">
		<path display="inline" fill="#666666" d="M433.9,648.9c37.4,0,56.2,45.2,29.7,71.7L313,871.2c-16.4,16.4-43,16.4-59.4,0L103,720.6
			c-26.5-26.5-7.7-71.7,29.7-71.7h80.6V134c0-15.7,12.7-28.3,28.3-28.3l83.3,0c15.7,0,28.3,12.7,28.3,28.3v514.9L433.9,648.9
			L433.9,648.9z M891.3,648.9h-80.6V134c0-15.7-12.7-28.3-28.3-28.3l-83.3,0c-15.7,0-28.3,12.7-28.3,28.3v514.9h-80.6
			c-37.4,0-56.2,45.2-29.7,71.7L711,871.2c16.4,16.4,43,16.4,59.4,0L921,720.6C947.4,694.1,928.7,648.9,891.3,648.9L891.3,648.9z"/>
	</g>
	<g id="predisposition" display="none">
		<path display="inline" fill="#666666" d="M960,496c0,247.5-200.6,448-448,448S64,743.5,64,496C64,248.7,264.6,48,512,48
			S960,248.7,960,496z M512,586.3c-45.9,0-83.1,37.2-83.1,83.1c0,45.9,37.2,83.1,83.1,83.1s83.1-37.2,83.1-83.1
			C595.1,623.5,557.9,586.3,512,586.3z M433.1,287.6l13.4,245.7c0.6,11.5,10.1,20.5,21.6,20.5h87.7c11.5,0,21-9,21.6-20.5
			l13.4-245.7c0.7-12.4-9.2-22.9-21.6-22.9H454.7C442.3,264.8,432.4,275.2,433.1,287.6L433.1,287.6z"/>
	</g>
	<g id="unaltered-function" display="none">
		<path display="inline" fill="#666666" d="M725.4,344.7v80.6H298.6v-80.6c0-37.4-45.2-56.2-71.7-29.7L76.3,465.6
			c-16.4,16.4-16.4,43,0,59.4l150.6,150.6c26.5,26.5,71.7,7.7,71.7-29.7v-80.6h426.8v80.6c0,37.4,45.2,56.2,71.7,29.7L947.7,525
			c16.4-16.4,16.4-43,0-59.4L797.1,315C770.6,288.6,725.4,307.3,725.4,344.7L725.4,344.7z"/>
	</g>
	<g id="loss-of-function" display="none">
		<path display="inline" fill="#666666" d="M512,48C264.5,48,64,248.5,64,496s200.5,448,448,448s448-200.5,448-448S759.5,48,512,48z
			 M512,857.3c-199.6,0-361.3-161.7-361.3-361.3S312.4,134.7,512,134.7S873.3,296.4,873.3,496S711.6,857.3,512,857.3z M454.2,286.5
			V496h-121c-19.3,0-28.9,23.3-15.4,37l178.8,178.8c8.5,8.5,22.2,8.5,30.7,0L706.2,533c13.7-13.7,4-37-15.4-37h-121V286.5
			c0-11.9-9.8-21.7-21.7-21.7h-72.3C463.9,264.8,454.2,274.5,454.2,286.5z"/>
	</g>
	<g id="gain-of-function" display="none">
		<path display="inline" fill="#666666" d="M512,944c247.5,0,448-200.5,448-448S759.5,48,512,48S64,248.5,64,496S264.5,944,512,944z
			 M512,134.7c199.6,0,361.3,161.7,361.3,361.3S711.6,857.3,512,857.3S150.7,695.6,150.7,496S312.4,134.7,512,134.7z M569.8,705.5
			V496h121c19.3,0,28.9-23.3,15.4-37L527.4,280.1c-8.5-8.5-22.2-8.5-30.7,0L317.8,459c-13.7,13.7-4,37,15.4,37h121v209.5
			c0,11.9,9.8,21.7,21.7,21.7h72.3C560.1,727.2,569.8,717.5,569.8,705.5z"/>
	</g>
	<g id="uncertain-significance" display="none">
		<path display="inline" fill="#666666" d="M512,48C264.6,48,64,248.7,64,496c0,247.5,200.6,448,448,448s448-200.5,448-448
			C960,248.7,759.4,48,512,48z M512,857.3c-199.7,0-361.3-161.6-361.3-361.3c0-199.6,161.6-361.3,361.3-361.3
			c199.6,0,361.3,161.6,361.3,361.3C873.3,695.7,711.7,857.3,512,857.3z M705.7,396.3c0,121.1-130.8,123-130.8,167.8v11.4
			c0,12-9.7,21.7-21.7,21.7h-82.5c-12,0-21.7-9.7-21.7-21.7v-15.6c0-64.6,49-90.4,85.9-111.1c31.7-17.8,51.2-29.9,51.2-53.4
			c0-31.2-39.7-51.8-71.9-51.8c-41.9,0-61.2,19.8-88.4,54.1c-7.3,9.2-20.7,11-30.1,3.8l-50.3-38.1c-9.2-7-11.3-20-4.8-29.6
			c42.7-62.7,97-97.9,181.7-97.9C611.1,235.9,705.7,305.1,705.7,396.3z M587.9,698.3c0,41.8-34,75.9-75.9,75.9s-75.9-34-75.9-75.9
			c0-41.8,34-75.9,75.9-75.9S587.9,656.5,587.9,698.3z"/>
	</g>
	<g id="likely-benign" display="none">
		<path display="inline" fill="#666666" d="M868.6,770.3H155.4c-15.1,0-27.4,12.3-27.4,27.4v54.9c0,15.1,12.3,27.4,27.4,27.4h713.1
			c15.1,0,27.4-12.3,27.4-27.4v-54.9C896,782.6,883.7,770.3,868.6,770.3z M749.7,550.9H274.3c-10.1,0-18.3,12.3-18.3,27.4v54.9
			c0,15.1,8.2,27.4,18.3,27.4h475.4c10.1,0,18.3-12.3,18.3-27.4v-54.9C768,563.1,759.8,550.9,749.7,550.9z M868.6,331.4H155.4
			c-15.1,0-27.4,12.3-27.4,27.4v54.9c0,15.1,12.3,27.4,27.4,27.4h713.1c15.1,0,27.4-12.3,27.4-27.4v-54.9
			C896,343.7,883.7,331.4,868.6,331.4z M749.7,112H274.3c-10.1,0-18.3,12.3-18.3,27.4v54.9c0,15.1,8.2,27.4,18.3,27.4h475.4
			c10.1,0,18.3-12.3,18.3-27.4v-54.9C768,124.3,759.8,112,749.7,112z"/>
	</g>
	<g id="benign" display="none">
		<path display="inline" fill="#666666" d="M868.6,770.3H155.4c-15.1,0-27.4,12.3-27.4,27.4v54.9c0,15.1,12.3,27.4,27.4,27.4h713.1
			c15.1,0,27.4-12.3,27.4-27.4v-54.9C896,782.6,883.7,770.3,868.6,770.3z M868.6,550.9H155.4c-15.1,0-27.4,12.3-27.4,27.4v54.9
			c0,15.1,12.3,27.4,27.4,27.4h713.1c15.1,0,27.4-12.3,27.4-27.4v-54.9C896,563.1,883.7,550.9,868.6,550.9z M868.6,331.4H155.4
			c-15.1,0-27.4,12.3-27.4,27.4v54.9c0,15.1,12.3,27.4,27.4,27.4h713.1c15.1,0,27.4-12.3,27.4-27.4v-54.9
			C896,343.7,883.7,331.4,868.6,331.4z M868.6,112H155.4c-15.1,0-27.4,12.3-27.4,27.4v54.9c0,15.1,12.3,27.4,27.4,27.4h713.1
			c15.1,0,27.4-12.3,27.4-27.4v-54.9C896,124.3,883.7,112,868.6,112z"/>
	</g>
	<g id="likely-pathogenic" display="none">
		<path display="inline" fill="#666666" d="M572,160h288c19.9,0,36,16.1,36,36v240c0,19.9-16.1,36-36,36H572c-19.9,0-36-16.1-36-36
			V196C536,176.1,552.1,160,572,160z M452,160H164c-19.9,0-36,16.1-36,36v240c0,19.9,16.1,36,36,36h288c19.9,0,36-16.1,36-36V196
			C488,176.1,471.9,160,452,160z M128,556v240c0,19.9,16.1,36,36,36h288c19.9,0,36-16.1,36-36V556c0-19.9-16.1-36-36-36H164
			C144.1,520,128,536.1,128,556z M572,832h288c19.9,0,36-16.1,36-36V556c0-19.9-16.1-36-36-36H572c-19.9,0-36,16.1-36,36v240
			C536,815.9,552.1,832,572,832z"/>
	</g>
	<g id="pathogenic" display="none">
		<path display="inline" fill="#666666" d="M352,196v120c0,19.9-16.1,36-36,36H164c-19.9,0-36-16.1-36-36V196c0-19.9,16.1-36,36-36
			h152C335.9,160,352,176.1,352,196L352,196z M624,556V436c0-19.9-16.1-36-36-36H436c-19.9,0-36,16.1-36,36v120
			c0,19.9,16.1,36,36,36h152C607.9,592,624,575.9,624,556z M672,196v120c0,19.9,16.1,36,36,36h152c19.9,0,36-16.1,36-36V196
			c0-19.9-16.1-36-36-36H708C688.1,160,672,176.1,672,196z M624,316V196c0-19.9-16.1-36-36-36H436c-19.9,0-36,16.1-36,36v120
			c0,19.9,16.1,36,36,36h152C607.9,352,624,335.9,624,316z M316,400H164c-19.9,0-36,16.1-36,36v120c0,19.9,16.1,36,36,36h152
			c19.9,0,36-16.1,36-36V436C352,416.1,335.9,400,316,400L316,400z M128,676v120c0,19.9,16.1,36,36,36h152c19.9,0,36-16.1,36-36V676
			c0-19.9-16.1-36-36-36H164C144.1,640,128,656.1,128,676z M708,592h152c19.9,0,36-16.1,36-36V436c0-19.9-16.1-36-36-36H708
			c-19.9,0-36,16.1-36,36v120C672,575.9,688.1,592,708,592z M708,832h152c19.9,0,36-16.1,36-36V676c0-19.9-16.1-36-36-36H708
			c-19.9,0-36,16.1-36,36v120C672,815.9,688.1,832,708,832z M400,676v120c0,19.9,16.1,36,36,36h152c19.9,0,36-16.1,36-36V676
			c0-19.9-16.1-36-36-36H436C416.1,640,400,656.1,400,676z"/>
	</g>
	<g id="poor-outcome" display="none">
		<path display="inline" fill="#666666" d="M829.5,439.7l37.3,37.3c15.8,15.8,15.8,41.3,0,56.9L540.5,860.4
			c-15.8,15.8-41.3,15.8-56.9,0L157.2,534.1c-15.8-15.8-15.8-41.3,0-56.9l37.3-37.3c16-16,42-15.6,57.6,0.7l192.6,202.2V160.1
			c0-22.3,18-40.3,40.3-40.3h53.7c22.3,0,40.3,18,40.3,40.3v482.6l192.8-202.4C787.5,423.9,813.5,423.6,829.5,439.7z"/>
	</g>
	<g id="better-outcome" display="none">
		<path display="inline" fill="#666666" d="M194.5,552.3L157.2,515c-15.8-15.8-15.8-41.3,0-56.9l326.3-326.5
			c15.8-15.8,41.3-15.8,56.9,0l326.3,326.3c15.8,15.8,15.8,41.3,0,56.9l-37.3,37.3c-16,16-42,15.6-57.6-0.7L579.3,349.3v482.6
			c0,22.3-18,40.3-40.3,40.3h-53.7c-22.3,0-40.3-18-40.3-40.3V349.3L252.1,551.6C236.5,568.1,210.5,568.4,194.5,552.3z"/>
	</g>
	<g id="negative" display="none">
		<path display="inline" fill="#666666" d="M512,47.8C264.4,47.8,63.8,248.4,63.8,496S264.4,944.2,512,944.2S960.2,743.6,960.2,496
			S759.6,47.8,512,47.8z M772.2,546.6c0,11.9-9.8,21.7-21.7,21.7H273.5c-11.9,0-21.7-9.8-21.7-21.7V445.4c0-11.9,9.8-21.7,21.7-21.7
			h477.1c11.9,0,21.7,9.8,21.7,21.7V546.6z"/>
	</g>
	<g id="positive" display="none">
		<path display="inline" fill="#666666" d="M512,47.8C264.4,47.8,63.8,248.4,63.8,496S264.4,944.2,512,944.2S960.2,743.6,960.2,496
			S759.6,47.8,512,47.8z M772.2,546.6c0,11.9-9.8,21.7-21.7,21.7H584.3v166.3c0,11.9-9.8,21.7-21.7,21.7H461.4
			c-11.9,0-21.7-9.8-21.7-21.7V568.3H273.5c-11.9,0-21.7-9.8-21.7-21.7V445.4c0-11.9,9.8-21.7,21.7-21.7h166.3V257.5
			c0-11.9,9.8-21.7,21.7-21.7h101.2c11.9,0,21.7,9.8,21.7,21.7v166.3h166.3c11.9,0,21.7,9.8,21.7,21.7V546.6z"/>
	</g>
	<g id="reduced-sensitivity" display="none">
		<path display="inline" fill="#666666" d="M855.4,170.6c-97.6-82.1-248.4-69.7-341.8,25.3c-93.4-95.1-244.2-107.6-341.8-25.3
			c-127,106.9-108.4,281.2-17.9,373.5l296.2,301.8c35.3,36,92.2,35.6,127,0.2l296.2-301.8C963.6,451.9,982.5,277.7,855.4,170.6z
			 M815.5,487.2C490.2,818.7,516.2,797.3,507.9,789L211.7,487.2c-61.6-62.8-74.1-181.7,12.3-254.5c65.7-55.2,167-46.9,230.5,17.7
			l59.1,60.3l59.1-60.3c63.8-65,165.1-72.9,230.5-17.9C889.5,305.4,876.7,424.9,815.5,487.2L815.5,487.2z"/>
	</g>
	<g id="adverse-response" display="none">
		<path display="inline" fill="#666666" d="M547.9,148.3c0-35.6-45.9-49.1-66.1-19.5c-185.5,271.2,78.1,283.4,78.1,415.2
			c0,53.4-43.6,96.6-97.1,95.9c-52.7-0.7-94.6-44.6-94.6-97.3V414.4c0-32.5-39.6-48.3-62.1-24.7C266,431.8,224.4,504,224.4,591.9
			c0,158.6,129,287.6,287.6,287.6s287.6-129,287.6-287.6C799.6,336.8,547.9,302.8,547.9,148.3L547.9,148.3z"/>
	</g>
	<g id="resistance" display="none">
		<path display="inline" fill="#666666" d="M512,48C264.6,48,64,248.6,64,496s200.6,448,448,448s448-200.6,448-448S759.4,48,512,48z
			 M747,261c118.2,118.2,126.5,298.9,37.4,425.7l-463-463C448.2,134.5,628.9,142.8,747,261z M277,731
			c-118.2-118.2-126.5-298.9-37.4-425.7l463,463C575.8,857.5,395.1,849.2,277,731z"/>
	</g>
	<g id="sensitivity-response" display="none">
		<path display="inline" fill="#666666" d="M855.4,170.6c-97.6-82.1-248.4-69.7-341.8,25.3c-93.4-95.1-244.2-107.6-341.8-25.3
			c-127,106.9-108.4,281.2-17.9,373.5l296.2,301.8c16.9,17.2,39.5,26.8,63.5,26.8c24.1,0,46.6-9.5,63.5-26.7l296.2-301.8
			C963.6,451.9,982.5,277.7,855.4,170.6z"/>
	</g>
	<g id="protectiveness" display="none">
		<path display="inline" fill="#666666" d="M512,742.1C373.9,742.1,262,632,262,496s111.9-246.1,250-246.1S762,360,762,496
			S650.1,742.1,512,742.1z M512,48c-93.8,0.5-176.6,27.6-246.5,73.8c-20,13.2-25.5,40.2-12.3,60.2c13.2,20.1,40.2,25.6,60.3,12.3
			C370.7,156.6,439,135,512.2,135c24,0,43.5-19.5,43.5-43.5C555.7,67.9,536.7,48,512,48z M161.7,250.1c-27.6,0-38.9,23.8-37.8,22
			C78.2,351.2,60,437.8,64.7,521.3c1.4,25.4,21.5,42,43.4,42c25.1,0,44.9-21.1,43.5-46c-4-69.3,11.5-139.5,47.7-202
			C216.2,286.2,194.9,250.1,161.7,250.1z M161.4,654.6c-33.2,0-54.4,36.1-37.6,65.2C166.2,793.2,229.5,854.9,310,896
			c23.6,12.1,49.2,1.9,59.6-18.8c10.8-21.5,2.1-47.6-19.4-58.4c-31.4-15.8-60.3-36-85.9-60.2C193.5,691.9,203.9,654.6,161.4,654.6z
			 M734.5,790.4c-8.2,0-16.5,2.3-23.9,7.2C651.7,836.4,583,857,512,857c-24.6,0-43.7,19.8-43.7,43.5c0,24,19.4,43.5,43.4,43.5
			c85.6,0.1,171.6-24.2,246.8-73.8C794.4,846.5,777.5,790.4,734.5,790.4z M872.4,474.6c4,69.3-11.5,139.5-47.7,202
			c-16.9,29.1,4.5,65.3,37.6,65.3c27.2,0,40-17.8,63.2-73.2c44.2-105.8,33.6-202.6,34-194.2C956.5,408.8,869.1,418.3,872.4,474.6z
			 M693.3,90.8c-45.7,0-60.4,61.9-19.6,82.4c63.4,31.8,116.2,82,151,142.3c8.1,14,22.6,21.9,37.8,21.9c33.2,0,54.4-36.1,37.6-65.2
			C858,199,793.4,135.9,712.8,95.4C706.5,92.2,699.9,90.8,693.3,90.8z"/>
	</g>
	<g id="oncogenicity" display="none">
		<path display="inline" fill="#FFFFFF" stroke="#000000" stroke-width="76" stroke-linecap="round" stroke-miterlimit="10" d="
			M512,496"/>
		<g display="inline">
			<line fill="#FFFFFF" x1="392.6" y1="103.8" x2="461.2" y2="329.2"/>
		</g>
		<path display="inline" fill="none" stroke="#000000" stroke-width="76" stroke-linecap="round" stroke-miterlimit="10" d="
			M512,496"/>
		<path display="inline" fill="#666666" d="M743.8,588.4c-12.7,30.8-31.5,58.5-55,81.7c-20.3,20-44,36.5-70.3,48.7l-20-66.7
			c-6-20.1-27.2-31.5-47.3-25.5c-20.1,6-31.5,27.2-25.5,47.3l19.8,66c-11,1.4-22.2,2.2-33.5,2.2c-51.9,0-100.1-15.5-140-42.1
			c14.1-15,29.8-31.7,47.3-50.3c14.4-15.3,13.7-39.3-1.6-53.7c-15.3-14.4-39.3-13.7-53.7,1.6l-48.2,51.1
			c-33.7-41.9-53.8-95-53.8-152.6c0-6.4,0.3-12.8,0.7-19.2c74.2,17.4,72.6,16.9,77.2,16.9c44.9,0,52.3-64.8,8.6-75l-68.1-15.9
			c12.7-30.5,31.4-58,54.7-80.9c20.1-19.7,43.5-36.1,69.4-48.3l20.3,66.6c5,16.4,20.1,26.9,36.3,26.9c25.5,0,43.8-24.7,36.4-49.1
			l-20.1-65.9c11.3-1.5,22.8-2.3,34.5-2.3c52,0,100.3,15.6,140.3,42.4l-47.5,50.2c-23,24.3-5.4,64.1,27.6,64.1
			c15.9,0,18.5-1,76.3-62.5c33.4,41.8,53.3,94.6,53.3,152c0,6.2-0.2,12.3-0.7,18.4l-68.6-15.8c-20.4-4.7-40.8,8.1-45.6,28.5
			c-4.7,20.5,8.1,40.8,28.5,45.6C701.1,578.5,723.7,583.7,743.8,588.4z M404.6,273.7c22.6-10.6,47.1-18,72.9-21.5L429,92.8
			c-6.1-20.1-27.3-31.4-47.4-25.3c-20.1,6.1-31.4,27.3-25.3,47.4L404.6,273.7z M688.8,322c7.1,7,13.7,14.3,19.9,22.1
			c25.2-26.8,60.8-65.1,112.5-119.8c14.4-15.3,13.7-39.3-1.5-53.7c-15.3-14.4-39.3-13.7-53.7,1.5L652.3,292.2
			C665.4,301,677.6,311,688.8,322z M280.5,402.9l-158.8-37.1c-20.4-4.8-40.9,7.9-45.7,28.4c-4.8,20.4,7.9,40.9,28.4,45.7
			c74.1,17.3,124.2,29.1,158.3,37.1C264.8,450.8,270.9,426,280.5,402.9z M618.5,718.7c-22.7,10.5-47.2,17.8-73,21.2l47.9,159.6
			c4.9,16.5,20,27.1,36.4,27.1c25.4,0,43.7-24.5,36.4-48.9L618.5,718.7z M335.2,670c-6.9-6.8-13.3-13.9-19.4-21.4L203.7,767.5
			c-22.9,24.2-5.4,64.1,27.6,64.1c19.9,0,13,4.5,140.6-131.6C358.8,691.2,346.5,681.1,335.2,670z M919.9,550.9l-158.6-36.5
			c-2,26-8,50.9-17.5,74C909.9,626.7,905.4,626,911.4,626C956.4,626,963.7,561,919.9,550.9z"/>
	</g>
	<g id="oncogenicity_2_bk" display="none">
		<path display="inline" fill="#666666" d="M512,249.9C373.9,249.9,262,360,262,496s111.9,246.1,250,246.1S762,632,762,496
			S650.1,249.9,512,249.9z M436.3,632.6c-18,18-27.7,31.7-49.6,31.7c-38,0-57.5-46.3-30.4-73.4l19.2-19.1
			c16.8-16.8,44-16.8,60.8,0.1S453.1,615.8,436.3,632.6z M405.8,432.9c-21.6,0-30.3-12.5-49.6-31.8c-16.8-16.8-16.8-44,0.1-60.8
			c16.8-16.8,44-16.8,60.8,0.1l19.1,19.2C463.5,386.7,443.7,432.9,405.8,432.9z M587.7,359.4l19.2-19.1c16.8-16.8,44-16.8,60.8,0.1
			s16.8,44-0.1,60.8c-18,18-27.7,31.7-49.6,31.7C580.1,432.8,560.6,386.5,587.7,359.4z M637.3,664.3c-21.6,0-30.3-12.5-49.6-31.8
			c-16.8-16.8-16.8-44,0.1-60.8c16.8-16.8,44-16.8,60.8,0.1l19.1,19.2C694.9,618.2,675.2,664.3,637.3,664.3z M733.2,317.8
			c-38,0-57.5-46.3-30.4-73.4l65.5-65.4c16.8-16.8,44-16.8,60.8,0s16.8,44,0,60.8C760.5,308.2,756.5,317.8,733.2,317.8z
			 M798.6,825.6c-23.4,0-27.5-9.6-95.8-78.1c-16.8-16.8-16.8-44,0-60.8c16.8-16.8,44-16.8,60.8,0l65.4,65.5
			C856.2,779.4,836.6,825.6,798.6,825.6z M225.4,825.6c-38,0-57.5-46.3-30.4-73.4l65.5-65.4c16.8-16.8,44-16.8,60.8,0
			c16.8,16.8,16.8,44,0,60.8C252.7,816.1,248.7,825.6,225.4,825.6z M290.8,317.8c-23.4,0-27.5-9.6-95.8-78.1
			c-16.8-16.8-16.8-44,0-60.8c16.8-16.8,44-16.8,60.8,0l65.4,65.5C348.3,271.6,328.7,317.8,290.8,317.8z"/>
	</g>
	<g id="oncogenicity_2" display="none">
		<path display="inline" fill="#666666" d="M653.7,698.8c-40.3,27.3-89.1,43.3-141.7,43.3c-52.6,0-101.5-16-141.7-43.3
			c18.9-19.1,40.8-41,66-66.2c16.8-16.8,16.8-44,0-60.8c-16.8-16.8-44-16.8-60.8,0l-67.1,67.1C279.2,598.6,262,549.3,262,496
			c0-53.1,17.1-102.2,46.1-142.4c79.6,80.3,79.6,79.3,97.8,79.3c38,0,57.6-46.2,30.4-73.4l-66.1-66.2
			c40.3-27.4,89.2-43.4,141.9-43.4c52.7,0,101.6,16,141.9,43.4l-66.1,66.1c-27.2,27.1-7.6,73.4,30.4,73.4c18.1,0,15.6,3.4,97.8-79.4
			c29,40.2,46.1,89.4,46.1,142.5c0,53.3-17.2,102.6-46.4,142.8l-67.1-67.1c-16.8-16.8-44-16.8-60.8,0c-16.8,16.8-16.8,44,0,60.8
			C613,657.8,634.8,679.7,653.7,698.8z M715.9,353.5c27.2-27.4,63.6-64.2,113.1-113.7c16.8-16.8,16.8-44,0-60.8
			c-16.8-16.8-44-16.8-60.8,0L653.9,293.3C677.9,309.7,698.9,330,715.9,353.5z M308.1,353.6c16.9-23.5,38-43.9,62-60.2L255.8,179
			c-16.8-16.8-44-16.8-60.8,0c-16.8,16.8-16.8,44,0,60.8C244.5,289.3,280.9,326.2,308.1,353.6z M308.4,638.8L195,752.2
			c-27.2,27.2-7.5,73.4,30.4,73.4c21,0,14.3,4.6,144.9-126.8C346.3,682.5,325.3,662.2,308.4,638.8z M829,752.2L715.7,638.8
			c-16.9,23.4-37.9,43.7-61.9,60c125.7,126.7,123.6,126.8,144.9,126.8C836.6,825.6,856.2,779.4,829,752.2z"/>
	</g>
	<g id="likely_x5F_oncogenic" display="none">
		<path display="inline" fill="#666666" d="M832,224v184H600V224H832 M424,224v184H192V224H424 M832,584v184H600V584H832 M424,584
			v184H192V584H424 M860,160H572c-19.9,0-36,16.1-36,36v240c0,19.9,16.1,36,36,36h288c19.9,0,36-16.1,36-36V196
			C896,176.1,879.9,160,860,160L860,160z M452,160H164c-19.9,0-36,16.1-36,36v240c0,19.9,16.1,36,36,36h288c19.9,0,36-16.1,36-36
			V196C488,176.1,471.9,160,452,160L452,160z M860,520H572c-19.9,0-36,16.1-36,36v240c0,19.9,16.1,36,36,36h288
			c19.9,0,36-16.1,36-36V556C896,536.1,879.9,520,860,520L860,520z M452,520H164c-19.9,0-36,16.1-36,36v240c0,19.9,16.1,36,36,36
			h288c19.9,0,36-16.1,36-36V556C488,536.1,471.9,520,452,520L452,520z"/>
	</g>
	<g id="oncogenic_00000132055899795692573470000007750163831654805397_" display="none">
		<path display="inline" fill="#666666" d="M288,224v64h-96v-64H288 M316,160H164c-19.9,0-36,16.1-36,36v120c0,19.9,16.1,36,36,36
			h152c19.9,0,36-16.1,36-36V196C352,176.1,335.9,160,316,160L316,160z M560,464v64h-96v-64H560 M588,400H436c-19.9,0-36,16.1-36,36
			v120c0,19.9,16.1,36,36,36h152c19.9,0,36-16.1,36-36V436C624,416.1,607.9,400,588,400L588,400z M832,224v64h-96v-64H832 M860,160
			H708c-19.9,0-36,16.1-36,36v120c0,19.9,16.1,36,36,36h152c19.9,0,36-16.1,36-36V196C896,176.1,879.9,160,860,160L860,160z
			 M560,224v64h-96v-64H560 M588,160H436c-19.9,0-36,16.1-36,36v120c0,19.9,16.1,36,36,36h152c19.9,0,36-16.1,36-36V196
			C624,176.1,607.9,160,588,160L588,160z M288,464v64h-96v-64H288 M316,400H164c-19.9,0-36,16.1-36,36v120c0,19.9,16.1,36,36,36h152
			c19.9,0,36-16.1,36-36V436C352,416.1,335.9,400,316,400L316,400z M288,704v64h-96v-64H288 M316,640H164c-19.9,0-36,16.1-36,36v120
			c0,19.9,16.1,36,36,36h152c19.9,0,36-16.1,36-36V676C352,656.1,335.9,640,316,640L316,640z M832,464v64h-96v-64H832 M860,400H708
			c-19.9,0-36,16.1-36,36v120c0,19.9,16.1,36,36,36h152c19.9,0,36-16.1,36-36V436C896,416.1,879.9,400,860,400L860,400z M832,704v64
			h-96v-64H832 M860,640H708c-19.9,0-36,16.1-36,36v120c0,19.9,16.1,36,36,36h152c19.9,0,36-16.1,36-36V676
			C896,656.1,879.9,640,860,640L860,640z M560,704v64h-96v-64H560 M588,640H436c-19.9,0-36,16.1-36,36v120c0,19.9,16.1,36,36,36h152
			c19.9,0,36-16.1,36-36V676C624,656.1,607.9,640,588,640L588,640z"/>
	</g>
</g>
<g id="evidence-level" display="none">
	<path fill="#666666" d="M896,808c0,39.8-32.2,72-72,72H200c-39.8,0-72-32.2-72-72V184c0-39.8,32.2-72,72-72h624
		c39.8,0,72,32.2,72,72V808z M636.6,460.6h-164v-97.1h180.5v-78.5H370.9v421.9h101.7V538.9h164V460.6z"/>
	<path fill="#666666" d="M896,808c0,39.8-32.2,72-72,72H200c-39.8,0-72-32.2-72-72V184c0-39.8,32.2-72,72-72h624
		c39.8,0,72,32.2,72,72V808z M628,452.5H468.1v-89h189.5v-78.5H366.4v421.9H657v-78.2H468.1V527.9H628V452.5z"/>
	<path display="inline" fill="#666666" d="M896,808c0,39.8-32.2,72-72,72H200c-39.8,0-72-32.2-72-72V184c0-39.8,32.2-72,72-72h624
		c39.8,0,72,32.2,72,72V808z M485.1,706.9c223.5-1.2,252.1-308.7,97.6-396.5c-54.1-30.7-85.5-25.4-236.4-25.4v421.9H485.1z
		 M574,486.7c0,31.2,1.2,78.1-23.5,110.8c-26.8,35.6-62.3,31.1-102.6,31.1V363.6C494,363.6,574,352.9,574,486.7z"/>
	<path fill="#666666" d="M896,808c0,39.8-32.2,72-72,72H200c-39.8,0-72-32.2-72-72V184c0-39.8,32.2-72,72-72h624
		c39.8,0,72,32.2,72,72V808z M587,564.1c-1.5,45.5-24,69-73.3,69c-67.2,0-75.3-58-75.3-125.5c0-35.9-1.4-88.5,18.5-120.5
		c24.6-39.6,87.9-33.1,111.3-11.6c12.2,11.2,18.6,29.7,19.4,55.3H689C680.2,332.5,611.3,279,512.6,279c-70.8,0-127.1,34.8-156,97.2
		c-39.3,84.7-50.2,336.6,157.2,336.6c96.7,0,170.1-53.7,174.4-148.6H587z"/>
	<path fill="#666666" d="M896,808c0,39.8-32.2,72-72,72H200c-39.8,0-72-32.2-72-72V184c0-39.8,32.2-72,72-72h624
		c39.8,0,72,32.2,72,72V808z M519.8,706.9c91.7-0.7,155.6-33.9,155.6-124.9c0-44.2-22.9-78.4-68.4-90.4
		c40.5-15.2,59.4-48.2,59.4-90.1c0-88.6-77.7-116.5-166.3-116.5H348.6v421.9H519.8z M450.3,363.3c50.1,0,80.7-2.6,99.4,11.8
		c19.4,14.9,21.5,56.6,1.2,73.7c-18.1,15.2-50.5,12.2-100.5,12.2V363.3z M521.6,527.6c35,0.2,52.4,17.9,52.4,53
		c0,58.6-65.6,48.1-123.7,48.1V527.6H521.6z"/>
	<path fill="#666666" d="M896,808c0,39.8-32.2,72-72,72H200c-39.8,0-72-32.2-72-72V184c0-39.8,32.2-72,72-72h624
		c39.8,0,72,32.2,72,72V808z M605.9,706.9h109.2L559.2,285.1h-95.6L308.9,706.9h108.7l24.3-78.8h139.4L605.9,706.9z M511.4,403.3
		l45.5,146.3h-90.7L511.4,403.3z"/>
</g>
<g id="NA" display="none">
	<path display="inline" fill="#666666" d="M373.5,714.4H266.3L107.8,436.1v278.2H0V267.2h107.8L266,545.4V267.2h107.5V714.4z
		 M566.5,248L413.8,733.6h88.1L654.9,248H566.5z M866.1,630.8H718.4l-25.8,83.5H577.4l164-447.2h101.3L1008,714.4H892.2L866.1,630.8
		z M744.2,547.6h96.1l-48.2-155.1L744.2,547.6z"/>
</g>
<g id="rating_2" display="none">
	<g id="ratings_v2" display="inline">
		<path fill="#666666" d="M967.7,394.9l-314.9-45.8L512,63.9L371.2,349.1L56.3,394.9l227.8,222.2l-53.8,313.6L512,782.6l281.7,147.9
			l-53.8-313.6L967.7,394.9z M613.2,662.4c-50.6,91.9-219.2,59.8-218.3-45.3h77.3c1.5,23.6,15.7,39.7,39.3,39.7
			c25.9,0,38.9-19.2,38.9-57.5c0-35.4-15.9-53.2-47.6-53.2c-18,0-31.4,5.8-40.3,17.3L401.3,549l20.4-170.3h194.6v59.9h-132
			l-7.5,66.1c34.1-20,93.4-16.6,124.1,17.2C631.6,555.9,636,620.9,613.2,662.4z"/>
	</g>
	<g id="ratings_v2_copy">
		<g display="inline">
			<path fill="#666666" d="M504.8,581.5V479.1c-6.9,11.1-0.2-0.1-59.9,102.5H504.8z"/>
			<path fill="#666666" d="M967.7,394.9l-314.9-45.8L512,63.9L371.2,349.1L56.3,394.9l227.8,222.2l-53.8,313.6L512,782.6
				l281.7,147.9l-53.8-313.6L967.7,394.9z M615.7,641h-33.8v70.7h-77.1V641H376l-4.6-47.1c133.6-215,133.3-214.1,133.3-215.2h77.1
				v202.9h33.8V641z"/>
		</g>
	</g>
	<g id="ratings_v2_copy_2">
		<path display="inline" fill="#666666" d="M967.7,394.9l-314.9-45.8L512,63.9L371.2,349.1L56.3,394.9l227.8,222.2l-53.8,313.6
			L512,782.6l281.7,147.9l-53.8-313.6L967.7,394.9z M504.7,716.2c-62.4,0-117.6-34-117.6-97.2h77.5c0,49.4,87.4,52.1,87.4-2.5
			c0-52.4-39.8-46.2-84.8-46.2v-57.4c40.7,0,79.6,6.4,79.6-42.3c0-52.2-77.3-45.2-77.3-6.2h-77.1c0-120.2,231.5-124,231.5,4.6
			c0,26.5-15.6,54.6-51.5,71.6C661.8,573,651,716.2,504.7,716.2z"/>
	</g>
	<g id="ratings_v2_copy_3">
		<path display="inline" fill="#666666" d="M967.7,394.9l-314.9-45.8L512,63.9L371.2,349.1L56.3,394.9l227.8,222.2l-53.8,313.6
			L512,782.6l281.7,147.9l-53.8-313.6L967.7,394.9z M629.1,711.7H396.7v-50.3c87.6-92.1,146.6-144.4,146.6-184.1
			c0-26.1-10.7-43.9-36.6-43.9c-26.2,0-39.6,26.1-39.6,52.4h-77.3c0-61.6,48.2-111.8,118.7-111.8c67.6,0,112.3,30.5,112.3,96.5
			c0,62.3-53.1,101.3-122.8,181.8h131V711.7z"/>
	</g>
	<g id="ratings_v2_copy_4">
		<path display="inline" fill="#666666" d="M967.7,394.9l-314.9-45.8L512,63.9L371.2,349.1L56.3,394.9l227.8,222.2l-53.8,313.6
			L512,782.6l281.7,147.9l-53.8-313.6L967.7,394.9z M567.6,711.7h-77.3V465.6l-75.9,22.2v-58.5c152.5-52.7,142.3-50.5,153.2-50.5
			V711.7z"/>
	</g>
</g>
<g id="rating_3" display="none">
	<g id="_x35__star_copy_2" display="inline">
		<polygon fill="#666666" points="981.6,422.1 715,383.3 595.9,141.9 476.8,383.3 210.2,422.1 403.1,610.1 357.5,875.5 595.9,750.2 
			834.3,875.4 788.7,610 		"/>
		<g>
			<g>
				<g>
					<path fill="#FFFFFF" d="M520.5,138.5H37.9l-50,440.3l101.4,25.1h-114c2.3,70.5-0.7,116.2,30.4,174.9
						c117.5,222.3,536,189,536-138.4c0-123.9-54.3-228.5-168.4-267.3h147.2V138.5z M214.2,592.3c15.1-11.4,50.8-11.2,61.6,0.4
						c14.9,16.1,12.5,73.1-0.6,90.6c-4.8,6.4-24,9.6-34.1,1c-10-8.5-9.2-22.9-14.9-80.3c-29.5,0-25.2,0.6-22.8-1.6L214.2,592.3z"/>
					<path fill="#666666" d="M57.9,530.2l37.2-327.7h361.4v106.7H200l-15.9,138.6c104-55.5,293.6-28,293.6,192.7
						c0,296.1-428.4,272.1-436.3,27.5h126.7c9.7,98.5,119.2,105.5,158.1,53.8c29.4-39.1,35.1-130.6-3.5-172.5
						c-36.7-39.7-113-37.1-150.6-5.3l-12.4,11.5L57.9,530.2z"/>
				</g>
			</g>
		</g>
	</g>
	<g id="_x34__star_copy_5_00000127009410980785353410000003688166512527976847_" display="inline">
		<polygon fill="#666666" points="981.6,422.1 715,383.3 595.9,141.9 476.8,383.3 210.2,422.1 403.1,610.1 357.5,875.5 595.9,750.2 
			834.3,875.4 788.7,610 		"/>
		<g>
			<g>
				<g>
					<path fill="#666666" d="M417.5,604.6h73.1v103.2h-73.1v139.5h-128V707.8H25.1l-5.8-80.6l268.8-424.7h129.3V604.6z M185.2,604.6
						h142.6V377C315.7,397.8,328.3,377.3,185.2,604.6z"/>
					<path fill="#FFFFFF" d="M417.5,202.5v402.1h73.1v103.2h-73.1v139.5h-128V707.8H25.1l-5.8-80.6l268.8-424.7H417.5 M185.2,604.6
						h142.6V377C315.7,397.8,328.3,377.3,185.2,604.6 M481.5,138.5H252.9L-46,610.8l11.5,161h260v139.5h256V771.8h73.1V540.6h-73.1
						V138.5z"/>
				</g>
			</g>
		</g>
	</g>
	<g id="_x34__star_copy_5_00000115480543122095990080000000599858291515089834_" display="inline">
		<polygon fill="#666666" points="981.6,422.1 715,383.3 595.9,141.9 476.8,383.3 210.2,422.1 403.1,610.1 357.5,875.5 595.9,750.2 
			834.3,875.4 788.7,610 		"/>
		<g>
			<g>
				<g>
					<path fill="#666666" d="M169,468.2c69.8,0,112.1,5,140.4-24.4c30.8-32,32.2-95.5,0.2-125.3c-44.6-41.6-150.4-23.9-150.4,50.9
						h-128c0-182.7,260.4-220.6,371.6-126.9c79.5,67,88,215.4-39.9,273.5c138.7,49.6,134.6,214.6,45.4,288.3
						C291.8,900.8,23.3,868.7,23.3,670.6h128c0,108.1,191.8,114.5,191.8-5.8c0-107.1-90.2-96.6-174.1-96.6V468.2z"/>
					<path fill="#FFFFFF" d="M248.9,193.1c237.2,0,277.4,248.8,114.1,323c177.2,63.4,139.8,340.8-118.2,340.8
						c-110.3,0-221.5-58.7-221.5-186.2h128c0,108.1,191.8,114.5,191.8-5.8c0-105.9-87.1-96.6-174.1-96.6V468.2
						c69.5,0,112.1,5,140.4-24.4c30.8-32,32.2-95.5,0.2-125.3c-44.7-41.7-150.4-23.8-150.4,50.9h-128
						C31.3,250.6,141.3,193.1,248.9,193.1 M-6.1,261.2c-31.3,57.7-26.6,103.5-26.6,172.2H105v173.2H-40.7v64
						c0,199.7,211.9,291,393.8,233.9C549.5,842.9,584.5,624,473.9,511.8c96.8-114.1,56.9-311.4-121.7-367.3
						C225,104.6,58.8,141.6-6.1,261.2z M223.5,367.6c5.3-7.6,33.7-9.9,42.4-2.3c4.9,6,4.2,27.2-2.5,34.2c-3,3.1-16.5,4.8-40.1,5.1
						C223.3,369.4,223.2,368.5,223.5,367.6L223.5,367.6z M215.3,670.6V632c15.6,0.1,45.1,0.8,57.5,7.3c6.7,3.6,10.2,34.3,0,42.7
						C256.9,695,215.3,690.6,215.3,670.6z"/>
				</g>
			</g>
		</g>
	</g>
	<g id="_x34__star_copy_5_00000036931333498652286890000017454070669247005857_" display="inline">
		<polygon fill="#666666" points="981.6,422.1 715,383.3 595.9,141.9 476.8,383.3 210.2,422.1 403.1,610.1 357.5,875.5 595.9,750.2 
			834.3,875.4 788.7,610 		"/>
		<g>
			<g>
				<g>
					<path fill="#666666" d="M480.8,847.3h-442v-87.7C247.6,537.1,281.3,505.7,311,455.4c31.5-53.6,23.5-106.1-1.1-134
						c-39.2-44.4-155.5-37-155.5,83.9H26c0-218.4,268-260.1,378.9-163.9c62.6,54.3,70.9,151.4,30.3,232.5
						C398.7,546.9,324,617.1,203.6,744.1h277.3V847.3z"/>
					<path fill="#FFFFFF" d="M257.4,192.6c174.5,0,246.6,143.8,177.8,281.3C398.7,546.9,324,617.1,203.6,744.1h277.3v103.2h-442
						v-87.7C247.6,537.1,281.3,505.7,311,455.4c42.3-71.9,18.5-158.9-63.1-158.9c-44.9,0-93.4,30.7-93.4,108.9H26
						C26,259.7,145.1,192.6,257.4,192.6 M257.4,128.6C98,128.6-38,233.4-38,405.3v64h256.4c0-62.1-2.9-88.7,10.7-102.1
						c8.9-8.7,26.6-8.1,32.9-3.2c5.6,6.7,11.1,29.3-6.3,58.9c-23.7,40.4-48,63.7-281,311.4v177h570V680.1H353.4
						c95.9-101.1,185.4-198.8,168.9-339.9C506.4,204.3,393.1,128.6,257.4,128.6L257.4,128.6z"/>
				</g>
			</g>
		</g>
	</g>
	<g id="_x34__star_copy_5" display="inline">
		<polygon fill="#666666" points="981.6,422.1 715,383.3 595.9,141.9 476.8,383.3 210.2,422.1 403.1,610.1 357.5,875.5 595.9,750.2 
			834.3,875.4 788.7,610 		"/>
		<g>
			<g>
				<g>
					<path fill="#666666" d="M349.7,847.3h-128V353.9L68.9,401.3V297.2c279.3-100,261.2-95.7,280.8-95.7V847.3z"/>
					<path fill="#FFFFFF" d="M345.6,201.6c6.5,0,4.2,0,4.2,645.8h-128V353.9L68.9,401.3V297.2C325.7,205.3,331.1,201.6,345.6,201.6
						 M4.9,252.2v236l152.8-47.4v470.5h256V137.6C299,137.5,367,122.1,4.9,252.2z"/>
				</g>
			</g>
		</g>
	</g>
</g>
<g id="rating_4" display="none">
	<g id="_x35__star_copy_3" display="inline">
		<polygon fill="#666666" points="988.2,455 823.1,431.1 749.3,281.6 675.6,431.1 510.5,455 629.9,571.5 601.7,735.8 749.3,658.2 
			897,735.7 868.8,571.4 		"/>
		<g>
			<g>
				<g>
					<path fill="#FFFFFF" d="M520.5,138.5H37.9l-50,440.3l101.4,25.1h-114c2.3,70.5-0.7,116.2,30.4,174.9
						c117.5,222.3,536,189,536-138.4c0-123.9-54.3-228.5-168.4-267.3h147.2V138.5z M214.2,592.3c15.1-11.4,50.8-11.2,61.6,0.4
						c14.9,16.1,12.5,73.1-0.6,90.6c-4.8,6.4-24,9.6-34.1,1c-10-8.5-9.2-22.9-14.9-80.3c-29.5,0-25.2,0.6-22.8-1.6L214.2,592.3z"/>
					<path fill="#666666" d="M57.9,530.2l37.2-327.7h361.4v106.7H200l-15.9,138.6c104-55.5,293.6-28,293.6,192.7
						c0,296.1-428.4,272.1-436.3,27.5h126.7c9.7,98.5,119.2,105.5,158.1,53.8c29.4-39.1,35.1-130.6-3.5-172.5
						c-36.7-39.7-113-37.1-150.6-5.3l-12.4,11.5L57.9,530.2z"/>
				</g>
			</g>
		</g>
	</g>
	<g id="_x34__star_copy_6_00000097460904725783308590000008028075147044671370_">
		<polygon display="inline" fill="#666666" points="988.2,455 823.1,431.1 749.3,281.6 675.6,431.1 510.5,455 629.9,571.5 
			601.7,735.8 749.3,658.2 897,735.7 868.8,571.4 		"/>
		<g display="inline">
			<g>
				<g>
					<path fill="#666666" d="M417.5,604.6h73.1v103.2h-73.1v139.5h-128V707.8H25.1l-5.8-80.6l268.8-424.7h129.3V604.6z M185.2,604.6
						h142.6V377C315.7,397.8,328.3,377.3,185.2,604.6z"/>
					<path fill="#FFFFFF" d="M417.5,202.5v402.1h73.1v103.2h-73.1v139.5h-128V707.8H25.1l-5.8-80.6l268.8-424.7H417.5 M185.2,604.6
						h142.6V377C315.7,397.8,328.3,377.3,185.2,604.6 M481.5,138.5H252.9L-46,610.8l11.5,161h260v139.5h256V771.8h73.1V540.6h-73.1
						V138.5z"/>
				</g>
			</g>
		</g>
	</g>
	<g id="_x34__star_copy_6_00000078032113175244646680000012671028840597989787_">
		<polygon display="inline" fill="#666666" points="988.2,455 823.1,431.1 749.3,281.6 675.6,431.1 510.5,455 629.9,571.5 
			601.7,735.8 749.3,658.2 897,735.7 868.8,571.4 		"/>
		<g display="inline">
			<g>
				<g>
					<path fill="#666666" d="M169,468.2c69.8,0,112.1,5,140.4-24.4c30.8-32,32.2-95.5,0.2-125.3c-44.6-41.6-150.4-23.9-150.4,50.9
						h-128c0-182.7,260.4-220.6,371.6-126.9c79.5,67,88,215.4-39.9,273.5c138.7,49.6,134.6,214.6,45.4,288.3
						C291.8,900.8,23.3,868.7,23.3,670.6h128c0,108.1,191.8,114.5,191.8-5.8c0-107.1-90.2-96.6-174.1-96.6V468.2z"/>
					<path fill="#FFFFFF" d="M248.9,193.1c237.2,0,277.4,248.8,114.1,323c177.2,63.4,139.8,340.8-118.2,340.8
						c-110.3,0-221.5-58.7-221.5-186.2h128c0,108.1,191.8,114.5,191.8-5.8c0-105.9-87.1-96.6-174.1-96.6V468.2
						c69.5,0,112.1,5,140.4-24.4c30.8-32,32.2-95.5,0.2-125.3c-44.7-41.7-150.4-23.8-150.4,50.9h-128
						C31.3,250.6,141.3,193.1,248.9,193.1 M-6.1,261.2c-31.3,57.7-26.6,103.5-26.6,172.2H105v173.2H-40.7v64
						c0,199.7,211.9,291,393.8,233.9C549.5,842.9,584.5,624,473.9,511.8c96.8-114.1,56.9-311.4-121.7-367.3
						C225,104.6,58.8,141.6-6.1,261.2z M223.5,367.6c5.3-7.6,33.7-9.9,42.4-2.3c4.9,6,4.2,27.2-2.5,34.2c-3,3.1-16.5,4.8-40.1,5.1
						C223.3,369.4,223.2,368.5,223.5,367.6L223.5,367.6z M215.3,670.6V632c15.6,0.1,45.1,0.8,57.5,7.3c6.7,3.6,10.2,34.3,0,42.7
						C256.9,695,215.3,690.6,215.3,670.6z"/>
				</g>
			</g>
		</g>
	</g>
	<g id="_x34__star_copy_6_00000018952807829766960820000016728809584742680468_">
		<polygon display="inline" fill="#666666" points="988.2,455 823.1,431.1 749.3,281.6 675.6,431.1 510.5,455 629.9,571.5 
			601.7,735.8 749.3,658.2 897,735.7 868.8,571.4 		"/>
		<g display="inline">
			<g>
				<g>
					<path fill="#666666" d="M480.8,847.3h-442v-87.7C247.6,537.1,281.3,505.7,311,455.4c31.5-53.6,23.5-106.1-1.1-134
						c-39.2-44.4-155.5-37-155.5,83.9H26c0-218.4,268-260.1,378.9-163.9c62.6,54.3,70.9,151.4,30.3,232.5
						C398.7,546.9,324,617.1,203.6,744.1h277.3V847.3z"/>
					<path fill="#FFFFFF" d="M257.4,192.6c174.5,0,246.6,143.8,177.8,281.3C398.7,546.9,324,617.1,203.6,744.1h277.3v103.2h-442
						v-87.7C247.6,537.1,281.3,505.7,311,455.4c42.3-71.9,18.5-158.9-63.1-158.9c-44.9,0-93.4,30.7-93.4,108.9H26
						C26,259.7,145.1,192.6,257.4,192.6 M257.4,128.6C98,128.6-38,233.4-38,405.3v64h256.4c0-62.1-2.9-88.7,10.7-102.1
						c8.9-8.7,26.6-8.1,32.9-3.2c5.6,6.7,11.1,29.3-6.3,58.9c-23.7,40.4-48,63.7-281,311.4v177h570V680.1H353.4
						c95.9-101.1,185.4-198.8,168.9-339.9C506.4,204.3,393.1,128.6,257.4,128.6L257.4,128.6z"/>
				</g>
			</g>
		</g>
	</g>
	<g id="_x34__star_copy_6">
		<polygon display="inline" fill="#666666" points="988.2,455 823.1,431.1 749.3,281.6 675.6,431.1 510.5,455 629.9,571.5 
			601.7,735.8 749.3,658.2 897,735.7 868.8,571.4 		"/>
		<g display="inline">
			<g>
				<g>
					<path fill="#666666" d="M349.7,847.3h-128V353.9L68.9,401.3V297.2c279.3-100,261.2-95.7,280.8-95.7V847.3z"/>
					<path fill="#FFFFFF" d="M345.6,201.6c6.5,0,4.2,0,4.2,645.8h-128V353.9L68.9,401.3V297.2C325.7,205.3,331.1,201.6,345.6,201.6
						 M4.9,252.2v236l152.8-47.4v470.5h256V137.6C299,137.5,367,122.1,4.9,252.2z"/>
				</g>
			</g>
		</g>
	</g>
</g>
<g id="colors" display="none">
	<path display="inline" fill="#F5222D" d="M1139.2-65.8h-38.4v38.4h38.4C1139.2-67.1,1139.1-65.8,1139.2-65.8z"/>
	<path display="inline" fill="#FA541B" d="M1139.2-1.8h-38.4v38.4h38.4C1139.2-3.1,1139.1-1.8,1139.2-1.8z"/>
	<path display="inline" fill="#FA8C17" d="M1139.2,62.2h-38.4v38.4h38.4C1139.2,60.9,1139.1,62.2,1139.2,62.2z"/>
	<path display="inline" fill="#FAAD14" d="M1139.2,126.2h-38.4v38.4h38.4C1139.2,124.9,1139.1,126.2,1139.2,126.2z"/>
	<path display="inline" fill="#FADB12" d="M1139.2,190.2h-38.4v38.4h38.4C1139.2,188.9,1139.1,190.2,1139.2,190.2z"/>
	<path display="inline" fill="#9FD90F" d="M1139.2,254.2h-38.4v38.4h38.4C1139.2,252.9,1139.1,254.2,1139.2,254.2z"/>
	<path display="inline" fill="#52C41A" d="M1139.2,318.2h-38.4v38.4h38.4C1139.2,316.9,1139.1,318.2,1139.2,318.2z"/>
	<path display="inline" fill="#B2D44A" d="M1203.6,254.2h-38.4v38.4h38.4C1203.6,252.9,1203.5,254.2,1203.6,254.2z"/>
	<path display="inline" fill="#FFDB00" d="M1203.6,190.2h-38.4v38.4h38.4C1203.6,188.9,1203.5,190.2,1203.6,190.2z"/>
	<path display="inline" fill="#F9BA45" d="M1203.6,126.2h-38.4v38.4h38.4C1203.6,124.9,1203.5,126.2,1203.6,126.2z"/>
	<path display="inline" fill="#E24759" d="M1203.6-65.8h-38.4v38.4h38.4C1203.6-67.1,1203.5-65.8,1203.6-65.8z"/>
	<path display="inline" fill="#F0673A" d="M1203.6-1.8h-38.4v38.4h38.4C1203.6-3.1,1203.5-1.8,1203.6-1.8z"/>
	<path display="inline" fill="#F68F37" d="M1203.6,62.2h-38.4v38.4h38.4C1203.6,60.9,1203.5,62.2,1203.6,62.2z"/>
	<path display="inline" fill="#14C2C2" d="M1139.2,382.2h-38.4v38.4h38.4C1139.2,380.9,1139.1,382.2,1139.2,382.2z"/>
	<path display="inline" fill="#1790FF" d="M1139.2,446.2h-38.4v38.4h38.4C1139.2,444.9,1139.1,446.2,1139.2,446.2z"/>
	<g display="inline">
		<path fill="#07AFF0" d="M1165.2,446.2v38.4h38.4c0-39.7-0.1-38.4,0-38.4H1165.2z"/>
		<path fill="#1DB8A9" d="M1203.6,382c1.6,0-35.3,0-38.4,0v38.4h38.4V382z"/>
		<path fill="#33B358" d="M1165.2,317.9v38.4h38.4c0-39.7-0.1-38.4,0-38.4H1165.2z"/>
	</g>
	<path display="inline" fill="#2E54EB" d="M1139.2,510.2h-38.4v38.4h38.4C1139.2,508.9,1139.1,510.2,1139.2,510.2z"/>
	<path display="inline" fill="#722ED1" d="M1139.2,574.2h-38.4v38.4h38.4C1139.2,572.9,1139.1,574.2,1139.2,574.2z"/>
	<path display="inline" fill="#EB2F96" d="M1139.2,702.2h-38.4v38.4h38.4C1139.2,700.9,1139.1,702.2,1139.2,702.2z"/>
	<g display="inline">
		<path fill="#7243B5" d="M1203.6,574.2h-38.4v38.4h38.4C1203.6,572.9,1203.5,574.2,1203.6,574.2z"/>
		<path fill="#AC3996" d="M1203.6,638.2h-38.4v38.4h38.4C1203.6,636.9,1203.5,638.2,1203.6,638.2z"/>
		<path fill="#E62F76" d="M1203.6,702.2h-38.4v38.4h38.4C1203.6,700.9,1203.5,702.2,1203.6,702.2z"/>
	</g>
	<path display="inline" fill="#D7DEE5" d="M1139.2,830.2h-38.4v38.4h38.4C1139.2,828.9,1139.1,830.2,1139.2,830.2z"/>
	<path display="inline" fill="#D7DEE5" d="M1139.2,894.2h-38.4v38.4h38.4C1139.2,892.9,1139.1,894.2,1139.2,894.2z"/>
	<path display="inline" fill="#D7DEE5" d="M1139.2,958.2h-38.4v38.4h38.4C1139.2,956.9,1139.1,958.2,1139.2,958.2z"/>
	<path display="inline" fill="#A0D8F5" d="M1203.6,830.2h-38.4v38.4h38.4C1203.6,828.9,1203.5,830.2,1203.6,830.2z"/>
	<path display="inline" fill="#58A0C4" d="M1203.6,894.2h-38.4v38.4h38.4C1203.6,892.9,1203.5,894.2,1203.6,894.2z"/>
	<path display="inline" fill="#3D7B99" d="M1203.6,958.2h-38.4v38.4h38.4C1203.6,956.9,1203.5,958.2,1203.6,958.2z"/>
	
		<text transform="matrix(1 0 0 1 1314.214 600.4568)" display="inline" fill="#404D4F" font-family="'HelveticaNeueLTStd-Roman'" font-size="20px">Assertion</text>
	
		<text transform="matrix(1 0 0 1 1314.214 537.7094)" display="inline" fill="#404D4F" font-family="'HelveticaNeueLTStd-Roman'" font-size="20px">Phenotype</text>
	
		<text transform="matrix(1 0 0 1 1314.214 727.1821)" display="inline" fill="#404D4F" font-family="'HelveticaNeueLTStd-Roman'" font-size="20px">Disease</text>
	
		<text transform="matrix(1 0 0 1 1314.214 857.5349)" display="inline" fill="#404D4F" font-family="'HelveticaNeueLTStd-Roman'" font-size="20px">Curator</text>
	<path display="inline" fill="#D7DEE5" d="M1139.2,766.2h-38.4v38.4h38.4C1139.2,764.9,1139.1,766.2,1139.2,766.2z"/>
	<path display="inline" fill="#44D8EF" d="M1203.6,766.2h-38.4v38.4h38.4C1203.6,764.9,1203.5,766.2,1203.6,766.2z"/>
	
		<text transform="matrix(1 0 0 1 1314.214 793.5349)" display="inline" fill="#404D4F" font-family="'HelveticaNeueLTStd-Roman'" font-size="20px">Comment</text>
	
		<text transform="matrix(1 0 0 1 1314.214 920.8885)" display="inline" fill="#404D4F" font-family="'HelveticaNeueLTStd-Roman'" font-size="20px">Editor</text>
	
		<text transform="matrix(1 0 0 1 1314.214 984.1716)" display="inline" fill="#404D4F" font-family="'HelveticaNeueLTStd-Roman'" font-size="20px">Organization</text>
	<path display="inline" fill="#D7DEE5" d="M1139.2,638.2h-38.4v38.4h38.4C1139.2,636.9,1139.1,638.2,1139.2,638.2z"/>
	
		<text transform="matrix(1 0 0 1 1314.214 665.2391)" display="inline" fill="#404D4F" font-family="'HelveticaNeueLTStd-Roman'" font-size="20px">Intervention (Drug)</text>
	
		<text transform="matrix(1 0 0 1 1314.214 281.7973)" display="inline" fill="#404D4F" font-family="'HelveticaNeueLTStd-Roman'" font-size="20px">Variant, Variant Group</text>
	
		<text transform="matrix(1 0 0 1 1314.0746 344.3826)" display="inline" fill="#404D4F" font-family="'HelveticaNeueLTStd-Roman'" font-size="20px">Molecular Profile</text>
	
		<text transform="matrix(1 0 0 1 1315.7733 470.8745)" display="inline" fill="#404D4F" font-family="'HelveticaNeueLTStd-Roman'" font-size="20px">Gene</text>
	
		<text transform="matrix(1 0 0 1 1315.7733 406.866)" display="inline" fill="#404D4F" font-family="'HelveticaNeueLTStd-Roman'" font-size="20px">Coordinate System</text>
	<g display="inline">
		<text transform="matrix(1 0 0 1 1314.214 215.669)" fill="#404D4F" font-family="'HelveticaNeueLTStd-Roman'" font-size="20px">Event</text>
	</g>
	
		<text transform="matrix(1 0 0 1 1314.214 153.3827)" display="inline" fill="#404D4F" font-family="'HelveticaNeueLTStd-Roman'" font-size="20px">Source</text>
	
		<text transform="matrix(1 0 0 1 1314.214 -37.0593)" display="inline" fill="#404D4F" font-family="'HelveticaNeueLTStd-Roman'" font-size="20px">Flag</text>
	
		<text transform="matrix(1 0 0 1 1314.214 87.488)" display="inline" fill="#404D4F" font-family="'HelveticaNeueLTStd-Roman'" font-size="20px">Evidence</text>
	
		<text transform="matrix(1 0 0 1 1314.214 24.8427)" display="inline" fill="#404D4F" font-family="'HelveticaNeueLTStd-Roman'" font-size="20px">Revision</text>
	
		<text transform="matrix(0 -1 1 0 1127.8593 -80.543)" display="inline" fill="#404D4F" font-family="'HelveticaNeueLTStd-LtCn'" font-size="20px">ANT Desitn Primaries</text>
	
		<text transform="matrix(0 -1 1 0 1191.094 -80.543)" display="inline" fill="#404D4F" font-family="'HelveticaNeueLTStd-LtCn'" font-size="20px">Alternate</text>
	<path display="inline" fill="#2A63B6" d="M1203.6,510.2h-38.4v38.4h38.4C1203.6,508.9,1203.5,510.2,1203.6,510.2z"/>
	<path display="inline" fill="#B2D44A" d="M1278,254.2h-38.4v38.4h38.4C1278,252.9,1277.9,254.2,1278,254.2z"/>
	<path display="inline" fill="#FFDB00" d="M1278,190.2h-38.4v38.4h38.4C1278,188.9,1277.9,190.2,1278,190.2z"/>
	<path display="inline" fill="#F9BA45" d="M1278,126.2h-38.4v38.4h38.4C1278,124.9,1277.9,126.2,1278,126.2z"/>
	<path display="inline" fill="#E24759" d="M1278-65.8h-38.4v38.4h38.4C1278-67.1,1277.9-65.8,1278-65.8z"/>
	
		<text transform="matrix(1 0 0 1 1314.214 -101.0593)" display="inline" fill="#404D4F" font-family="'HelveticaNeueLTStd-Roman'" font-size="20px">Clinical Trial</text>
	<path display="inline" fill="#AC3996" d="M1278-129.8h-38.4v38.4h38.4C1278-131.1,1277.9-129.8,1278-129.8z"/>
	<path display="inline" fill="#F0673A" d="M1278-1.8h-38.4v38.4h38.4C1278-3.1,1277.9-1.8,1278-1.8z"/>
	<path display="inline" fill="#2A63B6" d="M1278,62.2h-38.4v38.4h38.4C1278,60.9,1277.9,62.2,1278,62.2z"/>
	<g display="inline">
		<path fill="#07AFF0" d="M1239.6,446.2v38.4h38.4c0-39.7-0.1-38.4,0-38.4H1239.6z"/>
		<path fill="#F68F37" d="M1278,382c1.6,0-35.3,0-38.4,0v38.4h38.4V382z"/>
		<path fill="#33B358" d="M1239.6,317.9v38.4h38.4c0-39.7-0.1-38.4,0-38.4H1239.6z"/>
	</g>
	<g display="inline">
		<path fill="#7243B5" d="M1278,574.2h-38.4v38.4h38.4C1278,572.9,1277.9,574.2,1278,574.2z"/>
		<path fill="#AC3996" d="M1278,638.2h-38.4v38.4h38.4C1278,636.9,1277.9,638.2,1278,638.2z"/>
		<path fill="#E62F76" d="M1278,702.2h-38.4v38.4h38.4C1278,700.9,1277.9,702.2,1278,702.2z"/>
	</g>
	<path display="inline" fill="#A0D8F5" d="M1278,830.2h-38.4v38.4h38.4C1278,828.9,1277.9,830.2,1278,830.2z"/>
	<path display="inline" fill="#58A0C4" d="M1278,894.2h-38.4v38.4h38.4C1278,892.9,1277.9,894.2,1278,894.2z"/>
	<path display="inline" fill="#3D7B99" d="M1278,958.2h-38.4v38.4h38.4C1278,956.9,1277.9,958.2,1278,958.2z"/>
	<path display="inline" fill="#44D8EF" d="M1278,766.2h-38.4v38.4h38.4C1278,764.9,1277.9,766.2,1278,766.2z"/>
	
		<text transform="matrix(0 -1 1 0 1265.525 -171.5391)" display="inline" fill="#404D4F" font-family="'HelveticaNeueLTStd-LtCn'" font-size="20px">v2</text>
	<path display="inline" fill="#1DB8A9" d="M1278,510.2h-38.4v38.4h38.4C1278,508.9,1277.9,510.2,1278,510.2z"/>
</g>
</svg>
