<?xml version="1.0" encoding="utf-8"?>
<!-- Generator: Adobe Illustrator 25.2.3, SVG Export Plug-In . SVG Version: 6.00 Build 0)  -->
<svg version="1.1" id="icon" xmlns="http://www.w3.org/2000/svg" xmlns:xlink="http://www.w3.org/1999/xlink" x="0px" y="0px"
	 viewBox="0 0 1024 1024" enable-background="new 0 0 1024 1024" xml:space="preserve">
<path fill="#666666" d="M855.4,511.9l77.9-76.3c23.2-22,12.4-61.1-18.1-68.4L809,340.2L839,235.1c8.5-30.2-20-58.7-50.3-50.3
	l-105.1,29.9l-27.1-106.2c-7.2-30-46.7-41-68.3-18.1L512,169l-76.2-78.5c-21.4-22.6-61.1-12.3-68.3,18.1l-27.1,106.2l-105.1-29.9
	c-30.2-8.5-58.7,20.1-50.3,50.3L215,340.2l-106.2,27.1c-30.5,7.3-41.3,46.4-18.1,68.4l77.9,76.3l-77.9,76.3
	c-23.2,22-12.4,61.1,18.1,68.4L215,683.6L185,788.7c-8.5,30.2,20,58.7,50.3,50.3L340.3,809l27.1,106.2c7.5,31.5,46.9,40.7,68.3,18.1
	l76.2-78l76.2,78c21.2,22.9,61,12.7,68.3-18.1L683.7,809l105.1,29.9c30.2,8.5,58.7-20.1,50.3-50.3L809,683.6l106.2-27.1
	c30.5-7.3,41.3-46.4,18.1-68.4L855.4,511.9L855.4,511.9z"/>
</svg>
