<?xml version="1.0" encoding="utf-8"?>
<!-- Generator: Adobe Illustrator 26.5.0, SVG Export Plug-In . SVG Version: 6.00 Build 0)  -->
<svg version="1.1" id="icon" xmlns="http://www.w3.org/2000/svg" xmlns:xlink="http://www.w3.org/1999/xlink" x="0px" y="0px"
	 viewBox="0 0 1024 1024" enable-background="new 0 0 1024 1024" xml:space="preserve">
<path fill="#666666" d="M512,265.9C373.9,265.9,262,376,262,512s111.9,246.1,250,246.1S762,648,762,512S650.1,265.9,512,265.9z
	 M436.3,648.6c-18,18-27.7,31.7-49.6,31.7c-38,0-57.5-46.3-30.4-73.4l19.2-19.1c16.8-16.8,44-16.8,60.8,0.1S453.1,631.8,436.3,648.6
	z M405.8,448.9c-21.6,0-30.3-12.5-49.6-31.8c-16.8-16.8-16.8-44,0.1-60.8c16.8-16.8,44-16.8,60.8,0.1l19.1,19.2
	C463.5,402.7,443.7,448.9,405.8,448.9z M587.7,375.4l19.2-19.1c16.8-16.8,44-16.8,60.8,0.1s16.8,44-0.1,60.8
	c-18,18-27.7,31.7-49.6,31.7C580.1,448.8,560.6,402.5,587.7,375.4z M637.3,680.3c-21.6,0-30.3-12.5-49.6-31.8
	c-16.8-16.8-16.8-44,0.1-60.8c16.8-16.8,44-16.8,60.8,0.1l19.1,19.2C694.9,634.2,675.2,680.3,637.3,680.3z M733.2,333.8
	c-38,0-57.5-46.3-30.4-73.4l65.5-65.4c16.8-16.8,44-16.8,60.8,0s16.8,44,0,60.8C760.5,324.2,756.5,333.8,733.2,333.8z M798.6,841.6
	c-23.4,0-27.5-9.6-95.8-78.1c-16.8-16.8-16.8-44,0-60.8c16.8-16.8,44-16.8,60.8,0l65.4,65.5C856.2,795.4,836.6,841.6,798.6,841.6z
	 M225.4,841.6c-38,0-57.5-46.3-30.4-73.4l65.5-65.4c16.8-16.8,44-16.8,60.8,0c16.8,16.8,16.8,44,0,60.8
	C252.7,832.1,248.7,841.6,225.4,841.6z M290.8,333.8c-23.4,0-27.5-9.6-95.8-78.1c-16.8-16.8-16.8-44,0-60.8
	c16.8-16.8,44-16.8,60.8,0l65.4,65.5C348.3,287.6,328.7,333.8,290.8,333.8z"/>
</svg>
