<?xml version="1.0" encoding="utf-8"?>
<!-- Generator: Adobe Illustrator 25.2.3, SVG Export Plug-In . SVG Version: 6.00 Build 0)  -->
<svg version="1.1" id="icon" xmlns="http://www.w3.org/2000/svg" xmlns:xlink="http://www.w3.org/1999/xlink" x="0px" y="0px"
	 viewBox="0 0 1024 1024" enable-background="new 0 0 1024 1024" xml:space="preserve">
<path fill="#666666" d="M829.5,455.7l37.3,37.3c15.8,15.8,15.8,41.3,0,56.9L540.5,876.4c-15.8,15.8-41.3,15.8-56.9,0L157.2,550.1
	c-15.8-15.8-15.8-41.3,0-56.9l37.3-37.3c16-16,42-15.6,57.6,0.7l192.6,202.2V176.1c0-22.3,18-40.3,40.3-40.3h53.7
	c22.3,0,40.3,18,40.3,40.3v482.6l192.8-202.4C787.5,439.9,813.5,439.6,829.5,455.7z"/>
</svg>
