<?xml version="1.0" encoding="utf-8"?>
<!-- Generator: Adobe Illustrator 27.3.1, SVG Export Plug-In . SVG Version: 6.00 Build 0)  -->
<svg version="1.1" id="icon" xmlns="http://www.w3.org/2000/svg" xmlns:xlink="http://www.w3.org/1999/xlink" x="0px" y="0px"
	 viewBox="0 0 1024 1024" enable-background="new 0 0 1024 1024" xml:space="preserve">
<path fill="#666666" d="M777.6,85.1l-52.4,106.1l-117.2,17l84.8,82.7l-20,116.7l104.8-55.1l104.8,55l-20-116.7l84.8-82.6l-117.2-17
	L777.6,85.1z M194,191.3l-117.2,17l84.8,82.6l-20,116.7l104.8-55l104.8,55.1l-20-116.7l84.8-82.7l-117.2-17L246.4,85.1L194,191.3z
	 M777.6,616.3l-52.4,106.1l-117.2,17l84.8,82.7l-20,116.7l104.8-55.1l104.8,55l-20-116.7l84.8-82.6l-117.2-17L777.6,616.3z
	 M194,722.5l-117.2,17l84.8,82.6l-20,116.7l104.8-55l104.8,55.1l-20-116.7l84.8-82.7l-117.2-17l-52.4-106.1L194,722.5z"/>
</svg>
