<?xml version="1.0" encoding="utf-8"?>
<!-- Generator: Adobe Illustrator 27.3.1, SVG Export Plug-In . SVG Version: 6.00 Build 0)  -->
<svg version="1.1" id="icon" xmlns="http://www.w3.org/2000/svg" xmlns:xlink="http://www.w3.org/1999/xlink" x="0px" y="0px"
	 viewBox="0 0 1024 1024" enable-background="new 0 0 1024 1024" xml:space="preserve">
<path fill="#666666" d="M512,359.7l-49.5,100.3L351.9,476l80.1,78.1L413,664.3l99-52l99,52l-18.9-110.2l80.1-78l-110.7-16.1
	L512,359.7z M777.6,94.1l-49.5,100.3l-110.7,16.1l80.1,78.1l-18.9,110.2l99-52l99,52l-18.9-110.2l80.1-78l-110.7-16.1L777.6,94.1z
	 M196.9,194.3L86.2,210.4l80.1,78l-18.9,110.2l99-52l99,52l-18.9-110.2l80.1-78.1l-110.7-16.1L246.4,94.1L196.9,194.3z M777.6,625.3
	l-49.5,100.3l-110.7,16.1l80.1,78.1l-18.9,110.2l99-52l99,52l-18.9-110.2l80.1-78l-110.7-16.1L777.6,625.3z M196.9,725.5L86.2,741.6
	l80.1,78l-18.9,110.2l99-52l99,52l-18.9-110.2l80.1-78.1l-110.7-16.1l-49.5-100.3L196.9,725.5z"/>
</svg>
