<?xml version="1.0" encoding="utf-8"?>
<!-- Generator: Adobe Illustrator 27.3.1, SVG Export Plug-In . SVG Version: 6.00 Build 0)  -->
<svg version="1.1" id="icon" xmlns="http://www.w3.org/2000/svg" xmlns:xlink="http://www.w3.org/1999/xlink" x="0px" y="0px"
	 viewBox="0 0 1024 1024" enable-background="new 0 0 1024 1024" xml:space="preserve">
<path fill="#666666" d="M512,107l-58.2,117.9l-130.2,18.9l94.2,91.9l-22.3,129.7L512,404.2l116.5,61.2l-22.3-129.7l94.2-91.8
	l-130.2-18.9L512,107z M777.6,476l-58.2,117.9l-130.2,18.9l94.2,91.9l-22.3,129.7l116.5-61.2l116.5,61.2l-22.3-129.7l94.2-91.8
	l-130.2-18.9L777.6,476z M188.2,593.9L58,612.9l94.2,91.8l-22.3,129.7l116.5-61.2l116.5,61.2l-22.3-129.7l94.2-91.9l-130.2-18.9
	L246.4,476L188.2,593.9z"/>
</svg>
