<?xml version="1.0" encoding="utf-8"?>
<!-- Generator: Adobe Illustrator 27.3.1, SVG Export Plug-In . SVG Version: 6.00 Build 0)  -->
<svg version="1.1" id="icon" xmlns="http://www.w3.org/2000/svg" xmlns:xlink="http://www.w3.org/1999/xlink" x="0px" y="0px"
	 viewBox="0 0 1024 1024" enable-background="new 0 0 1024 1024" xml:space="preserve">
<g>
	<path fill="#666666" d="M413.7,460.9c80.3,0,128.4,5.6,160.7-27.8c35.3-36.6,36.9-109.1,0.3-143.3C523.5,242,402.6,262.4,402.6,348
		H256.1c0-209,298-252.5,425.2-145.2c90.9,76.7,100.7,246.4-45.6,313c158.7,56.8,154,245.5,51.9,329.8
		C554.2,955.9,247,919.2,247,692.6h146.5c0,123.8,219.5,131.3,219.5-6.4c0-73.5-40.5-110.3-121.6-110.3h-77.5V460.9z"/>
</g>
</svg>
