<?xml version="1.0" encoding="utf-8"?>
<!-- Generator: Adobe Illustrator 25.2.3, SVG Export Plug-In . SVG Version: 6.00 Build 0)  -->
<svg version="1.1" id="icon" xmlns="http://www.w3.org/2000/svg" xmlns:xlink="http://www.w3.org/1999/xlink" x="0px" y="0px"
	 viewBox="0 0 1024 1024" enable-background="new 0 0 1024 1024" xml:space="preserve">
<path fill="#666666" d="M512.6,167.7c-107.3,0-176.9,44-231.5,122.4c-9.9,14.2-6.8,33.7,7,44.2l58,44c14,10.6,33.8,8.1,44.7-5.6
	c33.7-42.2,58.7-66.5,111.3-66.5c41.4,0,92.5,26.6,92.5,66.7c0,30.3-25,45.9-65.9,68.8c-47.6,26.7-110.7,59.9-110.7,143.1v13.2
	c0,17.8,14.5,32.3,32.3,32.3h97.5c17.8,0,32.3-14.5,32.3-32.3v-7.8c0-57.6,168.5-60,168.5-216C748.6,256.8,626.8,167.7,512.6,167.7z
	 M499.2,670c-51.4,0-93.2,41.8-93.2,93.2c0,51.4,41.8,93.2,93.2,93.2s93.2-41.8,93.2-93.2S550.5,670,499.2,670z"/>
</svg>
