<?xml version="1.0" encoding="utf-8"?>
<!-- Generator: Adobe Illustrator 25.2.3, SVG Export Plug-In . SVG Version: 6.00 Build 0)  -->
<svg version="1.1" id="icon" xmlns="http://www.w3.org/2000/svg" xmlns:xlink="http://www.w3.org/1999/xlink" x="0px" y="0px"
	 viewBox="0 0 1024 1024" enable-background="new 0 0 1024 1024" xml:space="preserve">
<path fill="#666666" d="M623.5,512c0,61.9-49.9,111.9-111.5,111.9S400.5,573.9,400.5,512S450.4,400.1,512,400.1
	S623.5,450.1,623.5,512z M784.5,400.1C722.9,400.1,673,450.1,673,512s49.9,111.9,111.5,111.9S896,573.9,896,512
	S846.1,400.1,784.5,400.1z M239.5,400.1C177.9,400.1,128,450.1,128,512s49.9,111.9,111.5,111.9S351,573.9,351,512
	S301.1,400.1,239.5,400.1z"/>
</svg>
