<svg viewBox="64 64 896 896" focusable="false"><path d="M187.5 772.7c0 17.7-14.3 32-32 32s-32-14.3-32-32c0-134 80.8-235.9 185.9-281.1-160.1-115.8-79.5-371.9 120.3-371.9 66 0 119.4 28.5 155.2 70.8-27.7 1-54.2 6.4-78.9 15.5-22-14.1-48.1-22.2-76.3-22.2-132.4 0-191.3 166-90.6 250-1.7 37.4 4.6 74 18.4 108.1-93.9 29.7-170 114.8-170 230.8zm713 120.6c0 17.7-14.3 32-32 32s-32-14.3-32-32c0-64.8-25.2-125.6-70.9-171.3C613.6 570 352 678 352 893.3c0 17.7-14.3 32-32 32s-32-14.3-32-32c0-134 80.8-235.9 185.9-281.1-160.1-115.8-79.5-371.9 120.3-371.9 197.1 0 281.4 253.6 121.6 371 105.9 46.2 184.7 153.5 184.7 282zM586.3 586.8c5.9-.2 11.9-.3 17.8-.1 73.6-5.1 131.5-66.1 131.5-141 0-78.2-63.2-141.4-141.4-141.4s-141.4 63.2-141.4 141.4c.1 75.5 59 137 133.5 141.1z"/></svg>