<svg viewBox="64 64 896 896" focusable="false"><path fill="#E6E6E6" d="M512 64C264.6 64 64 264.6 64 512s200.6 448 448 448 448-200.6 448-448S759.4 64 512 64z"/><path fill="#333" d="M512 136c207.7 0 376 168.3 376 376S719.7 888 512 888 136 719.7 136 512s168.3-376 376-376m0-72C264.6 64 64 264.6 64 512s200.6 448 448 448 448-200.6 448-448S759.4 64 512 64zm0 320c-70.7 0-128 57.3-128 128s57.3 128 128 128 128-57.3 128-128-57.3-128-128-128zm0 420c-161.4 0-292-130.6-292-292s130.6-292 292-292 292 130.6 292 292-130.6 292-292 292zm0-512c-121.6 0-220 98.4-220 220s98.4 220 220 220 220-98.4 220-220-98.4-220-220-220z"/></svg>