<svg viewBox="64 64 896 896" focusable="false"><path fill="#E6E6E6" d="M164 896c0-192.3 155.6-348 348-348 192.3 0 348 155.6 348 348M732 328V108H292v220c0 121.6 98.4 220 220 220s220-98.4 220-220z"/><path fill="#333" d="M655.8 539.9C723.6 493.9 768 416.2 768 328V151.4h64.3c24 0 43.4-19.4 43.4-43.4s-19.4-43.4-43.4-43.4H191.7c-24 0-43.4 19.4-43.4 43.4s19.4 43.4 43.4 43.4H256V328c0 88.2 44.4 165.8 112.1 211.8C225.9 597.4 128 736 128 896c0 19.9 16.1 36 36 36s36-16.1 36-36c0-182.7 147.1-306.4 303.7-312.1 6.5.2 11.8.2 19.4-.1C685 588 824 723.4 824 896c0 19.9 16.1 36 36 36s36-16.1 36-36c0-166.9-103.1-300.2-240.2-356.1zM523 511.8c-8.1-.2-16.3-.2-24.5.1-92-6-170.5-84.2-170.5-183.9V192h368v136c0 105.3-83 177.5-173 183.8z"/></svg>