<svg viewBox="64 64 896 896" focusable="false"><path fill="#E3F9FD" d="M200 128c-39.8 0-72 32.2-72 72v432c0 39.8 32.2 72 72 72h312v148c0 34.6 44.1 49.1 64.8 21.6L704 704h120c39.8 0 72-32.2 72-72V200c0-39.8-32.2-72-72-72H200z"/><path fill="#44D8EF" d="M824 200c-.1 0-.1 432 0 432H668c-7.9 10.5-73 97.4-84 112V632H200c-.1 0 0 8.4 0-432 0-.1-13.7 0 624 0m-624-72c-39.8 0-72 32.2-72 72v432c0 39.8 32.2 72 72 72h312v148c0 34.6 44.1 49.1 64.8 21.6L704 704h120c39.8 0 72-32.2 72-72V200c0-39.8-32.2-72-72-72H200zm184 288c0 35.3-28.7 64-64 64s-64-28.7-64-64 28.7-64 64-64 64 28.7 64 64zm128-64c-35.3 0-64 28.7-64 64s28.7 64 64 64 64-28.7 64-64-28.7-64-64-64zm192 0c-35.3 0-64 28.7-64 64s28.7 64 64 64 64-28.7 64-64-28.7-64-64-64z"/></svg>