<svg viewBox="64 64 896 896" focusable="false"><circle fill="#FBE3E6" cx="512" cy="512" r="448"/><path fill="#E24759" d="M774.9 553.6c7.4 6.2 4.9 18.2-4.5 20.8L433.6 666c-6.4 1.7-13-2-14.7-8.4L341.2 372c-1.7-6.4 2-13 8.4-14.7C709 259.5 690.9 261 698.4 269c3 3.3 4 8 2.5 12.2-58.6 162.9-61 159.8-51.8 167.5l125.8 104.9zM960 512c0 247.4-200.6 448-448 448S64 759.4 64 512 264.6 64 512 64s448 200.6 448 448zm-72 0c0-207.7-168.3-376-376-376S136 304.3 136 512c0 157.7 96.9 292.6 234.5 348.5L241.6 386.6c-5.2-19.2 6.1-39 25.3-44.2 19.2-5.2 39 6.1 44.2 25.3l140.2 515.5c19.8 3.2 40.1 4.9 60.8 4.9C719.7 888 888 719.7 888 512z"/></svg>