<svg viewBox="64 64 896 896" focusable="false"><path fill="#FDE8E1" d="M512 64C264.6 64 64 264.6 64 512s200.6 448 448 448 448-200.6 448-448S759.4 64 512 64z"/><path fill="#F0673A" d="M512 136c207.7 0 376 168.3 376 376S719.7 888 512 888 136 719.7 136 512s168.3-376 376-376m0-72C264.6 64 64 264.6 64 512s200.6 448 448 448 448-200.6 448-448S759.4 64 512 64zm281.4 341.9c14.1-14.1 14.1-36.9 0-50.9L669 230.6c-14.1-14.1-36.9-14.1-50.9 0L291.7 556.9l-18.7 181c-.4 3.6.9 7.2 3.5 9.7 2.6 2.6 6.1 3.8 9.7 3.5l180.9-18.7 326.3-326.5zm-76.3-25.4-39.6 39.6-73.5-73.5 39.6-39.6 73.5 73.5zM352.2 671.8l8.5-82L553 397.4l73.5 73.5-192.3 192.4-82 8.5z"/></svg>