<?xml version="1.0" encoding="utf-8"?>
<!-- Generator: Adobe Illustrator 26.2.1, SVG Export Plug-In . SVG Version: 6.00 Build 0)  -->
<svg version="1.1" id="icon" xmlns="http://www.w3.org/2000/svg" xmlns:xlink="http://www.w3.org/1999/xlink" x="0px" y="0px"
	 viewBox="0 0 1024 1024" enable-background="new 0 0 1024 1024" xml:space="preserve">
<path fill="#666666" d="M512,136c207.7,0,376,168.3,376,376c0,207.7-168.3,376-376,376c-207.7,0-376-168.3-376-376
	C136,304.3,304.3,136,512,136 M512,64C264.6,64,64,264.6,64,512s200.6,448,448,448s448-200.6,448-448S759.4,64,512,64L512,64z
	 M548,809.5V301.4c0-19.9-16.1-36-36-36c-19.9,0-36,16.1-36,36v508.2c0,19.9,16.1,36,36,36C531.9,845.5,548,829.4,548,809.5z
	 M290.5,664.2v-39c0-19.9-16.1-36-36-36s-36,16.1-36,36v39c0,19.9,16.1,36,36,36S290.5,684.1,290.5,664.2z M419.3,778.4V449.2
	c0-19.9-16.1-36-36-36s-36,16.1-36,36v329.3c0,19.9,16.1,36,36,36S419.3,798.3,419.3,778.4z M678.1,777.9V449.2
	c0-19.9-16.1-36-36-36s-36,16.1-36,36v328.7c0,19.9,16.1,36,36,36S678.1,797.8,678.1,777.9z M808.2,658.8v-31.9
	c0-19.9-16.1-36-36-36s-36,16.1-36,36v31.9c0,19.9,16.1,36,36,36S808.2,678.7,808.2,658.8z"/>
</svg>
