<?xml version="1.0" encoding="utf-8"?>
<!-- Generator: Adobe Illustrator 25.2.3, SVG Export Plug-In . SVG Version: 6.00 Build 0)  -->
<svg version="1.1" id="icon" xmlns="http://www.w3.org/2000/svg" xmlns:xlink="http://www.w3.org/1999/xlink" x="0px" y="0px"
	 viewBox="0 0 1024 1024" enable-background="new 0 0 1024 1024" xml:space="preserve">
<path fill="#666666" d="M512,64C264.6,64,64,264.6,64,512s200.6,448,448,448s448-200.6,448-448S759.4,64,512,64z M887.9,504.8
	l-154.7,55.4l-81-225.9L807,278.8C856.3,341,886.3,419.4,887.9,504.8z M665.4,584.5l-225.9,81l-81-225.9l225.9-81L665.4,584.5z
	 M751.6,222.2L628,266.5l-44.3-123.7C643.9,154.4,702.1,181.1,751.6,222.2z M504.8,136.1l55.4,154.7l-225.9,81L278.8,217
	C341,167.7,419.4,137.7,504.8,136.1z M222.2,272.4L266.5,396l-123.7,44.3C154.4,380.1,181.1,321.9,222.2,272.4z M136.1,519.2
	l154.7-55.4l81,225.9L217,745.2C167.7,683,137.7,604.6,136.1,519.2z M272.4,801.8L396,757.5l44.3,123.7
	C380.1,869.6,321.9,842.9,272.4,801.8z M519.2,887.9l-55.4-154.7l225.9-81L745.2,807C683,856.3,604.6,886.3,519.2,887.9z
	 M801.8,751.6L757.5,628l123.7-44.3C869.6,643.9,842.9,702.1,801.8,751.6z"/>
</svg>
