<?xml version="1.0" encoding="utf-8"?>
<!-- Generator: Adobe Illustrator 25.2.3, SVG Export Plug-In . SVG Version: 6.00 Build 0)  -->
<svg version="1.1" id="icon" xmlns="http://www.w3.org/2000/svg" xmlns:xlink="http://www.w3.org/1999/xlink" x="0px" y="0px"
	 viewBox="0 0 1024 1024" enable-background="new 0 0 1024 1024" xml:space="preserve">
<path fill="#404D4F" d="M195.2,195.2c-175,175-175,458.6,0,633.6s458.6,175,633.6,0s175-458.6,0-633.6S370.2,20.3,195.2,195.2z
	 M246.1,246.1c35.9-35.9,77.8-63.7,124.3-82.6c33.9-13.7,69.3-22.4,105.5-25.8V476H137.7c3.4-36.3,12.1-71.6,25.8-105.5
	C182.4,323.9,210.2,282,246.1,246.1z M370.5,860.5c-46.6-18.9-88.4-46.7-124.3-82.6s-63.7-77.8-82.6-124.3
	c-13.7-33.9-22.4-69.3-25.8-105.5H476v338.3C439.7,882.9,404.4,874.2,370.5,860.5z M777.9,777.9c-35.9,35.9-77.8,63.7-124.3,82.6
	c-33.9,13.7-69.3,22.4-105.5,25.8V548h338.3c-3.4,36.3-12.1,71.6-25.8,105.5C841.6,700.1,813.8,742,777.9,777.9z M886.3,476H548
	V137.7c36.3,3.4,71.6,12.1,105.5,25.8c46.6,18.9,88.4,46.7,124.3,82.6s63.7,77.8,82.6,124.3C874.2,404.4,882.9,439.7,886.3,476z"/>
</svg>
