<?xml version="1.0" encoding="utf-8"?>
<!-- Generator: Adobe Illustrator 25.2.3, SVG Export Plug-In . SVG Version: 6.00 Build 0)  -->
<svg version="1.1" id="icon" xmlns="http://www.w3.org/2000/svg" xmlns:xlink="http://www.w3.org/1999/xlink" x="0px" y="0px"
	 viewBox="0 0 1024 1024" enable-background="new 0 0 1024 1024" xml:space="preserve">
<path fill="#404D4F" d="M353.2,404.1l-158-158c-14.1-14.1-14.1-36.9,0-50.9c14.1-14.1,36.9-14.1,50.9,0l158,158
	c-9.8,6.7-19.1,14.4-27.8,23.1S359.9,394.3,353.2,404.1z M680.6,927.2c55.6-22.5,105.5-55.7,148.2-98.4
	c42.8-42.8,75.9-92.6,98.4-148.2C949,626.9,960,570.2,960,512c0-58.2-11-114.9-32.8-168.6c-22.5-55.6-55.7-105.5-98.4-148.2
	c-36.3-36.3-78-65.8-123.9-87.7C660.5,86.3,613.1,72.7,564,67c-48.6-5.6-97.4-3.4-145.2,6.7c-48.6,10.3-94.8,28.5-137.3,54
	c-17,10.2-22.6,32.4-12.3,49.4c10.2,17,32.4,22.6,49.4,12.3c70.6-42.4,154.8-60.5,237.1-50.9c41.2,4.8,80.9,16.2,118.2,34
	c38.5,18.4,73.5,43.1,104,73.6c71,71,110.1,165.4,110.1,265.9c0,100.4-39.1,194.9-110.1,265.9S612.4,888,512,888
	c-100.4,0-194.9-39.1-265.9-110.1c-30.3-30.3-55-65.1-73.3-103.4c-17.7-37-29.2-76.5-34.1-117.4c-4.9-40.6-3.2-81.4,5.1-121.3
	c8.4-40.6,23.3-79.2,44.3-114.8c10.1-17.1,4.4-39.2-12.7-49.3c-17.1-10.1-39.2-4.4-49.3,12.7c-25.1,42.4-42.8,88.4-52.8,136.8
	c-9.8,47.6-11.8,96.2-6.1,144.4c5.8,48.8,19.5,95.9,40.7,140c21.9,45.6,51.3,87.1,87.4,123.2c42.8,42.8,92.6,75.9,148.2,98.4
	C397.1,949,453.8,960,512,960C570.2,960,626.9,949,680.6,927.2z M647.8,376.2c-66.3-66.3-169-74-243.7-23.1l133.4,133.4
	c14.1,14.1,14.1,36.9,0,50.9c-7,7-16.2,10.5-25.5,10.5c-9.2,0-18.4-3.5-25.5-10.5L353.2,404.1c-50.9,74.7-43.2,177.4,23.1,243.7
	c75,75,196.5,75,271.5,0S722.7,451.2,647.8,376.2z"/>
</svg>
