<?xml version="1.0" encoding="utf-8"?>
<!-- Generator: Adobe Illustrator 25.2.3, SVG Export Plug-In . SVG Version: 6.00 Build 0)  -->
<svg version="1.1" id="icon" xmlns="http://www.w3.org/2000/svg" xmlns:xlink="http://www.w3.org/1999/xlink" x="0px" y="0px"
	 viewBox="0 0 1024 1024" enable-background="new 0 0 1024 1024" xml:space="preserve">
<path fill="#404D4F" d="M512,64C264.6,64,64,264.6,64,512s200.6,448,448,448s448-200.6,448-448S759.4,64,512,64z M246.1,777.9
	c-34.6-34.6-61.7-74.8-80.6-119.5C145.9,612,136,562.8,136,512s9.9-100,29.5-146.3c18.9-44.8,46.1-85,80.6-119.5
	c34.6-34.6,74.8-61.7,119.5-80.6c35.3-14.9,72.3-24.2,110.3-27.8v748.6c-38.1-3.6-75.1-12.9-110.3-27.8
	C320.9,839.5,280.7,812.4,246.1,777.9z"/>
</svg>
