<?xml version="1.0" encoding="utf-8"?>
<!-- Generator: Adobe Illustrator 25.2.0, SVG Export Plug-In . SVG Version: 6.00 Build 0)  -->
<svg version="1.1" id="Layer_1" xmlns="http://www.w3.org/2000/svg" xmlns:xlink="http://www.w3.org/1999/xlink" x="0px" y="0px"
	 viewBox="0 0 1024 1024" enable-background="new 0 0 1024 1024" xml:space="preserve">
<path fill="#E7E0FF" d="M512,0C229.2,0,0,229.2,0,512c0,129.8,0,512,0,512s359.1,0,512,0c282.8,0,512-229.2,512-512S794.8,0,512,0
	L512,0z"/>
<path fill="#8264AB" d="M704,512c0,106-86,192-192,192s-192-86-192-192s86-192,192-192S704,406,704,512z M1024,512
	c0,282.8-229.2,512-512,512c-152.9,0-512,0-512,0s0-382.2,0-512C0,229.2,229.2,0,512,0S1024,229.2,1024,512z M917.5,683.2
	C940.4,629,952,571.4,952,512s-11.6-117-34.5-171.2c-22.2-52.4-53.9-99.4-94.3-139.9c-36.7-36.7-78.8-66.2-125.4-87.9
	C676,195.3,601.1,256,512,256s-164-60.7-185.7-143c-46.6,21.7-88.8,51.2-125.4,87.9c-40.4,40.4-72.2,87.5-94.3,139.9
	C83.6,395,72,452.6,72,512v440h248.2c4.2-102.3,88.5-184,191.8-184c89.1,0,164,60.7,185.7,143c46.6-21.7,88.8-51.2,125.4-87.9
	C863.6,782.7,895.3,735.6,917.5,683.2z"/>
</svg>
