<?xml version="1.0" encoding="utf-8"?>
<!-- Generator: Adobe Illustrator 25.2.0, SVG Export Plug-In . SVG Version: 6.00 Build 0)  -->
<svg version="1.1" id="Layer_1" xmlns="http://www.w3.org/2000/svg" xmlns:xlink="http://www.w3.org/1999/xlink" x="0px" y="0px"
	 viewBox="0 0 1024 1024" enable-background="new 0 0 1024 1024" xml:space="preserve">
<circle fill="#FFD9C0" cx="512" cy="512" r="512"/>
<g>
	<path fill="#F68F37" d="M704,512c0,106-86,192-192,192s-192-86-192-192s86-192,192-192S704,406,704,512z M1024,512
		c0,282.8-229.2,512-512,512S0,794.8,0,512S229.2,0,512,0S1024,229.2,1024,512z M917.5,683.2C940.4,629,952,571.4,952,512
		s-11.6-117-34.5-171.2c-22.2-52.4-53.9-99.4-94.3-139.9c-36.7-36.7-78.8-66.2-125.5-87.9C676,195.3,601.1,256,512,256
		s-164-60.7-185.7-143c-46.6,21.7-88.8,51.2-125.5,87.9c-40.4,40.4-72.2,87.5-94.3,139.9C83.6,395,72,452.6,72,512
		s11.6,117,34.5,171.2c22.2,52.4,53.9,99.4,94.3,139.9c36.7,36.7,78.8,66.2,125.5,87.9C348,828.7,422.9,768,512,768
		s164,60.7,185.7,143c46.6-21.7,88.8-51.2,125.5-87.9C863.6,782.7,895.3,735.6,917.5,683.2z"/>
</g>
</svg>
