<?xml version="1.0" encoding="utf-8"?>
<!-- Generator: Adobe Illustrator 25.2.0, SVG Export Plug-In . SVG Version: 6.00 Build 0)  -->
<svg version="1.1" id="Layer_1" xmlns="http://www.w3.org/2000/svg" xmlns:xlink="http://www.w3.org/1999/xlink" x="0px" y="0px"
	 viewBox="0 0 1024 1024" enable-background="new 0 0 1024 1024" xml:space="preserve">
<circle fill="#FFD9C0" cx="512" cy="512" r="512"/>
<path fill="#F68F37" d="M512,72c59.4,0,117,11.6,171.2,34.5c52.4,22.2,99.4,53.9,139.9,94.3c40.4,40.4,72.2,87.5,94.3,139.9
	C940.4,395,952,452.6,952,512s-11.6,117-34.5,171.2c-22.2,52.4-53.9,99.4-94.3,139.9c-40.4,40.4-87.5,72.2-139.9,94.3
	C629,940.4,571.4,952,512,952s-117-11.6-171.2-34.5c-52.4-22.2-99.4-53.9-139.9-94.3c-40.4-40.4-72.2-87.5-94.3-139.9
	C83.6,629,72,571.4,72,512s11.6-117,34.5-171.2c22.2-52.4,53.9-99.4,94.3-139.9c40.4-40.4,87.5-72.2,139.9-94.3
	C395,83.6,452.6,72,512,72 M512,0C229.2,0,0,229.2,0,512s229.2,512,512,512s512-229.2,512-512S794.8,0,512,0L512,0z M512,320
	c-106,0-192,86-192,192s86,192,192,192s192-86,192-192S618,320,512,320z"/>
</svg>
