<?xml version="1.0" encoding="utf-8"?>
<!-- Generator: Adobe Illustrator 25.2.0, SVG Export Plug-In . SVG Version: 6.00 Build 0)  -->
<svg version="1.1" id="Layer_1" xmlns="http://www.w3.org/2000/svg" xmlns:xlink="http://www.w3.org/1999/xlink" x="0px" y="0px"
	 viewBox="0 0 1024 1024" enable-background="new 0 0 1024 1024" xml:space="preserve">
<g>
	<circle fill="#BBBEDC" cx="512" cy="512" r="512"/>
</g>
<path fill="#616EB2" d="M512,0C229.2,0,0,229.2,0,512s229.2,512,512,512s512-229.2,512-512S794.8,0,512,0z M823.1,823.1
	c-40.4,40.4-87.5,72.2-139.9,94.3C629,940.4,571.4,952,512,952c-59.4,0-117-11.6-171.2-34.5c-52.4-22.2-99.4-53.9-139.9-94.3
	c-40.4-40.4-72.2-87.5-94.3-139.9C83.6,629,72,571.4,72,512s11.6-117,34.5-171.2c22.2-52.4,53.9-99.4,94.3-139.9
	c40.4-40.4,87.5-72.2,139.9-94.3c43.2-18.3,88.5-29.3,135.2-33.1v185.1c11.8-1.7,23.8-2.5,36-2.5s24.2,0.9,36,2.5V73.4
	c46.7,3.8,92.1,14.8,135.2,33.1c52.4,22.2,99.4,53.9,139.9,94.3c40.4,40.4,72.2,87.5,94.3,139.9C940.4,395,952,452.6,952,512
	s-11.6,117-34.5,171.2C895.3,735.6,863.6,782.7,823.1,823.1z M768,512c0,141.4-114.6,256-256,256S256,653.4,256,512
	c0-129.2,95.7-236,220-253.5V412c0,19.9,16.1,36,36,36c19.9,0,36-16.1,36-36V258.5C672.3,276,768,382.8,768,512z"/>
</svg>
