<?xml version="1.0" encoding="utf-8"?>
<!-- Generator: Adobe Illustrator 25.2.0, SVG Export Plug-In . SVG Version: 6.00 Build 0)  -->
<svg version="1.1" id="Layer_1" xmlns="http://www.w3.org/2000/svg" xmlns:xlink="http://www.w3.org/1999/xlink" x="0px" y="0px"
	 viewBox="0 0 1024 1024" enable-background="new 0 0 1024 1024" xml:space="preserve">
<g>
	<path fill="#B1D29A" d="M512,0v1024c93.3,0,180.7-24.9,256-68.5v-887C692.7,24.9,605.3,0,512,0z"/>
	<path fill="#33B358" d="M1024,512c0-189.5-103-355-256-443.5v887C921,867,1024,701.5,1024,512z"/>
</g>
<g>
	<path fill="#B1D29A" d="M0,512c0,189.5,103,355,256,443.5v-887C103,157,0,322.5,0,512z"/>
	<path fill="#33B358" d="M512,0c-93.3,0-180.7,24.9-256,68.5v887c75.3,43.6,162.7,68.5,256,68.5V0z"/>
</g>
</svg>
