<svg viewBox="64 64 896 896" focusable="false"><path d="M512 64C264.6 64 64 264.6 64 512s200.6 448 448 448 448-200.6 448-448S759.4 64 512 64zm375.9 440.8-154.7 55.4-81-225.9L807 278.8c49.3 62.2 79.3 140.6 80.9 226zm-222.5 79.7-225.9 81-81-225.9 225.9-81 81 225.9zm86.2-362.3L628 266.5l-44.3-123.7c60.2 11.6 118.4 38.3 167.9 79.4zm-246.8-86.1 55.4 154.7-225.9 81L278.8 217c62.2-49.3 140.6-79.3 226-80.9zM222.2 272.4 266.5 396l-123.7 44.3c11.6-60.2 38.3-118.4 79.4-167.9zm-86.1 246.8 154.7-55.4 81 225.9L217 745.2c-49.3-62.2-79.3-140.6-80.9-226zm136.3 282.6L396 757.5l44.3 123.7c-60.2-11.6-118.4-38.3-167.9-79.4zm246.8 86.1-55.4-154.7 225.9-81L745.2 807c-62.2 49.3-140.6 79.3-226 80.9zm282.6-136.3L757.5 628l123.7-44.3c-11.6 60.2-38.3 118.4-79.4 167.9z"/></svg>