<?xml version="1.0" encoding="utf-8"?>
<!-- Generator: Adobe Illustrator 25.2.3, SVG Export Plug-In . SVG Version: 6.00 Build 0)  -->
<svg version="1.1" id="icon" xmlns="http://www.w3.org/2000/svg" xmlns:xlink="http://www.w3.org/1999/xlink" x="0px" y="0px"
	 viewBox="0 0 1024 1024" enable-background="new 0 0 1024 1024" xml:space="preserve">
<path fill="#666666" d="M868.6,786.3H155.4c-15.1,0-27.4,12.3-27.4,27.4v54.9c0,15.1,12.3,27.4,27.4,27.4h713.1
	c15.1,0,27.4-12.3,27.4-27.4v-54.9C896,798.6,883.7,786.3,868.6,786.3z M868.6,566.9H155.4c-15.1,0-27.4,12.3-27.4,27.4v54.9
	c0,15.1,12.3,27.4,27.4,27.4h713.1c15.1,0,27.4-12.3,27.4-27.4v-54.9C896,579.1,883.7,566.9,868.6,566.9z M868.6,347.4H155.4
	c-15.1,0-27.4,12.3-27.4,27.4v54.9c0,15.1,12.3,27.4,27.4,27.4h713.1c15.1,0,27.4-12.3,27.4-27.4v-54.9
	C896,359.7,883.7,347.4,868.6,347.4z M868.6,128H155.4c-15.1,0-27.4,12.3-27.4,27.4v54.9c0,15.1,12.3,27.4,27.4,27.4h713.1
	c15.1,0,27.4-12.3,27.4-27.4v-54.9C896,140.3,883.7,128,868.6,128z"/>
</svg>
