<?xml version="1.0" encoding="utf-8"?>
<!-- Generator: Adobe Illustrator 25.2.3, SVG Export Plug-In . SVG Version: 6.00 Build 0)  -->
<svg version="1.1" id="icon" xmlns="http://www.w3.org/2000/svg" xmlns:xlink="http://www.w3.org/1999/xlink" x="0px" y="0px"
	 viewBox="0 0 1024 1024" enable-background="new 0 0 1024 1024" xml:space="preserve">
<path fill="#666666" d="M194.5,568.3L157.2,531c-15.8-15.8-15.8-41.3,0-56.9l326.3-326.5c15.8-15.8,41.3-15.8,56.9,0l326.3,326.3
	c15.8,15.8,15.8,41.3,0,56.9l-37.3,37.3c-16,16-42,15.6-57.6-0.7L579.3,365.3v482.6c0,22.3-18,40.3-40.3,40.3h-53.7
	c-22.3,0-40.3-18-40.3-40.3V365.3L252.1,567.6C236.5,584.1,210.5,584.4,194.5,568.3z"/>
</svg>
