<?xml version="1.0" encoding="utf-8"?>
<!-- Generator: Adobe Illustrator 26.2.1, SVG Export Plug-In . SVG Version: 6.00 Build 0)  -->
<svg version="1.1" id="icon" xmlns="http://www.w3.org/2000/svg" xmlns:xlink="http://www.w3.org/1999/xlink" x="0px" y="0px"
	 viewBox="0 0 1024 1024" enable-background="new 0 0 1024 1024" xml:space="preserve">
<path fill="#666666" d="M866,771c-35.3,60.7-113.1,81.3-173.8,46c-60.7-35.3-81.3-113.1-46-173.8s113.1-81.3,173.8-46
	S901.3,710.3,866,771z M270.8,642.6c-35.3,0-64,28.7-64,64s28.7,64,64,64s64-28.7,64-64S306.1,642.6,270.8,642.6 M270.8,578.6
	c70.7,0,128,57.3,128,128c0,70.7-57.3,128-128,128c-70.7,0-128-57.3-128-128C142.8,635.9,200.1,578.6,270.8,578.6L270.8,578.6z
	 M639.7,289.3c0,70-56.7,126.7-126.7,126.7s-126.7-56.7-126.7-126.7S443,162.6,513,162.6S639.7,219.3,639.7,289.3z"/>
</svg>
