<?xml version="1.0" encoding="utf-8"?>
<!-- Generator: Adobe Illustrator 25.2.3, SVG Export Plug-In . SVG Version: 6.00 Build 0)  -->
<svg version="1.1" id="icon" xmlns="http://www.w3.org/2000/svg" xmlns:xlink="http://www.w3.org/1999/xlink" x="0px" y="0px"
	 viewBox="0 0 1024 1024" enable-background="new 0 0 1024 1024" xml:space="preserve">
<path fill="#666666" d="M336.1,400.5c61.9,0,111.9,49.9,111.9,111.5s-50.1,111.5-111.9,111.5S224.2,573.6,224.2,512
	S274.2,400.5,336.1,400.5z M224.2,239.5c0,61.6,50.1,111.5,111.9,111.5S448,301.1,448,239.5S397.9,128,336.1,128
	S224.2,177.9,224.2,239.5z M224.2,784.5c0,61.6,50.1,111.5,111.9,111.5S448,846.1,448,784.5S397.9,673,336.1,673
	S224.2,722.9,224.2,784.5z M687.9,400.5c61.9,0,111.9,49.9,111.9,111.5s-50.1,111.5-111.9,111.5S576,573.6,576,512
	S626.1,400.5,687.9,400.5z M576,239.5c0,61.6,50.1,111.5,111.9,111.5s111.9-49.9,111.9-111.5S749.8,128,687.9,128
	S576,177.9,576,239.5z M576,784.5c0,61.6,50.1,111.5,111.9,111.5s111.9-49.9,111.9-111.5S749.8,673,687.9,673S576,722.9,576,784.5z"
	/>
</svg>
