<?xml version="1.0" encoding="utf-8"?>
<!-- Generator: Adobe Illustrator 25.2.3, SVG Export Plug-In . SVG Version: 6.00 Build 0)  -->
<svg version="1.1" id="icon" xmlns="http://www.w3.org/2000/svg" xmlns:xlink="http://www.w3.org/1999/xlink" x="0px" y="0px"
	 viewBox="0 0 1024 1024" enable-background="new 0 0 1024 1024" xml:space="preserve">
<path fill="#666666" d="M911.9,811.8L751.8,651.7c-7.2-7.2-17-11.2-27.3-11.2h-26.2c44.3-56.7,70.7-128,70.7-205.6
	c0-184.5-149.5-334-334-334s-334,149.5-334,334s149.5,334,334,334c77.6,0,148.9-26.3,205.6-70.7v26.2c0,10.3,4,20.1,11.2,27.3
	l160.1,160.1c15.1,15.1,39.5,15.1,54.4,0l45.4-45.4C926.9,851.3,926.9,826.9,911.9,811.8z M434.9,690C294,690,179.8,576,179.8,434.9
	c0-140.9,114-255.1,255.1-255.1c140.9,0,255.1,114,255.1,255.1C690.1,575.8,576.1,690,434.9,690z"/>
</svg>
