<?xml version="1.0" encoding="utf-8"?>
<!-- Generator: Adobe Illustrator 26.5.0, SVG Export Plug-In . SVG Version: 6.00 Build 0)  -->
<svg version="1.1" id="icon" xmlns="http://www.w3.org/2000/svg" xmlns:xlink="http://www.w3.org/1999/xlink" x="0px" y="0px"
	 viewBox="0 0 1024 1024" enable-background="new 0 0 1024 1024" xml:space="preserve">
<path fill="#666666" d="M433.9,664.9c37.4,0,56.2,45.2,29.7,71.7L313,887.2c-16.4,16.4-43,16.4-59.4,0L103,736.6
	c-26.5-26.5-7.7-71.7,29.7-71.7h80.6V150c0-15.7,12.7-28.3,28.3-28.3l83.3,0c15.7,0,28.3,12.7,28.3,28.3v514.9L433.9,664.9
	L433.9,664.9z M891.3,664.9h-80.6V150c0-15.7-12.7-28.3-28.3-28.3l-83.3,0c-15.7,0-28.3,12.7-28.3,28.3v514.9h-80.6
	c-37.4,0-56.2,45.2-29.7,71.7L711,887.2c16.4,16.4,43,16.4,59.4,0L921,736.6C947.4,710.1,928.7,664.9,891.3,664.9L891.3,664.9z"/>
</svg>
