<?xml version="1.0" encoding="utf-8"?>
<!-- Generator: Adobe Illustrator 25.2.3, SVG Export Plug-In . SVG Version: 6.00 Build 0)  -->
<svg version="1.1" id="icon" xmlns="http://www.w3.org/2000/svg" xmlns:xlink="http://www.w3.org/1999/xlink" x="0px" y="0px"
	 viewBox="0 0 1024 1024" enable-background="new 0 0 1024 1024" xml:space="preserve">
<path fill="#666666" d="M929.9,619.7l-77-44.4c7.8-41.9,7.8-84.9,0-126.8l77-44.4c8.9-5.1,12.8-15.5,9.9-25.3
	c-20.1-64.3-54.2-122.5-98.8-170.9c-6.9-7.4-18.1-9.2-26.7-4.2l-77,44.4c-32.3-27.8-69.5-49.3-109.8-63.4V96c0-10.1-7-19-17-21.1
	c-66.3-14.8-134.2-14.1-197.3,0c-9.9,2.2-17,11-17,21.1v88.9c-40.1,14.3-77.3,35.8-109.8,63.4l-76.8-44.4
	c-8.9-5.1-19.9-3.4-26.7,4.2c-44.6,48.2-78.8,106.4-98.8,170.9c-3.1,9.8,1.1,20.2,9.9,25.3l77,44.4c-7.8,41.9-7.8,84.9,0,126.8
	l-77,44.4c-8.9,5.1-12.8,15.5-9.9,25.3c20.1,64.3,54.2,122.5,98.8,170.9c6.9,7.4,18.1,9.2,26.7,4.2l77-44.4
	c32.3,27.8,69.5,49.3,109.8,63.4V928c0,10.1,7,19,17,21.1c66.3,14.8,134.2,14.1,197.3,0c9.9-2.2,17-11,17-21.1v-88.9
	c40.1-14.3,77.3-35.8,109.8-63.4l77,44.4c8.9,5.1,19.9,3.4,26.7-4.2c44.6-48.2,78.8-106.4,98.8-170.9
	C942.7,635.2,938.8,624.7,929.9,619.7z M511.9,656.3c-79.7,0-144.5-64.9-144.5-144.5s64.9-144.5,144.5-144.5s144.5,64.9,144.5,144.5
	S591.6,656.3,511.9,656.3z"/>
</svg>
