<?xml version="1.0" encoding="utf-8"?>
<!-- Generator: Adobe Illustrator 25.2.3, SVG Export Plug-In . SVG Version: 6.00 Build 0)  -->
<svg version="1.1" id="icon" xmlns="http://www.w3.org/2000/svg" xmlns:xlink="http://www.w3.org/1999/xlink" x="0px" y="0px"
	 viewBox="0 0 1024 1024" enable-background="new 0 0 1024 1024" xml:space="preserve">
<path fill="#666666" d="M572,176h288c19.9,0,36,16.1,36,36v240c0,19.9-16.1,36-36,36H572c-19.9,0-36-16.1-36-36V212
	C536,192.1,552.1,176,572,176z M452,176H164c-19.9,0-36,16.1-36,36v240c0,19.9,16.1,36,36,36h288c19.9,0,36-16.1,36-36V212
	C488,192.1,471.9,176,452,176z M128,572v240c0,19.9,16.1,36,36,36h288c19.9,0,36-16.1,36-36V572c0-19.9-16.1-36-36-36H164
	C144.1,536,128,552.1,128,572z M572,848h288c19.9,0,36-16.1,36-36V572c0-19.9-16.1-36-36-36H572c-19.9,0-36,16.1-36,36v240
	C536,831.9,552.1,848,572,848z"/>
</svg>
