<?xml version="1.0" encoding="utf-8"?>
<!-- Generator: Adobe Illustrator 26.5.0, SVG Export Plug-In . SVG Version: 6.00 Build 0)  -->
<svg version="1.1" id="icon" xmlns="http://www.w3.org/2000/svg" xmlns:xlink="http://www.w3.org/1999/xlink" x="0px" y="0px"
	 viewBox="0 0 1024 1024" enable-background="new 0 0 1024 1024" xml:space="preserve">
<path fill="#666666" d="M832,240v184H600V240H832 M424,240v184H192V240H424 M832,600v184H600V600H832 M424,600v184H192V600H424
	 M860,176H572c-19.9,0-36,16.1-36,36v240c0,19.9,16.1,36,36,36h288c19.9,0,36-16.1,36-36V212C896,192.1,879.9,176,860,176L860,176z
	 M452,176H164c-19.9,0-36,16.1-36,36v240c0,19.9,16.1,36,36,36h288c19.9,0,36-16.1,36-36V212C488,192.1,471.9,176,452,176L452,176z
	 M860,536H572c-19.9,0-36,16.1-36,36v240c0,19.9,16.1,36,36,36h288c19.9,0,36-16.1,36-36V572C896,552.1,879.9,536,860,536L860,536z
	 M452,536H164c-19.9,0-36,16.1-36,36v240c0,19.9,16.1,36,36,36h288c19.9,0,36-16.1,36-36V572C488,552.1,471.9,536,452,536L452,536z"
	/>
</svg>
