<?xml version="1.0" encoding="utf-8"?>
<!-- Generator: Adobe Illustrator 25.2.3, SVG Export Plug-In . SVG Version: 6.00 Build 0)  -->
<svg version="1.1" id="icon" xmlns="http://www.w3.org/2000/svg" xmlns:xlink="http://www.w3.org/1999/xlink" x="0px" y="0px"
	 viewBox="0 0 1024 1024" enable-background="new 0 0 1024 1024" xml:space="preserve">
<path fill="#666666" d="M512,64C264.5,64,64,264.5,64,512s200.5,448,448,448s448-200.5,448-448S759.5,64,512,64z M512,873.3
	c-199.6,0-361.3-161.7-361.3-361.3S312.4,150.7,512,150.7S873.3,312.4,873.3,512S711.6,873.3,512,873.3z M454.2,302.5V512h-121
	c-19.3,0-28.9,23.3-15.4,37l178.8,178.8c8.5,8.5,22.2,8.5,30.7,0L706.2,549c13.7-13.7,4-37-15.4-37h-121V302.5
	c0-11.9-9.8-21.7-21.7-21.7h-72.3C463.9,280.8,454.2,290.5,454.2,302.5z"/>
</svg>
