<?xml version="1.0" encoding="UTF-8"?>
<svg id="Layer_2" xmlns="http://www.w3.org/2000/svg" version="1.1" viewBox="0 0 1024 1024">
  <!-- Generator: Adobe Illustrator 29.3.1, SVG Export Plug-In . SVG Version: 2.1.0 Build 151)  -->
  <path d="M512,400.5c61.9,0,111.9,49.9,111.9,111.5s-50.1,111.5-111.9,111.5-111.9-49.9-111.9-111.5,50.1-111.5,111.9-111.5ZM400.1,239.5c0,61.6,50.1,111.5,111.9,111.5s111.9-49.9,111.9-111.5-50.1-111.5-111.9-111.5-111.9,49.9-111.9,111.5ZM400.1,784.5c0,61.6,50.1,111.5,111.9,111.5s111.9-49.9,111.9-111.5-50.1-111.5-111.9-111.5-111.9,49.9-111.9,111.5ZM784.5,400.1c-61.6,0-111.5,50.1-111.5,111.9s49.9,111.9,111.5,111.9,111.5-50.1,111.5-111.9-49.9-111.9-111.5-111.9ZM239.5,400.1c-61.6,0-111.5,50.1-111.5,111.9s49.9,111.9,111.5,111.9,111.5-50.1,111.5-111.9-49.9-111.9-111.5-111.9Z" fill="#666"/>
</svg>