<?xml version="1.0" encoding="utf-8"?>
<!-- Generator: Adobe Illustrator 25.2.3, SVG Export Plug-In . SVG Version: 6.00 Build 0)  -->
<svg version="1.1" id="icon" xmlns="http://www.w3.org/2000/svg" xmlns:xlink="http://www.w3.org/1999/xlink" x="0px" y="0px"
	 viewBox="0 0 1024 1024" enable-background="new 0 0 1024 1024" xml:space="preserve">
<path fill="#666666" d="M512,64C264.5,64,64,264.5,64,512s200.5,448,448,448s448-200.5,448-448S759.5,64,512,64z M512,873.3
	c-199.6,0-361.3-161.7-361.3-361.3S312.4,150.7,512,150.7S873.3,312.4,873.3,512S711.6,873.3,512,873.3z M695.9,399.6L583.5,512
	l112.4,112.4c8.5,8.5,8.5,22.2,0,30.7l-40.8,40.8c-8.5,8.5-22.2,8.5-30.7,0L512,583.5L399.6,695.9c-8.5,8.5-22.2,8.5-30.7,0
	l-40.8-40.8c-8.5-8.5-8.5-22.2,0-30.7L440.5,512L328.1,399.6c-8.5-8.5-8.5-22.2,0-30.7l40.8-40.8c8.5-8.5,22.2-8.5,30.7,0L512,440.5
	l112.4-112.4c8.5-8.5,22.2-8.5,30.7,0l40.8,40.8C704.4,377.4,704.4,391.1,695.9,399.6L695.9,399.6z"/>
</svg>
