<?xml version="1.0" encoding="utf-8"?>
<!-- Generator: Adobe Illustrator 26.5.0, SVG Export Plug-In . SVG Version: 6.00 Build 0)  -->
<svg version="1.1" id="icon" xmlns="http://www.w3.org/2000/svg" xmlns:xlink="http://www.w3.org/1999/xlink" x="0px" y="0px"
	 viewBox="0 0 1024 1024" enable-background="new 0 0 1024 1024" xml:space="preserve">
<path fill="#666666" d="M288,240v64h-96v-64H288 M316,176H164c-19.9,0-36,16.1-36,36v120c0,19.9,16.1,36,36,36h152
	c19.9,0,36-16.1,36-36V212C352,192.1,335.9,176,316,176L316,176z M560,480v64h-96v-64H560 M588,416H436c-19.9,0-36,16.1-36,36v120
	c0,19.9,16.1,36,36,36h152c19.9,0,36-16.1,36-36V452C624,432.1,607.9,416,588,416L588,416z M832,240v64h-96v-64H832 M860,176H708
	c-19.9,0-36,16.1-36,36v120c0,19.9,16.1,36,36,36h152c19.9,0,36-16.1,36-36V212C896,192.1,879.9,176,860,176L860,176z M560,240v64
	h-96v-64H560 M588,176H436c-19.9,0-36,16.1-36,36v120c0,19.9,16.1,36,36,36h152c19.9,0,36-16.1,36-36V212
	C624,192.1,607.9,176,588,176L588,176z M288,480v64h-96v-64H288 M316,416H164c-19.9,0-36,16.1-36,36v120c0,19.9,16.1,36,36,36h152
	c19.9,0,36-16.1,36-36V452C352,432.1,335.9,416,316,416L316,416z M288,720v64h-96v-64H288 M316,656H164c-19.9,0-36,16.1-36,36v120
	c0,19.9,16.1,36,36,36h152c19.9,0,36-16.1,36-36V692C352,672.1,335.9,656,316,656L316,656z M832,480v64h-96v-64H832 M860,416H708
	c-19.9,0-36,16.1-36,36v120c0,19.9,16.1,36,36,36h152c19.9,0,36-16.1,36-36V452C896,432.1,879.9,416,860,416L860,416z M832,720v64
	h-96v-64H832 M860,656H708c-19.9,0-36,16.1-36,36v120c0,19.9,16.1,36,36,36h152c19.9,0,36-16.1,36-36V692
	C896,672.1,879.9,656,860,656L860,656z M560,720v64h-96v-64H560 M588,656H436c-19.9,0-36,16.1-36,36v120c0,19.9,16.1,36,36,36h152
	c19.9,0,36-16.1,36-36V692C624,672.1,607.9,656,588,656L588,656z"/>
</svg>
