<?xml version="1.0" encoding="utf-8"?>
<!-- Generator: Adobe Illustrator 25.2.3, SVG Export Plug-In . SVG Version: 6.00 Build 0)  -->
<svg version="1.1" id="icon" xmlns="http://www.w3.org/2000/svg" xmlns:xlink="http://www.w3.org/1999/xlink" x="0px" y="0px"
	 viewBox="0 0 1024 1024" enable-background="new 0 0 1024 1024" xml:space="preserve">
<path fill="#666666" d="M352,212v120c0,19.9-16.1,36-36,36H164c-19.9,0-36-16.1-36-36V212c0-19.9,16.1-36,36-36h152
	C335.9,176,352,192.1,352,212L352,212z M624,572V452c0-19.9-16.1-36-36-36H436c-19.9,0-36,16.1-36,36v120c0,19.9,16.1,36,36,36h152
	C607.9,608,624,591.9,624,572z M672,212v120c0,19.9,16.1,36,36,36h152c19.9,0,36-16.1,36-36V212c0-19.9-16.1-36-36-36H708
	C688.1,176,672,192.1,672,212z M624,332V212c0-19.9-16.1-36-36-36H436c-19.9,0-36,16.1-36,36v120c0,19.9,16.1,36,36,36h152
	C607.9,368,624,351.9,624,332z M316,416H164c-19.9,0-36,16.1-36,36v120c0,19.9,16.1,36,36,36h152c19.9,0,36-16.1,36-36V452
	C352,432.1,335.9,416,316,416L316,416z M128,692v120c0,19.9,16.1,36,36,36h152c19.9,0,36-16.1,36-36V692c0-19.9-16.1-36-36-36H164
	C144.1,656,128,672.1,128,692z M708,608h152c19.9,0,36-16.1,36-36V452c0-19.9-16.1-36-36-36H708c-19.9,0-36,16.1-36,36v120
	C672,591.9,688.1,608,708,608z M708,848h152c19.9,0,36-16.1,36-36V692c0-19.9-16.1-36-36-36H708c-19.9,0-36,16.1-36,36v120
	C672,831.9,688.1,848,708,848z M400,692v120c0,19.9,16.1,36,36,36h152c19.9,0,36-16.1,36-36V692c0-19.9-16.1-36-36-36H436
	C416.1,656,400,672.1,400,692z"/>
</svg>
