<?xml version="1.0" encoding="utf-8"?>
<!-- Generator: Adobe Illustrator 25.2.3, SVG Export Plug-In . SVG Version: 6.00 Build 0)  -->
<svg version="1.1" id="icon" xmlns="http://www.w3.org/2000/svg" xmlns:xlink="http://www.w3.org/1999/xlink" x="0px" y="0px"
	 viewBox="0 0 1024 1024" enable-background="new 0 0 1024 1024" xml:space="preserve">
<path fill="#666666" d="M942.7,489.9c-183.3-357.6-678.1-357.7-861.4,0c-7,13.9-7,30.3,0,44.2c183.3,357.6,678.1,357.7,861.4,0
	C949.7,520.2,949.7,503.8,942.7,489.9z M512,730c-120.4,0-218-97.6-218-218s97.6-218,218-218s218,97.6,218,218
	C730,632.3,632.5,730.1,512,730z M473.7,372.4c49,66.5-34.7,150.2-101.3,101.3c-21,77.3,24.7,156.9,101.9,177.9
	s156.9-24.7,177.9-101.9C681.9,440.4,580.1,341.4,473.7,372.4z"/>
</svg>
