<?xml version="1.0" encoding="utf-8"?>
<!-- Generator: Adobe Illustrator 25.2.3, SVG Export Plug-In . SVG Version: 6.00 Build 0)  -->
<svg version="1.1" id="icon" xmlns="http://www.w3.org/2000/svg" xmlns:xlink="http://www.w3.org/1999/xlink" x="0px" y="0px"
	 viewBox="0 0 1024 1024" enable-background="new 0 0 1024 1024" xml:space="preserve">
<path fill="#666666" d="M943.1,793.8c28.3,49-7.2,110.2-63.7,110.2H144.6c-56.6,0-91.9-61.3-63.7-110.2l367.4-637
	c28.3-49,99.1-48.9,127.3,0L943.1,793.8L943.1,793.8z M512,662.1c-38.9,0-70.4,31.5-70.4,70.4s31.5,70.4,70.4,70.4
	s70.4-31.5,70.4-70.4S550.9,662.1,512,662.1z M445.1,408.9l11.4,208.2c0.5,9.7,8.6,17.4,18.3,17.4h74.3c9.8,0,17.8-7.6,18.3-17.4
	l11.4-208.2c0.6-10.5-7.8-19.4-18.3-19.4h-97.1C452.9,389.5,444.6,398.4,445.1,408.9L445.1,408.9z"/>
</svg>
