<?xml version="1.0" encoding="utf-8"?>
<!-- Generator: Adobe Illustrator 26.5.0, SVG Export Plug-In . SVG Version: 6.00 Build 0)  -->
<svg version="1.1" id="icon" xmlns="http://www.w3.org/2000/svg" xmlns:xlink="http://www.w3.org/1999/xlink" x="0px" y="0px"
	 viewBox="0 0 1024 1024" enable-background="new 0 0 1024 1024" xml:space="preserve">
<path fill="#666666" d="M512,758.1C373.9,758.1,262,648,262,512s111.9-246.1,250-246.1S762,376,762,512S650.1,758.1,512,758.1z
	 M512,64c-93.8,0.5-176.6,27.6-246.5,73.8c-20,13.2-25.5,40.2-12.3,60.2c13.2,20.1,40.2,25.6,60.3,12.3
	C370.7,172.6,439,151,512.2,151c24,0,43.5-19.5,43.5-43.5C555.7,83.9,536.7,64,512,64z M161.7,266.1c-27.6,0-38.9,23.8-37.8,22
	C78.2,367.2,60,453.8,64.7,537.3c1.4,25.4,21.5,42,43.4,42c25.1,0,44.9-21.1,43.5-46c-4-69.3,11.5-139.5,47.7-202
	C216.2,302.2,194.9,266.1,161.7,266.1z M161.4,670.6c-33.2,0-54.4,36.1-37.6,65.2C166.2,809.2,229.5,870.9,310,912
	c23.6,12.1,49.2,1.9,59.6-18.8c10.8-21.5,2.1-47.6-19.4-58.4c-31.4-15.8-60.3-36-85.9-60.2C193.5,707.9,203.9,670.6,161.4,670.6z
	 M734.5,806.4c-8.2,0-16.5,2.3-23.9,7.2C651.7,852.4,583,873,512,873c-24.6,0-43.7,19.8-43.7,43.5c0,24,19.4,43.5,43.4,43.5
	c85.6,0.1,171.6-24.2,246.8-73.8C794.4,862.5,777.5,806.4,734.5,806.4z M872.4,490.6c4,69.3-11.5,139.5-47.7,202
	c-16.9,29.1,4.5,65.3,37.6,65.3c27.2,0,40-17.8,63.2-73.2c44.2-105.8,33.6-202.6,34-194.2C956.5,424.8,869.1,434.3,872.4,490.6z
	 M693.3,106.8c-45.7,0-60.4,61.9-19.6,82.4c63.4,31.8,116.2,82,151,142.3c8.1,14,22.6,21.9,37.8,21.9c33.2,0,54.4-36.1,37.6-65.2
	C858,215,793.4,151.9,712.8,111.4C706.5,108.2,699.9,106.8,693.3,106.8z"/>
</svg>
