<?xml version="1.0" encoding="utf-8"?>
<!-- Generator: Adobe Illustrator 25.2.3, SVG Export Plug-In . SVG Version: 6.00 Build 0)  -->
<svg version="1.1" id="icon" xmlns="http://www.w3.org/2000/svg" xmlns:xlink="http://www.w3.org/1999/xlink" x="0px" y="0px"
	 viewBox="0 0 1024 1024" enable-background="new 0 0 1024 1024" xml:space="preserve">
<path fill="#666666" d="M512,400.5c61.9,0,111.9,49.9,111.9,111.5S573.9,623.5,512,623.5S400.1,573.6,400.1,512
	S450.1,400.5,512,400.5z M400.1,239.5c0,61.6,50.1,111.5,111.9,111.5s111.9-49.9,111.9-111.5S573.9,128,512,128
	S400.1,177.9,400.1,239.5z M400.1,784.5c0,61.6,50.1,111.5,111.9,111.5s111.9-49.9,111.9-111.5S573.9,673,512,673
	S400.1,722.9,400.1,784.5z"/>
</svg>
