<?xml version="1.0" encoding="utf-8"?>
<!-- Generator: Adobe Illustrator 25.2.3, SVG Export Plug-In . SVG Version: 6.00 Build 0)  -->
<svg version="1.1" id="icon" xmlns="http://www.w3.org/2000/svg" xmlns:xlink="http://www.w3.org/1999/xlink" x="0px" y="0px"
	 viewBox="0 0 1024 1024" enable-background="new 0 0 1024 1024" xml:space="preserve">
<path fill="#666666" d="M855.4,186.6c-97.6-82.1-248.4-69.7-341.8,25.3c-93.4-95.1-244.2-107.6-341.8-25.3
	c-127,106.9-108.4,281.2-17.9,373.5l296.2,301.8c35.3,36,92.2,35.6,127,0.2l296.2-301.8C963.6,467.9,982.5,293.7,855.4,186.6z
	 M815.5,503.2C490.2,834.7,516.2,813.3,507.9,805L211.7,503.2c-61.6-62.8-74.1-181.7,12.3-254.5c65.7-55.2,167-46.9,230.5,17.7
	l59.1,60.3l59.1-60.3c63.8-65,165.1-72.9,230.5-17.9C889.5,321.4,876.7,440.9,815.5,503.2L815.5,503.2z"/>
</svg>
