<?xml version="1.0" encoding="utf-8"?>
<!-- Generator: Adobe Illustrator 26.2.1, SVG Export Plug-In . SVG Version: 6.00 Build 0)  -->
<svg version="1.1" id="icon" xmlns="http://www.w3.org/2000/svg" xmlns:xlink="http://www.w3.org/1999/xlink" x="0px" y="0px"
	 viewBox="0 0 1024 1024" enable-background="new 0 0 1024 1024" xml:space="preserve">
<path fill="#666666" d="M224,452c33.1,0,60,26.9,60,60s-26.9,60-60,60s-60-26.9-60-60S190.9,452,224,452 M224,384
	c-70.7,0-128,57.3-128,128s57.3,128,128,128s128-57.3,128-128S294.7,384,224,384L224,384z M928,512c0,70.7-57.3,128-128,128
	s-128-57.3-128-128s57.3-128,128-128S928,441.3,928,512z"/>
<g>
	<g>
		<path fill="#666666" d="M548,762V262c0-19.9-16.1-36-36-36c-19.9,0-36,16.1-36,36V762c0,19.9,16.1,36,36,36
			C531.9,798,548,781.9,548,762z"/>
	</g>
</g>
</svg>
