<?xml version="1.0" encoding="utf-8"?>
<!-- Generator: Adobe Illustrator 25.2.3, SVG Export Plug-In . SVG Version: 6.00 Build 0)  -->
<svg version="1.1" id="icon" xmlns="http://www.w3.org/2000/svg" xmlns:xlink="http://www.w3.org/1999/xlink" x="0px" y="0px"
	 viewBox="0 0 1024 1024" enable-background="new 0 0 1024 1024" xml:space="preserve">
<path fill="#666666" d="M899.4,527.4c57.1-96.7-12.8-203.1-108.1-203.1h-54.7c30.3-79,19.6-226.9-129.6-226.9
	c-92.4,0-87.1,142.4-107.6,162.9c-34.1,34.1-74.4,99.7-103.1,125.1H248c-26.5,0-48,21.5-48,48v360c0,26.5,21.5,48,48,48h96
	c22.3,0,41.1-15.3,46.5-35.9c66.8,1.5,112.6,59.9,266.7,59.9c10.8,0,22.8,0,33.3,0c115.7,0,168-59.1,169.4-143
	c20-27.6,30.4-64.7,26-100.5C900.7,594.2,906.4,561.4,899.4,527.4z M806.8,608.2c18.8,31.7,1.9,74.1-20.9,86.4
	c17.6,111.7-74.8,98.8-136.4,98.8c-107.5,0-177-56.7-257.5-56.7V457.4h16.4c42.5,0,102-106.3,141.8-146.2
	c42.5-42.5,28.4-113.4,56.7-141.8c70.9,0,70.9,49.5,70.9,85.1c0,58.8-42.5,85.1-42.5,141.8h156c31.7,0,56.6,28.4,56.7,56.7
	c0.1,28.3-19.2,56.7-33.4,56.7C834.8,531.6,839.2,577.6,806.8,608.2L806.8,608.2z M332,745.4c0,19.9-16.1,36-36,36s-36-16.1-36-36
	s16.1-36,36-36S332,725.5,332,745.4z"/>
</svg>
