<?xml version="1.0" encoding="utf-8"?>
<!-- Generator: Adobe Illustrator 25.2.3, SVG Export Plug-In . SVG Version: 6.00 Build 0)  -->
<svg version="1.1" id="icon" xmlns="http://www.w3.org/2000/svg" xmlns:xlink="http://www.w3.org/1999/xlink" x="0px" y="0px"
	 viewBox="0 0 1024 1024" enable-background="new 0 0 1024 1024" xml:space="preserve">
<path fill="#666666" d="M512,64C264.6,64,64,264.7,64,512c0,247.5,200.6,448,448,448s448-200.5,448-448C960,264.7,759.4,64,512,64z
	 M512,873.3c-199.7,0-361.3-161.6-361.3-361.3c0-199.6,161.6-361.3,361.3-361.3c199.6,0,361.3,161.6,361.3,361.3
	C873.3,711.7,711.7,873.3,512,873.3z M705.7,412.3c0,121.1-130.8,123-130.8,167.8v11.4c0,12-9.7,21.7-21.7,21.7h-82.5
	c-12,0-21.7-9.7-21.7-21.7v-15.6c0-64.6,49-90.4,85.9-111.1c31.7-17.8,51.2-29.9,51.2-53.4c0-31.2-39.7-51.8-71.9-51.8
	c-41.9,0-61.2,19.8-88.4,54.1c-7.3,9.2-20.7,11-30.1,3.8l-50.3-38.1c-9.2-7-11.3-20-4.8-29.6c42.7-62.7,97-97.9,181.7-97.9
	C611.1,251.9,705.7,321.1,705.7,412.3z M587.9,714.3c0,41.8-34,75.9-75.9,75.9s-75.9-34-75.9-75.9c0-41.8,34-75.9,75.9-75.9
	S587.9,672.5,587.9,714.3z"/>
</svg>
