<?xml version="1.0" encoding="utf-8"?>
<!-- Generator: Adobe Illustrator 25.2.3, SVG Export Plug-In . SVG Version: 6.00 Build 0)  -->
<svg version="1.1" id="icon" xmlns="http://www.w3.org/2000/svg" xmlns:xlink="http://www.w3.org/1999/xlink" x="0px" y="0px"
	 viewBox="0 0 1024 1024" enable-background="new 0 0 1024 1024" xml:space="preserve">
<path fill="#666666" d="M960,512c0,247.5-200.6,448-448,448S64,759.5,64,512C64,264.7,264.6,64,512,64S960,264.7,960,512z
	 M524,212.1c-98.4,0-161.2,41.5-210.5,115.2c-6.4,9.5-4.3,22.4,4.9,29.4l62.7,47.5c9.4,7.1,22.8,5.4,30.1-3.8
	c32.3-40.9,54.4-64.7,103.5-64.7c36.9,0,82.6,23.8,82.6,59.5c0,27.1-22.3,40.9-58.8,61.4c-42.5,23.8-98.7,53.5-98.7,127.6v7.2
	c0,12,9.7,21.7,21.7,21.7h101.2c12,0,21.7-9.7,21.7-21.7v-2.4c0-51.4,150.3-53.6,150.3-192.7C734.5,291.6,625.8,212.1,524,212.1z
	 M512,660.1c-45.8,0-83.1,37.3-83.1,83.1c0,45.8,37.3,83.1,83.1,83.1s83.1-37.3,83.1-83.1C595.1,697.4,557.8,660.1,512,660.1z"/>
</svg>
