<?xml version="1.0" encoding="utf-8"?>
<!-- Generator: Adobe Illustrator 26.2.1, SVG Export Plug-In . SVG Version: 6.00 Build 0)  -->
<svg version="1.1" id="icon" xmlns="http://www.w3.org/2000/svg" xmlns:xlink="http://www.w3.org/1999/xlink" x="0px" y="0px"
	 viewBox="0 0 1024 1024" enable-background="new 0 0 1024 1024" xml:space="preserve">
<ellipse transform="matrix(0.7071 -0.7071 0.7071 0.7071 -212.0773 512)" fill="#E6E6E6" cx="512" cy="512" rx="416" ry="412"/>
<g>
	<g>
		<g>
			<g>
				<circle fill="#ECF2F5" cx="708.5" cy="512" r="139.8"/>
			</g>
		</g>
	</g>
</g>
<path fill="#333333" d="M512,136c207.7,0,376,168.3,376,376c0,207.7-168.3,376-376,376c-207.7,0-376-168.3-376-376
	C136,304.3,304.3,136,512,136 M512,64C264.6,64,64,264.6,64,512s200.6,448,448,448s448-200.6,448-448S759.4,64,512,64L512,64z
	 M340.6,649.5c-8.2,1.5-16.6,2.3-25.1,2.3c-77.2,0-139.8-62.6-139.8-139.8s62.6-139.8,139.8-139.8c8.6,0,17,0.8,25.1,2.3
	c-22.8,12.2-42.3,29.9-56.6,51.3c-35.2,12.9-60.4,46.7-60.4,86.2c0,39.6,25.2,73.4,60.4,86.2C298.4,619.7,317.8,637.3,340.6,649.5z
	 M382.3,598.2C347.2,585.4,322,551.6,322,512c0-39.6,25.2-73.4,60.4-86.2c14.3-21.4,33.7-39.1,56.6-51.3c-8.2-1.5-16.6-2.3-25.1-2.3
	C336.5,372.2,274,434.8,274,512s62.6,139.8,139.8,139.8c8.6,0,17-0.8,25.1-2.3C416.1,637.3,396.6,619.7,382.3,598.2z M480.6,598.2
	c-35.2-12.9-60.4-46.7-60.4-86.2c0-39.6,25.2-73.4,60.4-86.2c14.3-21.4,33.7-39.1,56.6-51.3c-8.2-1.5-16.6-2.3-25.1-2.3
	c-77.2,0-139.8,62.6-139.8,139.8S434.8,651.8,512,651.8c8.6,0,17-0.8,25.1-2.3C514.3,637.3,494.9,619.7,480.6,598.2z M578.8,598.2
	c-35.2-12.9-60.4-46.7-60.4-86.2c0-39.6,25.2-73.4,60.4-86.2c14.3-21.4,33.7-39.1,56.6-51.3c-8.2-1.5-16.6-2.3-25.1-2.3
	c-77.2,0-139.8,62.6-139.8,139.8s62.6,139.8,139.8,139.8c8.6,0,17-0.8,25.1-2.3C612.6,637.3,593.1,619.7,578.8,598.2z M708.5,420.2
	c-50.6,0-91.8,41.2-91.8,91.8s41.2,91.8,91.8,91.8s91.8-41.2,91.8-91.8S759.1,420.2,708.5,420.2 M708.5,372.2
	c77.2,0,139.8,62.6,139.8,139.8s-62.6,139.8-139.8,139.8S568.7,589.2,568.7,512S631.3,372.2,708.5,372.2L708.5,372.2z"/>
</svg>
