<?xml version="1.0" encoding="utf-8"?>
<!-- Generator: Adobe Illustrator 25.2.3, SVG Export Plug-In . SVG Version: 6.00 Build 0)  -->
<svg version="1.1" id="icon" xmlns="http://www.w3.org/2000/svg" xmlns:xlink="http://www.w3.org/1999/xlink" x="0px" y="0px"
	 viewBox="0 0 1024 1024" enable-background="new 0 0 1024 1024" xml:space="preserve">
<path fill="#E6E6E6" d="M200,128c-39.8,0-72,32.2-72,72v432c0,39.8,32.2,72,72,72h312v148c0,34.6,44.1,49.1,64.8,21.6L704,704h120
	c39.8,0,72-32.2,72-72V200c0-39.8-32.2-72-72-72C824.2,128,254.9,128,200,128z"/>
<path fill="#333333" d="M824,200c-0.1,0-0.1,432,0,432c-14.1,0-135.8,0-156,0c-7.9,10.5-73,97.4-84,112c0-23.6,0-87.3,0-112
	c-6.6,0-368.8,0-384,0c-0.1,0,0,8.4,0-432C200,199.9,186.3,200,824,200 M200,128c-39.8,0-72,32.2-72,72v432c0,39.8,32.2,72,72,72
	h312v148c0,34.6,44.1,49.1,64.8,21.6L704,704h120c39.8,0,72-32.2,72-72V200c0-39.8-32.2-72-72-72C824.2,128,254.9,128,200,128z
	 M384,416c0,35.3-28.7,64-64,64s-64-28.7-64-64s28.7-64,64-64S384,380.7,384,416z M512,352c-35.3,0-64,28.7-64,64s28.7,64,64,64
	s64-28.7,64-64S547.3,352,512,352z M704,352c-35.3,0-64,28.7-64,64s28.7,64,64,64s64-28.7,64-64S739.3,352,704,352z"/>
</svg>
