<?xml version="1.0" encoding="utf-8"?>
<!-- Generator: Adobe Illustrator 25.2.3, SVG Export Plug-In . SVG Version: 6.00 Build 0)  -->
<svg version="1.1" id="icon" xmlns="http://www.w3.org/2000/svg" xmlns:xlink="http://www.w3.org/1999/xlink" x="0px" y="0px"
	 viewBox="0 0 1024 1024" enable-background="new 0 0 1024 1024" xml:space="preserve">
<g>
	<circle fill="#DAF2EF" cx="512" cy="512" r="448"/>
</g>
<path fill="#1DB8A9" d="M512,64C264.6,64,64,264.6,64,512s200.6,448,448,448s448-200.6,448-448S759.4,64,512,64z M887.9,504.8
	l-154.7,55.4l-81-225.9L807,278.8c21,26.5,38.2,55.5,51.5,86.8C877.1,409.8,887,456.5,887.9,504.8z M665.4,584.5l-225.9,81
	l-81-225.9l225.9-81L665.4,584.5z M751.6,222.2L628,266.5l-44.3-123.7c25.6,4.9,50.5,12.5,74.7,22.7
	C692.2,179.8,723.4,198.8,751.6,222.2z M504.8,136.1l55.4,154.7l-225.9,81L278.8,217c26.5-21,55.5-38.2,86.8-51.5
	C409.8,146.9,456.5,137,504.8,136.1z M222.2,272.4L266.5,396l-123.7,44.3c4.9-25.6,12.5-50.5,22.7-74.7
	C179.8,331.8,198.8,300.6,222.2,272.4z M136.1,519.2l154.7-55.4l81,225.9L217,745.2c-21-26.5-38.2-55.5-51.5-86.8
	C146.9,614.2,137,567.5,136.1,519.2z M272.4,801.8L396,757.5l44.3,123.7c-25.6-4.9-50.5-12.5-74.7-22.7
	C331.8,844.2,300.6,825.2,272.4,801.8z M519.2,887.9l-55.4-154.7l225.9-81L745.2,807c-26.5,21-55.5,38.2-86.8,51.5
	C614.2,877.1,567.5,887,519.2,887.9z M801.8,751.6L757.5,628l123.7-44.3c-4.9,25.6-12.5,50.5-22.7,74.7
	C844.2,692.2,825.2,723.4,801.8,751.6z"/>
</svg>
