<?xml version="1.0" encoding="utf-8"?>
<!-- Generator: Adobe Illustrator 25.2.3, SVG Export Plug-In . SVG Version: 6.00 Build 0)  -->
<svg version="1.1" id="icon" xmlns="http://www.w3.org/2000/svg" xmlns:xlink="http://www.w3.org/1999/xlink" x="0px" y="0px"
	 viewBox="0 0 1024 1024" enable-background="new 0 0 1024 1024" xml:space="preserve">
<g>
	<circle fill="#E6E6E6" cx="512" cy="512" r="448"/>
</g>
<g>
	<path fill="#333333" d="M774.9,553.6c7.4,6.2,4.9,18.2-4.5,20.8L433.6,666c-6.4,1.7-13-2-14.7-8.4l-77.7-285.6
		c-1.7-6.4,2-13,8.4-14.7C709,259.5,690.9,261,698.4,269c3,3.3,4,8,2.5,12.2c-58.6,162.9-61,159.8-51.8,167.5L774.9,553.6z M960,512
		c0,247.4-200.6,448-448,448S64,759.4,64,512S264.6,64,512,64S960,264.6,960,512z M888,512c0-207.7-168.3-376-376-376
		c-207.7,0-376,168.3-376,376c0,157.7,96.9,292.6,234.5,348.5L241.6,386.6c-5.2-19.2,6.1-39,25.3-44.2c19.2-5.2,39,6.1,44.2,25.3
		l140.2,515.5c19.8,3.2,40.1,4.9,60.8,4.9C719.7,888,888,719.7,888,512z"/>
</g>
</svg>
