<?xml version="1.0" encoding="utf-8"?>
<!-- Generator: Adobe Illustrator 25.2.3, SVG Export Plug-In . SVG Version: 6.00 Build 0)  -->
<svg version="1.1" id="icon" xmlns="http://www.w3.org/2000/svg" xmlns:xlink="http://www.w3.org/1999/xlink" x="0px" y="0px"
	 viewBox="0 0 1024 1024" enable-background="new 0 0 1024 1024" xml:space="preserve">
<circle fill="#DAEBF2" cx="512" cy="512" r="448"/>
<path fill="#07AFF0" d="M512,64C264.6,64,64,264.6,64,512s200.6,448,448,448s448-200.6,448-448S759.4,64,512,64z M246.1,246.1
	c34.6-34.6,74.8-61.7,119.5-80.6C412,145.9,461.2,136,512,136s100,9.9,146.3,29.5c44.8,18.9,85,46.1,119.5,80.6
	c34.6,34.6,61.7,74.8,80.6,119.5c14.9,35.3,24.2,72.3,27.8,110.3H137.7c3.6-38.1,12.9-75.1,27.8-110.3
	C184.5,320.9,211.6,280.7,246.1,246.1z"/>
</svg>
