<?xml version="1.0" encoding="utf-8"?>
<!-- Generator: Adobe Illustrator 25.2.3, SVG Export Plug-In . SVG Version: 6.00 Build 0)  -->
<svg version="1.1" id="icon" xmlns="http://www.w3.org/2000/svg" xmlns:xlink="http://www.w3.org/1999/xlink" x="0px" y="0px"
	 viewBox="0 0 1024 1024" enable-background="new 0 0 1024 1024" xml:space="preserve">
<g>
	<path fill="#ECF2F5" d="M340.2,473.6c-13.3-126.1,70.3-253.1,204.2-278.7c-30.5-26.9-70.7-43.2-114.6-43.2
		c-95.8,0-173.4,77.6-173.4,173.4C256.4,388.1,289.9,443.3,340.2,473.6z"/>
	<path fill="#ECF2F5" d="M391.3,600.7c-21.5-28.1-36-58.5-44.2-89.6c-111.1,35-191.6,138.8-191.6,261.6h103.1
		C284.1,701.4,331.5,642,391.3,600.7z"/>
</g>
<path fill="#3D7B99" d="M357.4,541.9c-14.5-35.2-20.2-72.1-18.2-108.2c-31.1-25.9-50.8-64.9-50.8-108.6
	c0-78.2,63.2-141.4,141.4-141.4c27.9,0,53.9,8,75.8,21.9c24.4-8.9,51-14.2,79.4-15.2c-35.8-42.3-89.1-70.7-155.2-70.7
	c-199.9,0-280.4,256.2-120.3,371.9c-105.1,45.2-185.9,147.1-185.9,281.1c0,17.7,14.3,32,32,32s32-14.3,32-32
	C187.5,656.8,263.5,571.7,357.4,541.9z"/>
<g>
	<path fill="#ECF2F5" d="M594.3,619c-95.8,0-173.4-77.5-173.4-173.4c0-95.8,77.5-173.4,173.4-173.4c95.8,0,173.4,77.5,173.4,173.4
		C767.6,541.5,690.1,619,594.3,619z M868.5,893.3c0-151.6-122.7-274.3-274.3-274.3C442.7,619,320,741.7,320,893.3H868.5z"/>
	<g>
		<g>
			<path fill="#3D7B99" d="M715.8,611.3c159.8-117.4,75.5-371-121.6-371c-199.8,0-280.5,256.2-120.3,371.9
				C368.8,657.4,288,759.3,288,893.3c0,17.7,14.3,32,32,32c17.7,0,32-14.3,32-32c0-215.4,261.6-323.3,413.6-171.3
				c45.7,45.7,70.9,106.6,70.9,171.3c0,17.7,14.3,32,32,32s32-14.3,32-32C900.5,764.8,821.7,657.5,715.8,611.3z M452.9,445.6
				c0-78.2,63.2-141.4,141.4-141.4c78.2,0,141.4,63.2,141.4,141.4c0,74.9-57.9,136-131.5,141c-6-0.1-11.9-0.1-17.8,0.1
				C511.8,582.7,452.9,521.2,452.9,445.6z"/>
		</g>
	</g>
</g>
</svg>
