<?xml version="1.0" encoding="utf-8"?>
<!-- Generator: Adobe Illustrator 25.2.3, SVG Export Plug-In . SVG Version: 6.00 Build 0)  -->
<svg version="1.1" id="icon" xmlns="http://www.w3.org/2000/svg" xmlns:xlink="http://www.w3.org/1999/xlink" x="0px" y="0px"
	 viewBox="0 0 1024 1024" enable-background="new 0 0 1024 1024" xml:space="preserve">
<path fill="#E6E6E6" d="M256.4,325.1c0-95.8,77.5-173.4,173.4-173.4c44,0,84.1,16.3,114.6,43.2c-133.9,25.6-217.4,152.6-204.2,278.7
	C289.9,443.3,256.4,388.1,256.4,325.1z M391.3,600.7c-21.5-28.1-36-58.5-44.2-89.6c-111.1,35-191.6,138.8-191.6,261.6h103.1
	C284.1,701.4,331.5,642,391.3,600.7z M767.6,445.6c0-95.8-77.6-173.4-173.4-173.4c-95.8,0-173.4,77.6-173.4,173.4
	c0,95.8,77.6,173.4,173.4,173.4C690.1,619,767.6,541.5,767.6,445.6z M320,893.3C320,741.7,442.7,619,594.3,619
	c151.6,0,274.3,122.7,274.3,274.3H320z"/>
<path fill="#333333" d="M187.5,772.7c0,17.7-14.3,32-32,32s-32-14.3-32-32c0-134,80.8-235.9,185.9-281.1
	c-160.1-115.8-79.5-371.9,120.3-371.9c66,0,119.4,28.5,155.2,70.7c-28.4,1-55,6.3-79.4,15.2c-21.9-13.9-47.9-21.9-75.8-21.9
	c-78.2,0-141.4,63.2-141.4,141.4c0,43.7,19.7,82.7,50.8,108.6c-1.9,36.1,3.8,72.9,18.2,108.2C263.5,571.7,187.5,656.8,187.5,772.7z
	 M900.5,893.3c0,17.7-14.3,32-32,32s-32-14.3-32-32c0-64.8-25.2-125.6-70.9-171.3c-152-152-413.6-44-413.6,171.3
	c0,17.7-14.3,32-32,32c-17.7,0-32-14.3-32-32c0-134,80.8-235.9,185.9-281.1c-160.1-115.8-79.5-371.9,120.3-371.9
	c197.1,0,281.4,253.6,121.6,371C821.7,657.5,900.5,764.8,900.5,893.3z M586.3,586.8c5.9-0.2,11.9-0.3,17.8-0.1
	c73.6-5.1,131.5-66.1,131.5-141c0-78.2-63.2-141.4-141.4-141.4c-78.2,0-141.4,63.2-141.4,141.4C452.9,521.2,511.8,582.7,586.3,586.8
	z"/>
</svg>
