<?xml version="1.0" encoding="utf-8"?>
<!-- Generator: Adobe Illustrator 25.2.3, SVG Export Plug-In . SVG Version: 6.00 Build 0)  -->
<svg version="1.1" id="icon" xmlns="http://www.w3.org/2000/svg" xmlns:xlink="http://www.w3.org/1999/xlink" x="0px" y="0px"
	 viewBox="0 0 1024 1024" enable-background="new 0 0 1024 1024" xml:space="preserve">
<path fill="#333333" d="M895.2,870.4c-6.2-93.3-45.8-180.2-111.6-246c-38.6-38.6-81.7-66.7-126.9-85.1C724,493.2,768,415.8,768,328
	c0-141.6-114.4-256-256-256c-141.6,0-256,114.4-256,256c0,88.6,44.8,166.6,113.1,212.5c-128.7,51.9-230.4,170.8-240.3,330
	c-0.9,13.9,10.2,25.5,24,25.5c782.9,0,724.8,4.3,736-7.6C893.3,883.5,895.6,877,895.2,870.4z"/>
</svg>
