<svg id="Layer_1" data-name="Layer 1" xmlns="http://www.w3.org/2000/svg" viewBox="0 0 75.92 26.68"><defs><style>.cls-1{fill:#9ea6ae;}</style></defs><path class="cls-1" d="M7.25,5.88c0-.8-.16-1.14-.66-1.14s-.69.56-.69,2.1.23,2,.7,2,.69-.21.69-1.39H8.4c0,1.18-.3,2.2-1.74,2.2C5,9.61,4.8,8.43,4.8,6.77S5,3.93,6.66,3.93,8.35,5.08,8.35,5.88Z"/><path class="cls-1" d="M11.36,5.88c0-.8-.16-1.14-.66-1.14S10,5.3,10,6.84s.23,2,.7,2,.69-.21.69-1.39h1.1c0,1.18-.29,2.2-1.74,2.2-1.65,0-1.86-1.18-1.86-2.84s.21-2.84,1.86-2.84,1.7,1.15,1.7,1.95Z"/><path class="cls-1" d="M14.6,4.08c1.31,0,1.7.71,1.7,2.63,0,1.51-.08,2.9-1.7,2.9-1.31,0-1.7-.71-1.7-2.64C12.9,5.47,13,4.08,14.6,4.08ZM14,7.21c0,1.36.12,1.68.6,1.68s.6-.43.6-1.82V6.48c0-1.37-.13-1.68-.6-1.68s-.6.43-.6,1.82Z"/><path class="cls-1" d="M19.67,9.5V5.67H18.59V5h.1c.72,0,1.17-.27,1.28-.87h.81V9.5Z"/><path class="cls-1" d="M23.39,8.31V9.5h-1V8.31Z"/><path class="cls-1" d="M25.64,4.08c1.31,0,1.7.71,1.7,2.63,0,1.51-.08,2.9-1.7,2.9-1.31,0-1.7-.71-1.7-2.64C23.94,5.47,24,4.08,25.64,4.08ZM25,7.21c0,1.36.12,1.68.6,1.68s.6-.43.6-1.82V6.48c0-1.37-.13-1.68-.6-1.68s-.6.43-.6,1.82Z"/><path class="cls-1" d="M30.74,4V7.85c0,.54.13,1,.64,1s.64-.41.64-1V4h1.11V7.85a1.56,1.56,0,0,1-1.75,1.76,1.54,1.54,0,0,1-1.75-1.76V4Z"/><path class="cls-1" d="M33.8,5.38h1v.48h0a1.16,1.16,0,0,1,1-.59c.66,0,1.05.36,1.05,1.17V9.5H35.86V6.66c0-.41-.13-.57-.45-.57s-.56.22-.56.68V9.5H33.8Z"/><path class="cls-1" d="M37.67,4h1.06v.9H37.67Zm0,1.41h1.06V9.5H37.67Z"/><path class="cls-1" d="M41.42,5.38h1.06l-1,4.12H40.22L39.16,5.38h1.1l.59,3h0Z"/><path class="cls-1" d="M43.78,7.6v.33c0,.48.13,1,.52,1s.5-.27.56-.78h1a1.36,1.36,0,0,1-1.5,1.5c-1.53,0-1.59-1.18-1.59-2.21s.22-2.13,1.64-2.13c1.23,0,1.51.83,1.51,2.09V7.6ZM44.86,7c0-.62-.1-1-.54-1s-.54.44-.54.82V7Z"/><path class="cls-1" d="M46.42,5.38h1v.55h0a1.06,1.06,0,0,1,.95-.66l.19,0v1l-.33,0a.72.72,0,0,0-.78.75V9.5H46.42Z"/><path class="cls-1" d="M49.75,8.15v.14a.53.53,0,0,0,.55.6c.32,0,.54-.16.54-.49s-.18-.39-.39-.47l-.74-.27a1.13,1.13,0,0,1-.88-1.15c0-.68.43-1.24,1.52-1.24s1.41.43,1.41,1.17v.17h-.95c0-.41-.12-.62-.47-.62a.45.45,0,0,0-.5.45c0,.2.11.37.46.48l.64.21a1.11,1.11,0,0,1,.91,1.18c0,.87-.64,1.3-1.53,1.3-1.19,0-1.52-.52-1.52-1.31V8.15Z"/><path class="cls-1" d="M52.37,6.64v-.1c0-.94.65-1.27,1.45-1.27,1.26,0,1.49.52,1.49,1.27V8.7a1.78,1.78,0,0,0,.13.8h-1a1.64,1.64,0,0,1-.13-.43h0a1,1,0,0,1-1,.54c-.74,0-1-.63-1-1.18a1.17,1.17,0,0,1,1-1.29l.6-.16c.32-.08.42-.21.42-.48S54.17,6,53.81,6a.48.48,0,0,0-.49.54v.11Zm1.93.8a1.21,1.21,0,0,1-.45.21c-.43.09-.6.3-.6.66s.12.58.4.58a.62.62,0,0,0,.65-.64Z"/><path class="cls-1" d="M56.11,4h1V9.5h-1Z"/><path class="cls-1" d="M5.59,13h-1v-.58H7.29V13h-1v3.73H5.59Z"/><path class="cls-1" d="M7.64,12.43h.65v1.41h0a.94.94,0,0,1,.79-.44c.5,0,.81.22.81.88v2.45H9.26V14.51c0-.42-.13-.58-.45-.58s-.52.21-.52.63v2.18H7.64Z"/><path class="cls-1" d="M10.57,12.38h.65V13h-.65Zm0,1.11h.65v3.25h-.65Z"/><path class="cls-1" d="M13.28,14.44v-.08c0-.26-.09-.51-.43-.51a.41.41,0,0,0-.46.43c0,.25.11.36.46.48l.41.14a.87.87,0,0,1,.71.94c0,.69-.51,1-1.17,1-.82,0-1.07-.38-1.07-1V15.7h.58v.1c0,.38.14.58.51.58s.53-.18.53-.48a.46.46,0,0,0-.35-.47l-.54-.19a.87.87,0,0,1-.69-.94c0-.61.44-.89,1.11-.89.83,0,1,.48,1,.89v.14Z"/><path class="cls-1" d="M15.67,13.49h.68l.45,2.57h0l.48-2.57H18l.48,2.57h0L19,13.49h.65l-.74,3.25h-.73l-.51-2.52h0l-.47,2.52h-.76Z"/><path class="cls-1" d="M21.08,13.41c1,0,1.21.7,1.21,1.71s-.31,1.71-1.21,1.71-1.21-.7-1.21-1.71S20.14,13.41,21.08,13.41Zm0,2.94c.48,0,.56-.4.56-1.23s-.08-1.23-.56-1.23-.56.51-.56,1.23S20.61,16.35,21.08,16.35Z"/><path class="cls-1" d="M22.79,13.49h.65V14h0a.79.79,0,0,1,.75-.59l.16,0v.67a1.42,1.42,0,0,0-.27,0c-.3,0-.66.13-.66.74v1.94h-.65Z"/><path class="cls-1" d="M24.69,12.43h.65v2.42h0l1-1.36h.76l-1,1.25,1.1,2h-.71l-.8-1.48-.37.45v1h-.65Z"/><path class="cls-1" d="M28.94,12.43h.65v1.41h0a.94.94,0,0,1,.79-.44c.5,0,.81.22.81.88v2.45h-.65V14.51c0-.42-.13-.58-.45-.58s-.52.21-.52.63v2.18h-.65Z"/><path class="cls-1" d="M34,16.07c0,.12.07.23.17.23l.11,0v.42a.72.72,0,0,1-.32.08c-.29,0-.53-.11-.55-.43h0a.85.85,0,0,1-.81.48.79.79,0,0,1-.85-.91.89.89,0,0,1,.76-1l.5-.14c.24-.07.38-.14.38-.42s-.1-.49-.44-.49-.5.31-.5.63H31.8c0-.69.28-1.07,1.14-1.07.57,0,1,.22,1,.8Zm-.62-1a4.19,4.19,0,0,1-.72.3.52.52,0,0,0-.27.52c0,.28.14.5.41.5s.58-.3.58-.78Z"/><path class="cls-1" d="M36,14.44v-.08c0-.26-.09-.51-.42-.51a.42.42,0,0,0-.47.43c0,.25.11.36.46.48l.42.14a.88.88,0,0,1,.7.94c0,.69-.5,1-1.16,1-.82,0-1.07-.38-1.07-1V15.7h.58v.1c0,.38.13.58.5.58s.54-.18.54-.48a.47.47,0,0,0-.36-.47l-.53-.19a.87.87,0,0,1-.7-.94c0-.61.44-.89,1.12-.89s1,.48,1,.89v.14Z"/><path class="cls-1" d="M38.65,12.43h.65v1.44h0a.74.74,0,0,1,.73-.46c.5,0,1,.22,1,1.67,0,1.11-.31,1.75-1.07,1.75a.69.69,0,0,1-.71-.48h0v.39h-.62Zm1.17,3.88c.45,0,.55-.47.55-1.2s-.13-1.18-.51-1.18-.59.44-.59,1.22S39.37,16.31,39.82,16.31Z"/><path class="cls-1" d="M42.12,15.2v.19c0,.44.05,1,.54,1s.52-.53.52-.72h.62a1.08,1.08,0,0,1-1.15,1.17c-.53,0-1.19-.16-1.19-1.66,0-.86.19-1.76,1.21-1.76s1.14.54,1.14,1.45v.34Zm1-.44v-.18c0-.41-.13-.73-.5-.73s-.54.42-.54.84v.07Z"/><path class="cls-1" d="M44.91,15.2v.19c0,.44.06,1,.54,1s.52-.53.52-.72h.62a1.07,1.07,0,0,1-1.14,1.17c-.53,0-1.19-.16-1.19-1.66,0-.86.18-1.76,1.2-1.76s1.15.54,1.15,1.45v.34ZM46,14.76v-.18c0-.41-.14-.73-.51-.73s-.54.42-.54.84v.07Z"/><path class="cls-1" d="M47.14,13.49h.62v.38h0a.92.92,0,0,1,.83-.46c.5,0,.81.22.81.88v2.45h-.65V14.51c0-.42-.13-.58-.45-.58s-.52.21-.52.63v2.18h-.66Z"/><path class="cls-1" d="M51.53,13.49h.61v.38h0a.9.9,0,0,1,.78-.46.7.7,0,0,1,.75.49.9.9,0,0,1,.83-.49c.46,0,.79.23.79.86v2.47h-.66V14.51c0-.42-.12-.58-.39-.58a.56.56,0,0,0-.52.63v2.18h-.65V14.51c0-.42-.13-.58-.4-.58s-.51.21-.51.63v2.18h-.65Z"/><path class="cls-1" d="M58.09,16.07c0,.12.08.23.17.23l.11,0v.42a.72.72,0,0,1-.32.08c-.29,0-.53-.11-.55-.43h0a.85.85,0,0,1-.81.48.79.79,0,0,1-.85-.91.89.89,0,0,1,.76-1l.51-.14c.23-.07.38-.14.38-.42s-.11-.49-.45-.49-.5.31-.5.63h-.61c0-.69.28-1.07,1.14-1.07.57,0,1,.22,1,.8Zm-.61-1a4.3,4.3,0,0,1-.73.3.53.53,0,0,0-.26.52c0,.28.13.5.4.5s.59-.3.59-.78Z"/><path class="cls-1" d="M58.76,13.49h.65V14h0a.81.81,0,0,1,.76-.59l.15,0v.67a1.3,1.3,0,0,0-.27,0c-.3,0-.65.13-.65.74v1.94h-.65Z"/><path class="cls-1" d="M60.66,12.43h.65v2.42h0l1-1.36h.75l-1,1.25,1.11,2h-.71l-.8-1.48-.37.45v1h-.65Z"/><path class="cls-1" d="M64,15.2v.19c0,.44.05,1,.54,1s.52-.53.52-.72h.62a1.08,1.08,0,0,1-1.15,1.17c-.53,0-1.19-.16-1.19-1.66,0-.86.19-1.76,1.21-1.76s1.14.54,1.14,1.45v.34Zm1-.44v-.18c0-.41-.13-.73-.5-.73s-.54.42-.54.84v.07Z"/><path class="cls-1" d="M67.87,16.35h0a.7.7,0,0,1-.71.48c-.77,0-1.07-.64-1.07-1.75,0-1.45.51-1.67,1-1.67a.74.74,0,0,1,.73.46h0V12.43h.66v4.31h-.62Zm-.59-2.42c-.38,0-.51.3-.51,1.18s.1,1.2.55,1.2.55-.46.55-1.16S67.78,13.93,67.28,13.93Z"/><path class="cls-1" d="M72.69,16.07c0,.12.08.23.17.23l.11,0v.42a.72.72,0,0,1-.32.08c-.29,0-.53-.11-.55-.43h0a.85.85,0,0,1-.81.48.79.79,0,0,1-.85-.91.89.89,0,0,1,.76-1l.51-.14c.23-.07.38-.14.38-.42s-.1-.49-.45-.49-.49.31-.49.63h-.62c0-.69.28-1.07,1.14-1.07.58,0,1,.22,1,.8Zm-.61-1a4.3,4.3,0,0,1-.73.3.53.53,0,0,0-.26.52c0,.28.13.5.4.5s.59-.3.59-.78Z"/><path class="cls-1" d="M74.76,14.44v-.08c0-.26-.09-.51-.43-.51a.42.42,0,0,0-.47.43c0,.25.12.36.46.48l.42.14a.88.88,0,0,1,.71.94c0,.69-.51,1-1.17,1-.82,0-1.07-.38-1.07-1V15.7h.58v.1c0,.38.13.58.51.58s.53-.18.53-.48a.47.47,0,0,0-.36-.47l-.53-.19a.87.87,0,0,1-.69-.94c0-.61.44-.89,1.11-.89.83,0,1,.48,1,.89v.14Z"/><path class="cls-1" d="M6.5,23.59h0a.69.69,0,0,1-.71.48c-.76,0-1.06-.63-1.06-1.75,0-1.45.5-1.67,1-1.67a.77.77,0,0,1,.74.47h0V19.67h.65V24H6.5Zm-.59-2.42c-.37,0-.51.3-.51,1.18s.1,1.2.55,1.2.55-.46.55-1.15S6.41,21.17,5.91,21.17Z"/><path class="cls-1" d="M8.31,22.45v.18c0,.44,0,1,.54,1s.52-.53.52-.72H10a1.08,1.08,0,0,1-1.15,1.17c-.53,0-1.19-.16-1.19-1.66,0-.85.19-1.76,1.21-1.76S10,21.19,10,22.1v.35Zm1-.45v-.18c0-.41-.13-.72-.5-.72s-.54.41-.54.83V22Z"/><path class="cls-1" d="M12.2,23.59h0a.7.7,0,0,1-.71.48c-.77,0-1.07-.63-1.07-1.75,0-1.45.51-1.67,1-1.67a.75.75,0,0,1,.73.47h0V19.67h.66V24H12.2Zm-.59-2.42c-.38,0-.51.3-.51,1.18s.1,1.2.55,1.2.55-.46.55-1.15S12.11,21.17,11.61,21.17Z"/><path class="cls-1" d="M13.47,19.62h.65v.66h-.65Zm0,1.12h.65V24h-.65Z"/><path class="cls-1" d="M17,22.8c-.05.78-.31,1.27-1.12,1.27s-1.21-.7-1.21-1.71.27-1.71,1.21-1.71A1,1,0,0,1,17,21.82h-.65c0-.3-.09-.7-.47-.69s-.55.51-.55,1.23.08,1.23.55,1.23.5-.3.5-.79Z"/><path class="cls-1" d="M19.59,23.31c0,.12.08.23.17.23l.11,0v.42a.72.72,0,0,1-.32.08c-.29,0-.53-.11-.55-.43h0a.84.84,0,0,1-.81.48.79.79,0,0,1-.85-.91.89.89,0,0,1,.76-1L18.6,22c.23-.07.38-.13.38-.42s-.11-.48-.45-.48-.5.31-.5.62h-.61c0-.69.28-1.07,1.14-1.07.57,0,1,.22,1,.8Zm-.61-1a4.3,4.3,0,0,1-.73.3.55.55,0,0,0-.26.53c0,.27.13.49.4.49s.59-.3.59-.78Z"/><path class="cls-1" d="M20,20.74h.44v-.93h.66v.93h.53v.48h-.53v1.94c0,.25.07.34.29.34a.82.82,0,0,0,.24,0V24a2,2,0,0,1-.53.05c-.44,0-.66-.12-.66-.78v-2H20Z"/><path class="cls-1" d="M22.49,22.45v.18c0,.44.06,1,.55,1s.52-.53.52-.72h.62A1.08,1.08,0,0,1,23,24.07c-.53,0-1.19-.16-1.19-1.66,0-.85.18-1.76,1.21-1.76s1.14.54,1.14,1.45v.35ZM23.54,22v-.18c0-.41-.13-.72-.5-.72s-.55.41-.55.83V22Z"/><path class="cls-1" d="M26.39,23.59h0a.7.7,0,0,1-.72.48c-.76,0-1.06-.63-1.06-1.75,0-1.45.51-1.67,1-1.67a.76.76,0,0,1,.74.47h0V19.67H27V24h-.62Zm-.59-2.42c-.38,0-.51.3-.51,1.18s.1,1.2.55,1.2.55-.46.55-1.15S26.3,21.17,25.8,21.17Z"/><path class="cls-1" d="M28.79,20.74h.45v-.93h.65v.93h.53v.48h-.53v1.94c0,.25.07.34.3.34a.79.79,0,0,0,.23,0V24a2,2,0,0,1-.52.05c-.45,0-.66-.12-.66-.78v-2h-.45Z"/><path class="cls-1" d="M31.84,20.65c.95,0,1.21.7,1.21,1.71s-.31,1.71-1.21,1.71-1.21-.7-1.21-1.71S30.9,20.65,31.84,20.65Zm0,2.94c.48,0,.56-.4.56-1.23s-.08-1.23-.56-1.23-.56.51-.56,1.23S31.37,23.59,31.84,23.59Z"/><path class="cls-1" d="M34.71,20.74h.45v-.93h.65v.93h.53v.48h-.53v1.94c0,.25.07.34.3.34a.79.79,0,0,0,.23,0V24a2,2,0,0,1-.52.05c-.45,0-.66-.12-.66-.78v-2h-.45Z"/><path class="cls-1" d="M36.68,19.67h.65v1.42h0a.93.93,0,0,1,.8-.45c.49,0,.81.22.81.88V24H38.3V21.76c0-.43-.12-.59-.45-.59s-.52.21-.52.64V24h-.65Z"/><path class="cls-1" d="M40.14,22.45v.18c0,.44.06,1,.55,1s.52-.53.52-.72h.61a1.07,1.07,0,0,1-1.14,1.17c-.53,0-1.19-.16-1.19-1.66,0-.85.18-1.76,1.2-1.76s1.15.54,1.15,1.45v.35Zm1-.45v-.18c0-.41-.13-.72-.5-.72s-.55.41-.55.83V22Z"/><path class="cls-1" d="M43.82,20.74h.62v.39h0a.79.79,0,0,1,.73-.48c.75,0,1,.64,1,1.75,0,1.37-.56,1.67-1,1.67a.76.76,0,0,1-.74-.46h0v1.44h-.66ZM45,23.55c.37,0,.54-.28.54-1.18,0-.73-.1-1.2-.55-1.2s-.55.46-.55,1.15S44.54,23.55,45,23.55Z"/><path class="cls-1" d="M48.39,23.61h0a.92.92,0,0,1-.83.46c-.49,0-.81-.22-.81-1.06V20.74h.65v2.33c0,.36.16.48.44.48a.51.51,0,0,0,.53-.54V20.74H49V24h-.61Z"/><path class="cls-1" d="M49.63,19.67h.65v1.45h0a.76.76,0,0,1,.74-.47c.5,0,1,.22,1,1.67,0,1.12-.3,1.75-1.06,1.75a.69.69,0,0,1-.71-.48h0V24h-.62Zm1.17,3.88c.45,0,.55-.46.55-1.2s-.14-1.18-.51-1.18-.59.45-.59,1.23S50.35,23.55,50.8,23.55Z"/><path class="cls-1" d="M52.56,19.67h.66V24h-.66Z"/><path class="cls-1" d="M53.9,19.62h.66v.66H53.9Zm0,1.12h.66V24H53.9Z"/><path class="cls-1" d="M57.41,22.8c0,.78-.31,1.27-1.12,1.27s-1.2-.7-1.2-1.71.26-1.71,1.2-1.71a1,1,0,0,1,1.12,1.17h-.65c0-.3-.09-.7-.47-.69s-.55.51-.55,1.23.08,1.23.55,1.23.5-.3.5-.79Z"/><path class="cls-1" d="M61,23.59h0a.7.7,0,0,1-.71.48c-.76,0-1.07-.63-1.07-1.75,0-1.45.51-1.67,1-1.67a.75.75,0,0,1,.73.47h0V19.67h.65V24H61Zm-.59-2.42c-.38,0-.51.3-.51,1.18s.1,1.2.55,1.2.55-.46.55-1.15S60.91,21.17,60.41,21.17Z"/><path class="cls-1" d="M63.32,20.65c.95,0,1.22.7,1.22,1.71s-.31,1.71-1.22,1.71-1.2-.7-1.2-1.71S62.38,20.65,63.32,20.65Zm0,2.94c.48,0,.57-.4.57-1.23s-.09-1.23-.57-1.23-.55.51-.55,1.23S62.85,23.59,63.32,23.59Z"/><path class="cls-1" d="M65.07,20.74h.61v.38h0a.92.92,0,0,1,.78-.47.7.7,0,0,1,.76.5.88.88,0,0,1,.82-.5c.46,0,.79.24.79.87V24H68.2V21.76c0-.43-.13-.59-.39-.59s-.52.21-.52.64V24h-.66V21.76c0-.43-.12-.59-.4-.59s-.51.21-.51.64V24h-.65Z"/><path class="cls-1" d="M71.64,23.31c0,.12.07.23.17.23l.11,0v.42a.75.75,0,0,1-.32.08c-.29,0-.54-.11-.55-.43h0a.84.84,0,0,1-.81.48c-.52,0-.84-.29-.84-.91a.88.88,0,0,1,.75-1l.51-.14c.24-.07.38-.13.38-.42s-.1-.48-.45-.48-.49.31-.49.62h-.62c0-.69.29-1.07,1.14-1.07.58,0,1,.22,1,.8Zm-.62-1a4.55,4.55,0,0,1-.72.3.54.54,0,0,0-.27.53c0,.27.13.49.41.49s.58-.3.58-.78Z"/><path class="cls-1" d="M72.33,19.62H73v.66h-.65Zm0,1.12H73V24h-.65Z"/><path class="cls-1" d="M73.64,20.74h.61v.38h0a1,1,0,0,1,.84-.47c.49,0,.81.22.81.88V24h-.66V21.76c0-.43-.12-.59-.45-.59s-.52.21-.52.64V24h-.65Z"/></svg>