<svg id="Layer_1" data-name="Layer 1" xmlns="http://www.w3.org/2000/svg" viewBox="0 0 56.54 26.68"><defs><style>.cls-1{fill:#9ea6ae;}</style></defs><path class="cls-1" d="M9,18.36a5.23,5.23,0,0,0,3.83-1.55.44.44,0,0,0,0-.54l-.67-1.22a.45.45,0,0,0-.36-.25.43.43,0,0,0-.4.16l-.06,0a1.47,1.47,0,0,1-.17.15l-.26.2-.35.21a3.36,3.36,0,0,1-.43.2,2.27,2.27,0,0,1-.5.14,2.57,2.57,0,0,1-.55.06,2.5,2.5,0,0,1-1.87-.75,2.61,2.61,0,0,1-.73-1.89,2.57,2.57,0,0,1,.72-1.87,2.43,2.43,0,0,1,1.82-.73,3,3,0,0,1,1.81.62l.24.21a.52.52,0,0,0,.39.15.44.44,0,0,0,.35-.21l.79-1.16a.45.45,0,0,0,0-.58l-.16-.18A3.39,3.39,0,0,0,12,9.22a3.58,3.58,0,0,0-.72-.42,5,5,0,0,0-1-.34A5.9,5.9,0,0,0,9,8.31,5,5,0,0,0,5.35,9.75a4.83,4.83,0,0,0-1.46,3.58,4.85,4.85,0,0,0,1.44,3.6A5,5,0,0,0,9,18.35Zm9.38,0a5.23,5.23,0,0,0,3.83-1.55.49.49,0,0,0,.06-.54l-.67-1.22a.51.51,0,0,0-.38-.25.43.43,0,0,0-.4.16l-.06,0-.17.15-.26.2-.35.21a3.36,3.36,0,0,1-.43.2,2.27,2.27,0,0,1-.5.14,2.6,2.6,0,0,1-.56.06,2.49,2.49,0,0,1-1.86-.75,2.61,2.61,0,0,1-.73-1.89,2.57,2.57,0,0,1,.72-1.87,2.43,2.43,0,0,1,1.82-.73,3,3,0,0,1,1.81.62l.24.21a.52.52,0,0,0,.39.15.46.46,0,0,0,.35-.21L22,10.33a.45.45,0,0,0,0-.58,1.72,1.72,0,0,0-.16-.18,3.39,3.39,0,0,0-.45-.35,3.58,3.58,0,0,0-.72-.42,5,5,0,0,0-1-.34,6,6,0,0,0-1.28-.15,5,5,0,0,0-3.66,1.44,4.8,4.8,0,0,0-1.47,3.58,4.86,4.86,0,0,0,1.45,3.6,5,5,0,0,0,3.68,1.42Zm-5.05-16a10.68,10.68,0,0,0-4.26.87A10.86,10.86,0,0,0,3.25,9.08a10.86,10.86,0,0,0,0,8.52,10.86,10.86,0,0,0,5.83,5.83,10.86,10.86,0,0,0,8.52,0,10.86,10.86,0,0,0,5.83-5.83,10.86,10.86,0,0,0,0-8.52A10.86,10.86,0,0,0,17.6,3.25,10.68,10.68,0,0,0,13.34,2.38Zm0-2.38a12.94,12.94,0,0,1,5.18,1.06,13.05,13.05,0,0,1,7.1,7.1,13.19,13.19,0,0,1,0,10.36,13.05,13.05,0,0,1-7.1,7.1,13.19,13.19,0,0,1-10.36,0,13.05,13.05,0,0,1-7.1-7.1,13.19,13.19,0,0,1,0-10.36,13.05,13.05,0,0,1,7.1-7.1A12.94,12.94,0,0,1,13.34,0Z"/><path class="cls-1" d="M43.2,2.38a10.68,10.68,0,0,0-4.26.87,10.86,10.86,0,0,0-5.83,5.83,10.86,10.86,0,0,0,0,8.52,10.86,10.86,0,0,0,5.83,5.83,10.84,10.84,0,0,0,8.51,0,10.92,10.92,0,0,0,3.49-2.34,11,11,0,0,0,2.34-3.49,10.86,10.86,0,0,0,0-8.52,11,11,0,0,0-2.34-3.49,10.92,10.92,0,0,0-3.49-2.34A10.63,10.63,0,0,0,43.2,2.38ZM43.2,0a13,13,0,0,1,5.18,1.06A13.26,13.26,0,0,1,52.63,3.9a13.49,13.49,0,0,1,2.85,4.26,13.19,13.19,0,0,1,0,10.36,13.47,13.47,0,0,1-2.84,4.26,13.3,13.3,0,0,1-4.26,2.84,13.19,13.19,0,0,1-10.36,0,13.3,13.3,0,0,1-4.26-2.84,13.49,13.49,0,0,1-2.85-4.26,13.3,13.3,0,0,1,0-10.36A13.49,13.49,0,0,1,33.76,3.9,13.3,13.3,0,0,1,38,1.06,12.91,12.91,0,0,1,43.2,0Zm5,13.28a10.58,10.58,0,0,1-.34,2.82,6.11,6.11,0,0,1-1,2.1,4.39,4.39,0,0,1-1.61,1.3,5.39,5.39,0,0,1-4.12.08,3.93,3.93,0,0,1-1.53-1.17,5.73,5.73,0,0,1-1-2,10.78,10.78,0,0,1-.36-3,10.56,10.56,0,0,1,.35-2.82,6.06,6.06,0,0,1,1-2.09,4.34,4.34,0,0,1,1.61-1.31,5,5,0,0,1,2.17-.45,5,5,0,0,1,1.95.37,3.93,3.93,0,0,1,1.53,1.17,5.59,5.59,0,0,1,1,2A10.8,10.8,0,0,1,48.18,13.28Zm-7.57,0v.37c0,.11,0,.23,0,.34l4.8-3.46a3.19,3.19,0,0,0-.91-1.43A2.1,2.1,0,0,0,42.18,9a2.52,2.52,0,0,0-.82.86,5,5,0,0,0-.54,1.45A8.89,8.89,0,0,0,40.61,13.32Zm5.17,0c0-.11,0-.22,0-.34s0-.22,0-.32L41,16.14a2.82,2.82,0,0,0,.88,1.4A2,2,0,0,0,43.2,18a2,2,0,0,0,1-.28,2.48,2.48,0,0,0,.82-.85,5,5,0,0,0,.54-1.45A9.59,9.59,0,0,0,45.78,13.36Z"/></svg>