<?xml version="1.0" encoding="utf-8"?>
<!-- Generator: Adobe Illustrator 25.0.1, SVG Export Plug-In . SVG Version: 6.00 Build 0)  -->
<svg version="1.1" id="half_img" xmlns="http://www.w3.org/2000/svg" xmlns:xlink="http://www.w3.org/1999/xlink" x="0px" y="0px"
	 viewBox="0 0 106 120" style="enable-background:new 0 0 106 120;" xml:space="preserve">
<style type="text/css">
	.st0{fill:none;}
	.st1{fill:#6D19BD;}
	.st2{fill:#C1BDC2;}
	.st3{fill:#FEFEFE;}
	.st4{fill:#D4CED6;}
	.st5{fill:#E8E0EF;}
	.st6{fill:#A8A5A9;}
	.st7{fill:#551596;}
	.st8{fill:#8740DC;}
</style>
<g>
	<polygon class="st0" points="63.9,110.7 63.9,110.7 63.9,110.7 	"/>
	<path class="st0" d="M59.4,89.9c0,1.5,0,3,0,4.4c-0.2,6.5-0.3,13-0.5,19.5c0.2-6.5,0.3-13,0.5-19.5C59.4,92.9,59.4,91.4,59.4,89.9z
		"/>
	<path class="st0" d="M58.1,115.6c0.1-0.1,0.2-0.1,0.2-0.2c0.2-0.1,0.3-0.2,0.5-0.3c-0.2,0.1-0.3,0.2-0.5,0.3
		C58.2,115.4,58.2,115.5,58.1,115.6z"/>
	<path class="st0" d="M55.6,117.6c0.1,0,0.1,0,0.1-0.1c0.3-0.2,0.5-0.4,0.8-0.7c-0.3,0.2-0.5,0.4-0.8,0.7
		C55.7,117.6,55.7,117.6,55.6,117.6z"/>
	<path class="st0" d="M56.6,116.8c0.1-0.1,0.1-0.1,0.2-0.2c0.4-0.3,0.7-0.6,1.1-0.8c-0.4,0.3-0.7,0.6-1.1,0.8
		C56.7,116.7,56.7,116.8,56.6,116.8z"/>
	<path class="st0" d="M57.9,115.8c0.1-0.1,0.1-0.1,0.2-0.2c0,0,0,0,0,0c0,0,0,0,0,0C58,115.7,57.9,115.7,57.9,115.8z"/>
	<path class="st0" d="M71.6,103c0,0.2,0,0.4-0.1,0.5C71.6,103.3,71.6,103.2,71.6,103c0-0.2,0-0.4,0.1-0.6
		C71.6,102.5,71.6,102.8,71.6,103z"/>
	<path class="st0" d="M61.6,84.5c-0.6-0.8-1.3-1.5-2-1.8c0-0.2,0-0.5,0-0.7c0,0.2,0,0.5,0,0.7C60.3,83,61,83.6,61.6,84.5z"/>
	<path class="st0" d="M60,114.3c0-0.1,0.1-0.2,0.1-0.3l0,0C60.1,114.1,60.1,114.2,60,114.3z"/>
	<path class="st0" d="M61.6,112.7L61.6,112.7c0.1-0.1,0.2-0.2,0.2-0.2l0,0C61.8,112.5,61.7,112.6,61.6,112.7z"/>
	<path class="st0" d="M59.3,114.5c-0.2,0-0.3,0-0.5,0c0,0,0,0,0,0C59,114.5,59.2,114.5,59.3,114.5L59.3,114.5z"/>
	<path class="st0" d="M59.7,82c0-0.1,0.1-0.2,0.2-0.3C59.7,81.8,59.7,81.9,59.7,82z"/>
	<path class="st0" d="M59.4,85c0-0.2,0-0.5,0-0.7C59.4,84.6,59.4,84.8,59.4,85C59.4,85,59.4,85,59.4,85z"/>
	<path class="st0" d="M54.3,118.6c0.1-0.1,0.2-0.1,0.2-0.2c0.4-0.3,0.8-0.5,1.2-0.8c-0.4,0.3-0.8,0.5-1.2,0.8
		C54.4,118.5,54.3,118.6,54.3,118.6z"/>
	<path class="st0" d="M54,118.9c0.1-0.1,0.1-0.1,0.2-0.2l0,0c0,0,0,0,0,0C54.2,118.7,54.1,118.8,54,118.9z"/>
	<path class="st0" d="M53.7,119.1c0,0.1,0,0.2,0,0.2C53.7,119.3,53.7,119.2,53.7,119.1c0-0.1,0-0.1,0-0.2c0,0,0,0,0,0
		C53.7,119,53.7,119.1,53.7,119.1z"/>
	<path class="st0" d="M53.4,119.6c0.1,0,0.2-0.1,0.3-0.2C53.6,119.5,53.5,119.6,53.4,119.6z"/>
	<path class="st0" d="M71.5,103.5c-0.1,0.1-0.2,0.3-0.3,0.4C71.3,103.7,71.4,103.6,71.5,103.5z"/>
	<path class="st0" d="M53.7,118.9c-0.1,0.1-0.2,0.1-0.3,0.2c-0.1,0-0.2,0.1-0.2,0.2c0-0.1,0.1-0.2,0.2-0.2
		C53.5,119,53.6,119,53.7,118.9L53.7,118.9z"/>
	<path class="st0" d="M55.5,59.5c-0.2,0.1-0.3,0.2-0.3,0.5c-1.8,0.9-3.6,1.9-5.3,3c1.7-1.1,3.5-2.1,5.3-3
		C55.2,59.7,55.3,59.5,55.5,59.5z"/>
	<path class="st0" d="M66.6,53.4c-0.4,0.2-0.7,0.4-0.9,0.9l0,0c0,0,0,0,0,0C65.9,53.8,66.2,53.6,66.6,53.4z"/>
	<path class="st0" d="M64.5,54.6c-0.7,0.2-1.2,0.5-1.6,1.3c-0.6,0.3-1.2,0.5-1.8,0.8c0.6-0.3,1.2-0.5,1.8-0.8
		C63.3,55.1,63.8,54.8,64.5,54.6z"/>
	<path class="st0" d="M31.6,73.2C31.7,73.2,31.7,73.2,31.6,73.2C31.7,73.2,31.7,73.2,31.6,73.2z"/>
	<path class="st0" d="M58.4,57.8c-0.5,0.2-1.1,0.4-1.2,1.1c-0.5,0.2-1,0.4-1.5,0.5c0.5-0.2,1-0.4,1.5-0.5
		C57.4,58.2,57.9,58,58.4,57.8z"/>
	<path class="st0" d="M33.2,73.3c0,0,0.1,0,0.1,0l0,0C33.3,73.3,33.2,73.3,33.2,73.3z"/>
	<path class="st0" d="M35.6,58.4c0.1,0,0.2,0,0.2,0C35.7,58.4,35.7,58.4,35.6,58.4z"/>
	<path class="st0" d="M53.9,85c0.2-0.2,0.4-0.4,0.6-0.5C54.2,84.7,54,84.9,53.9,85c-0.9,0.3-1.7,0.8-2.5,1.3
		c-0.4,0.2-0.8,0.5-1.3,0.7c0.4-0.2,0.8-0.5,1.3-0.7C52.2,85.8,53,85.3,53.9,85z"/>
	<path class="st0" d="M37.9,69.9L37.9,69.9c-0.1-0.2-0.2-0.4-0.4-0.5C37.6,69.6,37.8,69.7,37.9,69.9z"/>
	<path class="st0" d="M44,66.3c-0.2,0.1-0.4,0.3-0.5,0.5l0,0c0,0,0,0,0,0C43.6,66.6,43.8,66.4,44,66.3z"/>
	<path class="st0" d="M18.5,99.3c0.1,0.6,0.2,1.3,0.3,1.9C18.7,100.6,18.6,100,18.5,99.3z"/>
	<path class="st0" d="M47.3,116.9c0,0.5,0,0.9,0,1.4C47.3,117.8,47.3,117.4,47.3,116.9z"/>
	<path class="st0" d="M53.1,119.6L53.1,119.6C53.1,119.6,53.1,119.6,53.1,119.6C53.1,119.6,53.1,119.6,53.1,119.6z"/>
	<path class="st0" d="M35,58.1c0,0,0.1,0.1,0.1,0.1C35.1,58.1,35.1,58.1,35,58.1z"/>
	<path class="st0" d="M52.2,120.4c-0.1,0.1-0.2,0.1-0.2,0.2c-0.1,0-0.1,0.1-0.2,0.1c0.1,0,0.1-0.1,0.2-0.1
		C52,120.5,52.1,120.5,52.2,120.4c0.1-0.1,0.2-0.2,0.3-0.2C52.3,120.3,52.3,120.3,52.2,120.4z"/>
	<path class="st0" d="M7,55.9c0.3,0.2,0.6,0.5,0.7,1c0,0,0,0,0,0C7.5,56.4,7.3,56.1,7,55.9z"/>
	<path class="st0" d="M52.4,120.2c-0.1,0.1-0.2,0.2-0.3,0.2C52.3,120.3,52.3,120.3,52.4,120.2c0.1-0.3,0.4-0.4,0.6-0.5h0
		C52.8,119.8,52.6,119.9,52.4,120.2z"/>
	<path class="st1" d="M38.8,13.6c-0.3,7.2,6.2,12.7,7.4,19.6c0.2,9-0.2,18.1,1.3,27c0.2,0.9,0.3,2,1.6,2.1c2-1.2,4-2.3,6.1-3.5
		c0.1-0.1,0.2-0.2,0.3-0.4c0,0,0,0,0,0.1c0,0,0.1,0,0.1,0c0-1.3,0.6-2.4,1.1-3.6c0.1-0.2,0.1-0.3,0.2-0.5c1.5-6,1.2-12.3,1.5-18.5
		c-0.3-3.3,0.6-6.4,2.2-9.3c1.5-3.8,3.4-7.4,4.3-11.4c0.9-3.6,0.2-7-2.1-10.1C62,4,60.7,3.4,60.1,2.1C60,2,60,2,59.9,2
		c-0.3,0-0.5-0.1-0.6-0.5c-0.7-0.3-1.5-0.4-2.2-0.7c-0.9-0.3-2-0.1-2.7-0.9c-1.1,0-2.2,0-3.3,0c-1.3,1.1-3.8,0.7-5.2,1.9
		c-3.8,2.2-6.4,5.4-7.6,9.7c0.2,0.3,0.4,0.6,0.4,1C38.9,12.9,38.9,13.2,38.8,13.6z M44.1,9.4c1-6.2,12.2-7.1,12.7-0.4
		c0.1,0.5,0.3,1,0.5,1.4c2,3.2,1.3,6.1-0.7,8.9c-0.1,0.1-0.1,0.3-0.2,0.3c-3.4,2.5,0.4,7.4-1,11.1c0,0.3-0.1,0.6-0.1,0.9
		c0.2,6-0.2,11.9-0.3,17.9c0,2.7-0.5,5.3-1.3,7.9c-1.3,2.2-3.7-1-3-2.5c-0.1-1.9-0.6-3.9-0.2-5.9c-0.8-7.6,0.3-15.4-1.3-23
		c0.5-3.6-1.1-6.3-2.5-9.6c-0.5-0.7-0.8-1.5-1.5-2.1C43.6,13,43.6,11.1,44.1,9.4z"/>
	<path class="st2" d="M3.8,55.3c0.4,0.3,0.9,0.6,1.3,0.8c0.8,0.4,1.5,0.7,2.4,0.8c-0.1-0.5-0.3-0.8-0.7-1c-0.3-0.2-0.7-0.4-1-0.6
		C0.9,52.7-0.6,47.1,1,42c-0.7,0.5-0.6,1.4-1,2.1c-0.1,0.3,0,0.8-0.6,0.8c0,0.3,0,0.5,0,0.8c0.4,0.4,0.4,0.9,0,1.3
		c0,0.4,0,0.9,0,1.3c0.7,0,0.5,0.6,0.5,0.9c0.2,1.3,0.5,2.5,1.3,3.6c0.2,0.1,0.3,0.3,0.3,0.6c0,0,0,0,0,0
		C2.5,53.6,2.9,54.7,3.8,55.3z"/>
	<path class="st3" d="M-0.5,45.6c0,0.4,0,0.9,0,1.3C-0.1,46.5-0.1,46-0.5,45.6z"/>
	<path class="st4" d="M20.9,87.9c0,0.2,0,0.4-0.3,0.5c0.2,1.3-0.5,2.4-0.8,3.6c-0.8,3-0.1,8.6,4.3,7.2c0.4-0.1,0.8-0.3,1.2-0.1
		C39,93,51.3,81.7,65.8,76.2c13.8-6.6,29.4-13.9,35-29.3c0.9-3.3,0.6-6.5-0.6-9.6c-0.1-0.2-0.1-0.3-0.1-0.5c-0.2,0-0.4,0-0.5-0.3
		c-0.2,0-0.4,0-0.5-0.3c-2.3-0.4-4.5-1.2-6.9-1c-0.5,0.1-0.9,0.1-1.4,0.2c-2.8,0.6-5,2-6.6,4.3c0.8,0.8,0.6,1.6-0.2,2.3
		c-0.6,0.4-1.1,1-1.8,1.1c-4,3.2-8.6,5.4-13,7.9c-1.5,0.8-3.1,1.4-4.4,2.5c-1.4,1.1-3,1.7-4.5,2.4c-1.5,0.9-2.9,1.8-4.5,2.4
		c0,0,0,0,0,0l-0.1,0c0,0.2-0.2,0.2-0.3,0.3c0,0,0,0,0,0c-2,1.2-4,2.3-6.1,3.5c-1,0.7-2.1,1.3-3.1,2c-0.2,0.1-0.4,0.2-0.5,0.3
		c-0.2,0.3-0.5,0.6-0.8,0.8c-0.3,0.2-0.7,0.4-1,0.6c-0.4,0.3-0.8,0.1-1-0.3c-0.6-1.3-1.7-2.2-3-2.8c-1.8-0.9-3.3-2.3-5.5-2.4
		c-1.2,0-2.9,1.4-3,2.5c-0.1,0.8,0.5,0.8,1,1.1c-0.2,0.6-1.4,1.1-0.2,1.8c0.3,0.2-0.6,0.7-0.1,1.3c1.2,0.2,2.5,0.5,3.1,2
		c0.1,0.2,0.3,0.5,0.9,0.3c0.1,0,0.3-0.1,0.5-0.1c0.2,0,0.4,0,0.5,0c0.4,0.1,0.7,0.3,0.9,0.7c1.4-0.8,2.7-1.7,4.1-2.5
		c0.5-0.3,0.8-0.8,1.5-0.6l0,0c0.3-0.5,0.7-0.7,1.3-0.8c3.5-2,6.8-4.3,10.5-6.2c0-0.2,0.1-0.4,0.3-0.5c0.1,0,0.1,0,0.2,0
		c0.5-0.2,1-0.4,1.5-0.5c0.1-0.7,0.7-0.9,1.2-1.1c0.2-0.1,0.3-0.1,0.5-0.2c0.7-0.4,1.4-0.8,2.2-1c0.6-0.3,1.2-0.5,1.8-0.8
		c0.4-0.7,0.9-1.1,1.6-1.3c0.4-0.1,0.8-0.2,1.2-0.3l0,0c0.2-0.5,0.5-0.7,0.9-0.9c8.7-3.7,16.7-10.4,25.8-12.8c1.9,0.4,2.2,0.6,3.2,3
		c0.4,0.1,0.3-0.5,0.7-0.5c0.7,0.9,0.8,2,0.6,3.2c-0.7,3.6-2.6,6.4-5,9C83.9,63.8,73.4,69,63.5,74.7c-12.7,6-24.8,13.4-37.5,19.1
		c-7.7,0.4-1.8-11.3,1.5-14c0.5-0.5,0.9-0.9,1-1.6c-0.2,0-0.3,0-0.5,0c-0.7,0.8-1.4,1.7-2.1,2.5c-1.6,2-3.3,4-4.3,6.4
		c-0.1,0.1-0.2,0.2-0.3,0.3C21.2,87.6,21.2,87.8,20.9,87.9z"/>
	<polygon class="st4" points="21.2,87.4 21.2,87.3 21.2,87.3 	"/>
	<path class="st4" d="M55.5,58.5L55.5,58.5L55.5,58.5C55.6,58.5,55.6,58.5,55.5,58.5C55.6,58.5,55.6,58.5,55.5,58.5
		C55.6,58.5,55.5,58.5,55.5,58.5z"/>
	<path class="st4" d="M49.2,62.3c2-1.2,4-2.3,6.1-3.5c0,0,0,0,0,0c0,0,0,0,0,0C53.2,60,51.2,61.1,49.2,62.3z"/>
	<path class="st2" d="M20.5,104.8c0.6,0.8,0.9,1.8,1.3,2.8c1.9,4.7,5,8.6,8.6,12.1h16.9c-0.2-0.1-0.5-0.1-0.6-0.2
		c-0.4-1.1-1.1-2.1-1.6-3.1c-0.6-1.2-1.4-2-2.6-2.2c-1.8-0.4-3.2,1-5.1,0.5c-0.8-0.2-1.5-0.3-1.7-0.9c-0.5-1.4-1.9-2.1-2.7-3.2
		c-6.6-8.1,4.1-16.4,10.5-20.4C55.6,81.4,70,76.3,83.2,69.1c7-3.9,14.5-8.2,18.2-15.6c0.5-0.9,0.6-1.9,0.8-2.9
		c0.4-2.5,1.5-4.8,1.4-7.3c0-1-0.4-2-0.3-3c-0.7-1.5-1.9-2.4-3.3-3.2c0,0,0,0,0,0c0,0,0,0,0,0c0,0.2,0,0.3,0.1,0.5
		c1.3,3.1,1.6,6.3,0.6,9.6c-5.5,15.4-21.2,22.6-35,29.3C51.3,81.7,39,93,25.4,99c-0.5-0.1-0.9,0-1.2,0.1c-4.4,1.4-5.1-4.2-4.3-7.2
		c0.3-1.2,1-2.3,0.8-3.6c0,0,0,0,0,0c-1.7,2.8-2,5.8-2.3,9c0,0.7,0,1.3,0.1,2C18.7,101.3,19.3,103.1,20.5,104.8z"/>
	<polygon class="st2" points="100,36.9 100,36.9 100,36.9 	"/>
	<path class="st5" d="M78.3,113c5.1-6.4,7-15.3,2.3-22.5c-1.5-2.5-3.4-4.6-5.8-6.2c-1.9-1.2-3.8-2.7-6.2-3.1c-1.5-0.3-2.9-1-4.4-1.5
		c-1.3,0.6-2.6,1.3-4,1.8c-0.3,0.1-0.5,0.3-0.5,0.5c0,0.2,0,0.5,0,0.7c0.7,0.3,1.4,0.9,2,1.8c0.6,0.8,1,1.9,1.2,2.8
		c4.8,1,11.7,5.6,11.2,11.2c-0.3,1.6-0.7,3.5-2.4,4.5c0,0.2,0,0.3-0.1,0.5c-0.1,0.1-0.2,0.3-0.3,0.4c-0.1,0.1-0.2,0.2-0.3,0.3
		c-0.1,0.1-0.1,0.1-0.2,0.2c-0.1,0.1-0.1,0.1-0.1,0.2c-0.7,1.4-1.6,2.6-3.1,3.3c0,0,0,0,0,0c0,0.2,0,0.4-0.1,0.5
		c-0.1,0.1-0.2,0.2-0.5,0.2c-0.2,0.2-0.3,0.3-0.5,0.5c0,0.3-0.1,0.4-0.3,0.5c-0.1,0-0.1,0-0.2,0c-0.1,0.1-0.2,0.2-0.3,0.3
		c0,0.4-0.2,0.5-0.5,0.5c-0.1,0-0.2,0-0.3,0c-0.1,0.1-0.2,0.2-0.3,0.3c0,0.4-0.1,0.6-0.4,0.7c-0.1,0-0.2,0-0.3,0
		c-0.4,0.8-1.1,1.2-2,1.1c-0.1,0.1-0.2,0.2-0.2,0.2c0,0.5-0.4,0.6-0.8,0.5c-0.2,0.1-0.3,0.3-0.5,0.4c-0.1,0.1-0.2,0.2-0.3,0.3
		c0,0.1,0,0.2-0.1,0.3c-0.1,0.2-0.4,0.2-0.7,0.2c0,0.1,0,0.2,0,0.2c-0.1,0.2-0.2,0.3-0.5,0.3c-0.2,0.1-0.3,0.2-0.5,0.3
		c-0.1,0.1-0.2,0.1-0.2,0.2c0,0,0,0,0,0c0,0,0,0,0,0c-0.1,0.1-0.1,0.1-0.2,0.2c-0.4,0.3-0.7,0.6-1.1,0.8c-0.1,0.1-0.1,0.1-0.2,0.2
		c-0.3,0.2-0.5,0.4-0.8,0.7c0,0.1-0.1,0.1-0.1,0.1c-0.4,0.3-0.8,0.5-1.2,0.8c-0.1,0.1-0.2,0.1-0.2,0.2l0,0c-0.1,0.1-0.1,0.1-0.2,0.2
		c-0.1,0-0.2,0-0.3,0c0,0.1,0,0.1,0,0.2c0,0.1,0,0.2,0,0.2c-0.1,0.1-0.2,0.2-0.3,0.2c-0.1,0-0.1,0-0.2,0c0,0,0,0-0.1,0h2.1
		c7.5-4.8,14.2-13.2,22.3-16.2c0.6,0.4,0.8,0.9,0.8,1.6c-0.5,5.8-4.5,10.6-8.3,14.6h2.3C74.5,117.6,76.6,115.5,78.3,113z"/>
	<path class="st6" d="M103.6,43.1c0.1,2.6-1,4.9-1.4,7.3c-0.2,1-0.3,2-0.8,2.9c-3.6,7.4-11.2,11.8-18.2,15.6
		C70,76.3,55.6,81.4,43.4,90.2c-6.5,3.9-17.1,12.2-10.5,20.4c0.8,1.2,2.2,1.8,2.7,3.2c0.2,0.7,1,0.8,1.7,0.9c1.8,0.5,3.2-1,5.1-0.5
		c1.2,0.2,2,1,2.6,2.2c0.5,1,1.2,2,1.6,3.1c0,0.1,0.4,0.1,0.6,0.2c0-1.8,0.2-3.7-0.1-5.5c0,0.3-0.1,0.7-0.1,1.1c0,0.1,0,0.3,0,0.5
		c-4.1-3.4-8.1-6.9-10.5-11.6c-2.9-6.6,5.5-11.7,10.1-14.7c1.1-1,2.3-1.7,3.6-2.4c0.4-0.2,0.8-0.5,1.3-0.7c0.8-0.5,1.6-1,2.5-1.3
		c0.2-0.2,0.4-0.4,0.6-0.5c1.6-0.9,3.2-1.7,5-2.7c0,1.2,0,2.1,0,3.2c0.1-0.3,0.1-0.5,0.2-0.8c0-0.5,0-1,0-1.5c0-0.2,0-0.5,0-0.7
		c0.1-0.3,0.2-0.4,0.5-0.5c1.4-0.6,2.7-1.2,4-1.8c0.9-0.5,1.8-1.2,2.8-1.5c0.3-0.2,0.7-0.3,1.1-0.3c0.2-0.5,0.7-0.5,1-0.7
		c13.5-7.4,45.7-16.3,34.3-37.1C103.2,41.1,103.5,42.1,103.6,43.1z"/>
	<path class="st4" d="M78,115.5c12.8-12,5.5-29.4-9-35.9c-0.7-0.5-1.8-0.4-2.1-1.4c0,0,0,0,0,0c-0.5,0.1-1,0.4-1.5,0.6
		c-0.5,0.3-0.9,0.6-1.4,0.8c1.4,0.6,2.9,1.2,4.4,1.5c2.3,0.5,4.2,1.9,6.2,3.1c2.4,1.6,4.3,3.7,5.8,6.2c6.8,10.3-0.2,22.1-8.3,29.1
		h2.4C75.9,118.4,77.1,117,78,115.5z"/>
	<path class="st4" d="M67,78.2C67,78.2,67,78.2,67,78.2c-0.5,0.1-1,0.4-1.5,0.6C66,78.5,66.5,78.3,67,78.2C67,78.2,67,78.2,67,78.2z
		"/>
	<path class="st7" d="M62.9,5.1c2.3,3.1,2.9,6.5,2.1,10.1c-0.9,4-2.8,7.6-4.3,11.4c-1.6,2.9-2.5,5.9-2.2,9.3
		c-0.3,6.2,0,12.5-1.5,18.5c-0.1,0.2-0.1,0.3-0.2,0.5c-0.5,1.1-1.1,2.3-1.1,3.6c1.6-0.6,3-1.6,4.5-2.4c-0.1-1.9,0.1-3.8,0.2-5.7
		c0.2-5.5,0.3-11.1,0.3-16.6c0.7-3.4,3.7-6.1,5.3-9.2c1-1.5,1.7-3.2,2.1-4.9c1.6-6.7-1.6-14.4-7.9-17.6C60.7,3.4,62,4,62.9,5.1z"/>
	<path class="st7" d="M55.6,58.5C55.6,58.5,55.6,58.5,55.6,58.5c0-1.3,0.6-2.4,1.1-3.6C56.2,56.1,55.6,57.2,55.6,58.5z"/>
	<path class="st6" d="M28.4,78.1c0-0.4,0.1-0.6,0.4-0.7c0.1,0,0.2-0.1,0.3-0.1c0.1-0.1,0.2-0.2,0.3-0.3c0-0.2,0-0.3,0.1-0.4
		c0.1-0.4,0.5-0.6,0.9-0.6c0.7-1.2,2.4-1.4,2.9-2.8c0,0-0.1,0-0.1,0c-0.5-0.1-1-0.1-1.5-0.1c0,0,0,0-0.1,0c-0.8,0-1.7,0.1-2.5,0.1
		c-0.8,0-1.7,0-2.5-0.2c-6.7-1.4-11.2-6.9-14.9-12.2c-0.8-1.1-1.9-2-2.2-3.5c-0.6-0.1-1.2-0.2-1.8-0.5c0,0,0,0,0,0c0,0,0,0,0,0
		c-0.9,0-1.7-0.4-2.4-0.8c-0.5-0.2-0.9-0.5-1.3-0.8c-0.9-0.5-1.3-1.6-2.4-2c0.2,0.4,0.3,0.8,0.5,1.2C7.4,65.3,17.8,72,27.9,78.1
		C28.1,78.1,28.2,78.1,28.4,78.1C28.4,78.1,28.4,78.1,28.4,78.1z"/>
	<path class="st6" d="M7.6,56.9C7.6,56.9,7.6,56.9,7.6,56.9c-0.9,0-1.7-0.4-2.4-0.8C5.9,56.5,6.7,56.8,7.6,56.9z"/>
	<path class="st6" d="M28.4,78.1c-0.2,0-0.3,0-0.5,0C28.1,78.1,28.2,78.1,28.4,78.1C28.4,78.1,28.4,78.1,28.4,78.1z"/>
	<path class="st2" d="M69.1,79.6c14.5,6.5,21.8,23.9,9,35.9c-1,1.5-2.1,2.9-3.4,4.1h2.1c6.3-5.5,10.6-13.9,9.1-22.4
		c-0.1-0.7-0.4-1.4-0.6-2.1c-0.1-0.3-0.3-0.6,0.1-0.9c-0.1-0.2-0.1-0.3-0.2-0.5c-0.3-0.1-0.3-0.3-0.3-0.6c0-0.2-0.1-0.4-0.2-0.5
		c-0.1-0.1-0.2-0.2-0.3-0.4c-0.1-0.2-0.1-0.3-0.2-0.5c-1.9-2.9-4.2-5.3-6.8-7.5c-2.9-2.5-6-4.7-9.4-6.5c-0.4,0-0.7,0.1-1.1,0.3
		C67.3,79.2,68.4,79.1,69.1,79.6z"/>
	<path class="st2" d="M67,78.2c0.3-0.2,0.7-0.3,1.1-0.3C67.7,77.8,67.3,77.9,67,78.2C67,78.2,67,78.2,67,78.2z"/>
	<path class="st6" d="M29,118.2c-3-3.1-5.6-6.6-7.2-10.7c-0.4-0.9-0.7-2-1.3-2.8c-1.2-1.7-1.8-3.5-2-5.5c-0.1-0.6-0.1-1.3-0.1-2
		c-1.6,8.7,4.2,16.7,10.2,22.3h1.9C29.9,119.2,29.5,118.7,29,118.2z"/>
	<path class="st6" d="M85.3,95.1c0.2,0.7,0.5,1.4,0.6,2.1c1.5,8.5-2.8,16.9-9.1,22.4h1c7.1-6,12.5-16.3,7.6-25.4
		C85.1,94.5,85.2,94.8,85.3,95.1z"/>
	<path class="st2" d="M84.1,39.9c-1,0.9-1.6,2.1-2,3.4c0.7-0.2,1.2-0.7,1.8-1.1C84.7,41.5,84.9,40.8,84.1,39.9z"/>
	<path class="st2" d="M99,36.4C99,36.4,99,36.4,99,36.4c-2.2-1.4-4.5-1.6-6.9-1C94.5,35.2,96.7,36,99,36.4z"/>
	<path class="st7" d="M59.9,2c-0.1-0.3-0.3-0.5-0.6-0.5C59.4,1.9,59.6,2.1,59.9,2z"/>
	<path class="st6" d="M1.2,52.7c0,0.2,0,0.5,0.3,0.6C1.5,53,1.4,52.8,1.2,52.7z"/>
	<path class="st6" d="M85.2,93.8c-0.1-0.2-0.2-0.4-0.3-0.6C84.9,93.4,84.9,93.7,85.2,93.8z"/>
	<path class="st2" d="M99.5,36.6c0.1,0.2,0.3,0.3,0.5,0.3c0,0,0,0,0,0C99.9,36.7,99.7,36.6,99.5,36.6C99.5,36.6,99.5,36.6,99.5,36.6
		C99.5,36.6,99.5,36.6,99.5,36.6z"/>
	<polygon class="st2" points="100,36.9 100,36.9 100,36.9 	"/>
	<path class="st2" d="M99,36.4c0.1,0.2,0.3,0.3,0.5,0.3c0,0,0,0,0,0c0,0,0,0,0,0C99.4,36.4,99.2,36.4,99,36.4
		C99,36.4,99,36.4,99,36.4C99,36.4,99,36.4,99,36.4z"/>
	<polygon class="st2" points="99,36.4 99,36.4 99,36.4 	"/>
	<polygon class="st2" points="99,36.4 99,36.4 99,36.4 	"/>
	<polygon class="st2" points="99.5,36.6 99.5,36.6 99.5,36.6 	"/>
	<polygon class="st2" points="99.5,36.6 99.5,36.6 99.5,36.6 	"/>
	<path class="st2" d="M20.7,88.4c0.2-0.1,0.2-0.3,0.3-0.5c0,0,0,0,0,0C20.9,88,20.8,88.2,20.7,88.4C20.7,88.4,20.7,88.4,20.7,88.4
		C20.7,88.4,20.7,88.4,20.7,88.4z"/>
	<polygon class="st2" points="20.7,88.4 20.7,88.4 20.7,88.4 	"/>
	<polygon class="st2" points="20.7,88.4 20.7,88.4 20.7,88.4 	"/>
	<path class="st2" d="M20.9,87.9c0.2-0.1,0.2-0.3,0.3-0.5c0,0,0,0,0,0C21.1,87.5,21,87.7,20.9,87.9C20.9,87.9,20.9,87.9,20.9,87.9
		C20.9,87.9,20.9,87.9,20.9,87.9z"/>
	<polygon class="st2" points="20.9,87.9 20.9,87.9 20.9,87.9 	"/>
	<polygon class="st2" points="21.2,87.3 21.2,87.3 21.2,87.3 	"/>
	<polygon class="st2" points="20.9,87.9 20.9,87.9 20.9,87.9 	"/>
	<path class="st2" d="M35.8,58.4c-0.1,0-0.2,0-0.2,0c-0.2,0-0.3-0.1-0.4-0.2c-0.1,0-0.1-0.1-0.1-0.1c-0.1-0.1-0.3-0.2-0.4-0.3
		c-1.2-1-2.4-1.8-4-1.5c-0.8,0.1-0.9,0.8-1.4,1.1c-0.5,0.3-0.7,1.2-1.3,1.1c-0.9-0.2-2,0.1-2.8-0.5c-0.6-0.4-1.2-0.5-1.9-0.5
		c-1.2,0-2.3-0.6-3.5-0.7c-0.7-0.1-1.1-0.7-1.4-1.3c-2.7,1.3-5.6,2-8.7,1.8c0.3,1.4,1.4,2.4,2.2,3.5c3.7,5.3,8.2,10.8,14.9,12.2
		c1.7,0.4,3.3,0.1,5,0.1c0,0,0,0,0.1,0c0.5,0,1,0,1.5,0.1c0,0,0.1,0,0.1,0c1.3-0.6,2.4-1.5,3.5-2.4c0.4-0.3,0.7-0.6,1.1-0.9
		c-0.1-0.2-0.2-0.4-0.4-0.5c-0.2-0.1-0.3-0.2-0.5-0.2c-0.2,0-0.4,0-0.5,0c-0.2,0-0.3,0.1-0.5,0.1c-0.6,0.2-0.8-0.1-0.9-0.3
		c-0.6-1.5-1.9-1.8-3.1-2c-0.6-0.6,0.4-1.1,0.1-1.3c-1.2-0.7,0-1.1,0.2-1.8c-0.5-0.2-1.1-0.3-1-1.1c0.1-1.2,1.8-2.6,3-2.5
		c2.2,0.1,3.7,1.5,5.5,2.4c1.3,0.6,2.4,1.5,3,2.8c0.2,0.5,0.6,0.7,1,0.3c0.3-0.2,0.6-0.4,1-0.6c0.3-0.2,0.6-0.4,0.8-0.8
		c-3.1-2-6.2-4.1-9.4-6.1C36.1,58.4,36,58.4,35.8,58.4C35.9,58.4,35.8,58.4,35.8,58.4z"/>
	<path class="st2" d="M37,69.2c-0.2,0-0.4,0-0.5,0C36.6,69.2,36.8,69.2,37,69.2z"/>
	<path class="st2" d="M37,69.2c0.2,0,0.4,0.1,0.5,0.2C37.3,69.3,37.1,69.3,37,69.2z"/>
	<path class="st2" d="M29.1,73.3c0.8,0,1.7-0.1,2.5-0.1C30.8,73.2,30,73.3,29.1,73.3z"/>
	<path class="st2" d="M33.2,73.3c-0.5-0.1-1-0.1-1.5-0.1C32.2,73.2,32.7,73.2,33.2,73.3z"/>
	<path class="st4" d="M0.3,46.6c0.3,3.9,2.2,6.8,5.6,8.7c0.3,0.2,0.7,0.3,1,0.6c0.3,0.2,0.6,0.5,0.7,1c0.6,0.3,1.2,0.5,1.8,0.5
		c3.1,0.2,5.9-0.5,8.7-1.8c0.2-0.2,0.4-0.3,0.5-0.5c0.2-0.9,0.6-1.7,1-2.6c0.4-0.8,0.9-1.6,1.1-2.5c1.7-4.4,1.7-9.1-1.4-12.9
		c-0.1,0-0.2,0-0.4-0.1c0-0.1,0.1-0.1,0.1-0.2C13.2,32.4,3.5,34.7,1,42C0.8,43.5,0.2,45.1,0.3,46.6z M2.4,40.6
		c2.1-3.5,5.3-5.5,7.9-5.4c5.5,0.1,8.2,2,9.8,5.5c1.2,2.6,0,8.3-2.3,10.1c-2.5,1.9-5,3.1-8.1,3c-4.2-0.1-8.3-3.7-8.7-8
		C0.8,44,1.5,42.1,2.4,40.6z"/>
	<path class="st6" d="M23,42.4c0.8,2,0.2,4.2,0.7,6.2c-0.2,2.6-2.8,5.2-5,6.4c0,0,0,0,0,0c-0.2,0.2-0.4,0.3-0.5,0.5
		c0.3,0.6,0.7,1.2,1.4,1.3c1.2,0.1,2.3,0.8,3.5,0.7c0.7,0,1.3,0,1.9,0.5c0.8,0.6,1.9,0.3,2.8,0.5c0.6,0.1,0.8-0.8,1.3-1.1
		c0.5-0.3,0.7-1,1.4-1.1c1.7-0.3,2.9,0.5,4,1.5c0.1,0.1,0.3,0.2,0.4,0.3c0,0,0.1,0.1,0.1,0.1c0.1,0.1,0.3,0.1,0.4,0.2
		c0.1,0,0.2,0,0.2,0c0,0,0,0,0,0c0.1,0,0.2,0,0.3,0c-2.7-2.2-5.4-4.4-7.8-7c-1.9-2.2-3.7-4.4-4.2-7.4c-0.1-0.8-0.4-1.6-0.9-2.2
		C23,41.9,22.9,42.2,23,42.4z"/>
	<path class="st6" d="M35.2,58.2c0.1,0.1,0.3,0.1,0.4,0.2C35.4,58.3,35.3,58.2,35.2,58.2z"/>
	<path class="st6" d="M34.6,57.8c0.1,0.1,0.3,0.2,0.4,0.3C34.9,58,34.7,57.9,34.6,57.8z"/>
	<path class="st6" d="M35.9,58.4C35.9,58.4,35.8,58.4,35.9,58.4C35.8,58.4,35.9,58.4,35.9,58.4z"/>
	<path class="st6" d="M18.7,55.1C18.7,55.1,18.7,55.1,18.7,55.1c-0.2,0.2-0.4,0.3-0.5,0.5C18.3,55.4,18.5,55.3,18.7,55.1
		C18.7,55.1,18.7,55.1,18.7,55.1z"/>
	<path class="st7" d="M47.6,60.2c-1.5-8.9-1.1-18-1.3-27c-1.3-6.9-7.8-12.4-7.4-19.6c0.1-0.4,0.1-0.7,0-1.1c-0.1-0.3-0.2-0.7-0.4-1
		c-2.9,7.5,2.4,14.3,6.4,20.2c0.4,0.6,0.6,1.2,0.6,1.9c0.2,8.1,0.3,16.3,0.5,24.4c0.3,1.2,0.2,2.5,0.1,3.7c0,0.8,0.1,1.7,0.1,2.5
		c1-0.7,2.1-1.3,3.1-2C47.8,62.2,47.8,61.1,47.6,60.2z"/>
	<path class="st2" d="M19.4,37.1c3.1,3.8,3.1,8.4,1.4,12.9c-0.3,0.9-0.7,1.7-1.1,2.5c-0.4,0.8-0.8,1.7-1,2.6c2.3-1.3,4.9-3.8,5-6.4
		c-0.4-2.1,0.1-4.2-0.7-6.2c-0.1-0.2,0-0.5,0.2-0.7C22.3,39.9,21.4,38.1,19.4,37.1L19.4,37.1C19.4,37.1,19.4,37.1,19.4,37.1z"/>
	<path class="st2" d="M19.7,52.5c-0.4,0.8-0.8,1.7-1,2.6c0,0,0,0,0,0C18.9,54.2,19.3,53.3,19.7,52.5z"/>
	<polygon class="st2" points="19.4,37.1 19.4,37.1 19.4,37.1 	"/>
	<path class="st4" d="M45.8,58.1c-0.1,1.2-0.2,2.5,0.1,3.7C46,60.5,46.1,59.3,45.8,58.1z"/>
	<path class="st2" d="M19.4,37.1C19.4,37.1,19.4,37.1,19.4,37.1c-0.1-0.1-0.2-0.2-0.2-0.3c0,0.1-0.1,0.1-0.1,0.2
		C19.2,37.1,19.3,37.1,19.4,37.1z"/>
	<polygon class="st2" points="19.4,37.1 19.4,37.1 19.4,37.1 	"/>
	<path class="st8" d="M46.6,16.5c1.4,3.3,3,5.9,2.5,9.6c1.6,7.5,0.5,15.4,1.3,23c-0.4,2,0.1,4,0.2,5.9c-0.7,1.5,1.7,4.7,3,2.5
		c0.8-2.6,1.3-5.2,1.3-7.9c0.1-6,0.5-11.9,0.3-17.9c0-0.3,0.1-0.6,0.1-0.9c1.5-3.7-2.4-8.6,1-11.1c0.1,0,0.1-0.2,0.2-0.3
		c2-2.8,2.7-5.7,0.7-8.9c-0.3-0.4-0.4-0.9-0.5-1.4c-0.4-6.8-11.7-5.8-12.7,0.4c-0.5,1.6-0.5,3.6,1.1,5C45.8,15,46.2,15.8,46.6,16.5z
		"/>
	<path class="st7" d="M55.5,58.4c-0.1,0.1-0.2,0.2-0.3,0.4C55.4,58.7,55.5,58.7,55.5,58.4L55.5,58.4L55.5,58.4z"/>
	<path class="st7" d="M55.2,58.8C55.2,58.8,55.2,58.8,55.2,58.8c0.1-0.1,0.2-0.2,0.3-0.4C55.4,58.6,55.3,58.7,55.2,58.8z"/>
	<polygon class="st7" points="55.5,58.5 55.5,58.5 55.5,58.5 	"/>
	<path class="st7" d="M55.5,58.5C55.5,58.5,55.5,58.5,55.5,58.5L55.5,58.5C55.5,58.5,55.5,58.5,55.5,58.5z"/>
	<path class="st3" d="M40.3,69.5c-5.1,4.2-11.2,8.3-13.3,14.8c-0.7,13.3,77.3-30,60.9-38.5c-2.2-0.2-4.3,0.4-6.3,1.3
		c-4.9,2.2-9.9,4.4-14.7,6.8c-0.4,0.2-0.8,0.4-1.2,0.3c0,0,0,0,0,0c-0.7,0.9-1.9,1-2.8,1.5c-0.6,0.3-1.2,0.5-1.8,0.8
		c0,0.7-0.6,0.7-1.1,0.9c-0.9,0.5-1.9,0.9-2.8,1.4c-0.5,0.2-1,0.4-1.5,0.5c0,0.3-0.2,0.5-0.5,0.5c-1.8,0.9-3.6,1.9-5.3,3
		c-1.7,1.1-3.4,2.2-5.2,3.1c-0.1,0.8-0.7,0.7-1.3,0.8c0,0,0,0,0,0C42.8,68.2,41.4,68.7,40.3,69.5z"/>
	<path class="st5" d="M36.8,70.8c-1.1,0.9-2.2,1.8-3.5,2.4c0,0,0,0,0,0l0,0c-0.4,1.4-2.2,1.6-2.9,2.8c-0.1,0.6-0.4,0.9-1,1l0,0
		c-0.1,0.1-0.2,0.2-0.3,0.3c0,0.5-0.3,0.7-0.8,0.8c0,0,0,0,0,0l0,0c0,0,0,0,0,0c-0.1,0.7-0.5,1.1-1,1.6c-3.3,2.7-9.2,14.4-1.5,14
		c12.8-5.6,24.9-13,37.5-19.1c9.9-5.6,20.5-10.9,28.4-19.3c2.3-2.6,4.3-5.5,5-9c0.2-1.2,0.1-2.2-0.6-3.2c-0.4,0-0.3,0.6-0.7,0.5
		c-1-2.4-1.2-2.7-3.2-3c-9.1,2.3-17.1,9.1-25.8,12.8c-0.4,0.2-0.7,0.4-0.9,0.9c0.5,0.1,0.8-0.1,1.2-0.3c4.8-2.4,9.8-4.6,14.7-6.8
		c2-0.9,4.1-1.5,6.3-1.3c16.4,8.5-61.4,51.7-60.9,38.5c2.1-6.6,8.2-10.7,13.3-14.8c1.1-0.8,2.5-1.3,3.1-2.7c-0.6-0.1-1,0.4-1.5,0.6
		c-1.4,0.8-2.8,1.6-4.1,2.5c0,0,0,0,0,0l0,0C37.5,70.2,37.1,70.5,36.8,70.8z"/>
	<path class="st5" d="M42,67.5c-1.4,0.8-2.8,1.6-4.1,2.5c0,0,0,0,0,0C39.2,69.1,40.6,68.3,42,67.5z"/>
	<path class="st5" d="M29.4,77.1L29.4,77.1c-0.1,0.1-0.2,0.2-0.3,0.3C29.2,77.3,29.3,77.2,29.4,77.1L29.4,77.1z"/>
	<polygon class="st5" points="28.4,78.1 28.4,78.1 28.4,78.1 28.4,78.1 28.4,78.1 28.4,78.1 	"/>
	<path class="st5" d="M36.8,70.8c-1.1,0.9-2.2,1.8-3.5,2.4c0,0,0,0,0,0C34.6,72.6,35.7,71.7,36.8,70.8z"/>
	<path class="st5" d="M57.3,58.9c0.9-0.5,1.9-0.9,2.8-1.4c0.4-0.2,1-0.2,1.1-0.9c-0.8,0.2-1.5,0.6-2.2,1c-0.2,0.1-0.3,0.2-0.5,0.2
		C57.9,58,57.4,58.2,57.3,58.9z"/>
	<path class="st5" d="M62.9,55.8c0.9-0.5,2.1-0.6,2.8-1.5c-0.4,0.1-0.8,0.1-1.2,0.3C63.8,54.8,63.3,55.1,62.9,55.8z"/>
	<path class="st5" d="M43.5,66.9c0.6,0,1.1,0,1.3-0.8C44.2,66.2,43.7,66.3,43.5,66.9z"/>
	<path class="st5" d="M55.2,59.9c0.4,0,0.5-0.2,0.5-0.5c-0.1,0-0.2,0-0.2,0C55.3,59.5,55.2,59.7,55.2,59.9z"/>
	<path class="st7" d="M48.6,118.4c-0.5-4.5,0.4-9-0.3-13.5c-0.1-0.4-0.1-0.8,0-1.1c0.7-5.1-0.8-11,2.7-15.4c0.4-0.6,0.4-1.3,0.4-2
		c-0.4,0.2-0.8,0.5-1.3,0.7c-1.3,0.7-2.5,1.4-3.6,2.4c0.2,8.2,0.4,16.5,0.6,24.7c0,0,0,0,0,0c0.2,0.9,0.2,1.8,0.2,2.7
		c0,0.5,0,0.9,0,1.4c0,0.5,0,0.9,0,1.4h1.6C48.7,119.3,48.6,118.9,48.6,118.4z"/>
	<path class="st7" d="M47.1,114.2C47.1,114.2,47.1,114.2,47.1,114.2c0.2,0.9,0.2,1.8,0.2,2.7C47.3,116,47.3,115.1,47.1,114.2z"/>
	<path class="st3" d="M76.2,111.4c1.2-2,1.9-4.1,2-6.4c0-0.7-0.2-1.3-0.8-1.6c-8.1,3-14.7,11.4-22.3,16.2h14.7
		C72.5,117.2,74.4,114.4,76.2,111.4z"/>
	<path class="st1" d="M53.4,119.1c0.1-0.1,0.2-0.1,0.3-0.2c0.6-2.1,1.3-4.1,1.9-6.2c0.1-0.3,0.1-0.6,0.2-0.9
		c0.2-2.6,0.4-5.2,0.6-7.8c-0.3-4.8,1.3-10-0.5-14.7c-0.6-1.1-0.9-2.4-1.3-3.6c-0.2-0.5-0.4-0.7-0.9-0.8c-0.9,0.3-1.7,0.8-2.5,1.3
		c0,0.7,0,1.4-0.4,2c-3.5,4.4-2,10.3-2.7,15.4c-0.1,0.3-0.1,0.8,0,1.1c0.7,4.5-0.2,9,0.3,13.5c0,0.5,0.1,0.9,0.2,1.3h4.2
		c0,0,0,0,0.1,0c0-0.1,0-0.2,0.1-0.3C53.3,119.2,53.3,119.1,53.4,119.1z M52.9,114.5c-1.1-0.6-0.7-1.7-0.7-2.5
		c-0.2-4.2-0.3-8.4-0.3-12.7c0-2.5-0.2-5,0.5-7.4c0.1-0.4,0.1-0.8,0.6-0.9c1.3,0.1,1.5,2.3,1.3,3.4c0,4.2-0.2,8.4-0.3,12.6
		c0,2.2-0.3,4.4-0.5,6.7C53.4,114,53.4,114.3,52.9,114.5z"/>
	<polygon class="st3" points="60.1,114 60.1,114 60.1,114 60.1,114 	"/>
	<polygon class="st3" points="61.6,112.7 61.6,112.7 61.6,112.7 	"/>
	<path class="st3" d="M60.1,114L60.1,114c0.1-0.1,0.2-0.2,0.3-0.3c0.2-0.1,0.3-0.3,0.5-0.4c-0.2,0.1-0.3,0.3-0.5,0.4
		C60.3,113.8,60.2,113.9,60.1,114z"/>
	<polygon class="st3" points="60.1,114 60.1,114 60.1,114 60.1,114 	"/>
	<path class="st7" d="M54.7,85.8c0.4,1.2,0.7,2.4,1.3,3.6c1.8,4.7,0.2,9.8,0.5,14.7c-0.2,2.6-0.5,5.2-0.6,7.8c0,0.3-0.1,0.6-0.2,0.9
		c-0.7,2.1-1.3,4.1-1.9,6.2c0,0,0,0,0,0c0,0,0,0,0,0c0,0,0,0,0,0c0,0,0,0,0,0c0.1,0,0.2,0,0.3,0c0.1-0.1,0.1-0.1,0.2-0.2
		c0,0,0,0,0,0c0-0.2,0-0.2,0.2-0.2c0.4-0.3,0.8-0.5,1.2-0.8l0-0.1c0,0,0.1,0,0.1,0c0.3-0.2,0.5-0.4,0.8-0.7c0.1-0.1,0.1-0.1,0.2-0.2
		c0.4-0.3,0.7-0.6,1.1-0.8c0.1-0.1,0.1-0.1,0.2-0.2c0,0,0,0,0,0c0,0,0,0,0,0c0-0.2,0.1-0.2,0.2-0.2c0.2-0.1,0.3-0.2,0.5-0.3
		c0-0.2,0-0.4,0-0.6c0,0,0,0,0,0l0,0c0-0.2,0-0.5,0-0.7c0.2-6.5,0.3-13,0.5-19.5c0-1.5,0-3,0-4.4c0-1.6,0-3.2,0-4.8c0-1.1,0-2,0-3.2
		c-1.8,1-3.4,1.8-5,2.7c-0.2,0.1-0.4,0.3-0.6,0.5C54.3,85.1,54.6,85.3,54.7,85.8z"/>
	<polygon class="st7" points="53.7,118.9 53.7,118.9 53.7,118.9 53.7,118.9 	"/>
	<path class="st7" d="M53.8,118.9C53.8,118.9,53.8,118.9,53.8,118.9C53.8,118.9,53.8,118.9,53.8,118.9
		C53.8,118.9,53.8,118.9,53.8,118.9C53.8,118.9,53.8,118.9,53.8,118.9z"/>
	<path class="st7" d="M53.8,118.9C53.8,118.9,53.7,118.9,53.8,118.9L53.8,118.9C53.8,118.9,53.8,118.9,53.8,118.9z"/>
	<path class="st7" d="M53.7,118.9c0.6-2.1,1.3-4.1,1.9-6.2C55,114.8,54.4,116.8,53.7,118.9C53.7,118.9,53.7,118.9,53.7,118.9z"/>
	<path class="st7" d="M58.8,114.5L58.8,114.5c0-0.2,0-0.5,0-0.7C58.9,114,58.9,114.2,58.8,114.5z"/>
	<path class="st2" d="M59.4,89.9c0.7,0,1.2,0.2,1.5,0.9c0.4,0.9,1.3,1.4,2,2.1c1.5,1.4,3,2.9,5.3,2.9c0.4,0,0.9,0.1,0.9,0.3
		c0.4,2,2.4,3.4,1.8,5.7c-0.1,0.5-0.4,0.6-0.8,0.6c0,0.7-0.3,1.4-0.5,2c0.3,0,0.7,0,1,0c0-0.1,0.1-0.1,0.1-0.2
		c0.1-0.1,0.1-0.1,0.2-0.2c0.1-0.1,0.2-0.2,0.3-0.3c0.1-0.1,0.2-0.2,0.3-0.4c0.1-0.1,0.1-0.3,0.1-0.5c0-0.2,0-0.4,0.1-0.6
		c0.2-0.6,0.5-1.2,0.7-1.8c1.3-2.7-0.8-7-4.1-6.8c-0.1,0.4-0.2,0.6-0.7,0.3c0-0.5,0.4-0.3,0.6-0.4c0-0.4-0.1-0.6-0.6-0.8
		c-1.3-0.4-2.6-0.8-3.6-1.6c-0.6-0.5-1.3-1.3-1.6-2.1c-0.7-1.7-1.5-3.3-2.5-4.8c-0.1-0.1-0.2-0.1-0.3-0.2c-0.1,0.3-0.1,0.5-0.2,0.8
		c0,0,0,0,0,0c0,0,0,0,0,0C59.4,86.7,59.4,88.3,59.4,89.9z"/>
	<path class="st2" d="M71.2,103.8c-0.1,0.1-0.2,0.2-0.3,0.3C71,104,71.1,103.9,71.2,103.8z"/>
	<path class="st2" d="M70.6,104.5c0-0.1,0.1-0.1,0.1-0.2C70.7,104.4,70.6,104.4,70.6,104.5L70.6,104.5z"/>
	<path class="st2" d="M59.6,84.3C59.6,84.3,59.6,84.3,59.6,84.3c-0.1,0.3-0.1,0.5-0.2,0.8c0,0,0,0,0,0
		C59.5,84.8,59.6,84.5,59.6,84.3z"/>
	<path class="st4" d="M59.6,84.3c0.1,0.1,0.3,0.1,0.3,0.2c1,1.5,1.8,3.1,2.5,4.8c0.3,0.8,1,1.6,1.6,2.1c1,0.8,2.4,1.2,3.6,1.6
		c0.5,0.2,0.6,0.4,0.6,0.8l0,0c3.3-0.2,5.4,4.1,4.1,6.8c-0.2,0.6-0.5,1.2-0.7,1.8c-0.1,0.2-0.1,0.4-0.1,0.6c1.7-1,2.1-2.9,2.4-4.5
		c0.5-5.6-6.4-10.2-11.2-11.2c-0.2-1-0.6-2-1.2-2.8c-0.6-0.8-1.3-1.5-2-1.8C59.6,83.2,59.6,83.7,59.6,84.3
		C59.6,84.3,59.6,84.3,59.6,84.3z"/>
	<path class="st4" d="M59.6,84.3c0-0.5,0-1,0-1.5C59.6,83.2,59.6,83.7,59.6,84.3C59.6,84.3,59.6,84.3,59.6,84.3
		C59.6,84.3,59.6,84.3,59.6,84.3z"/>
	<path class="st4" d="M68.7,105.8c-0.3,0.4-1,0.6-0.9,1.3c-0.1,0.3-0.2,0.5-0.3,0.8c1.5-0.7,2.4-1.9,3.1-3.3l0,0c-0.3,0-0.7,0-1,0
		C69.5,105.1,69,105.4,68.7,105.8z"/>
	<path class="st4" d="M70.6,104.5c-0.7,1.4-1.6,2.6-3.1,3.3c0,0,0,0,0,0C69,107.1,69.9,105.9,70.6,104.5L70.6,104.5L70.6,104.5z"/>
	<path class="st2" d="M67.5,107.8C67.5,107.8,67.5,107.8,67.5,107.8L67.5,107.8C67.5,107.8,67.5,107.8,67.5,107.8
		c0.1-0.3,0.2-0.5,0.3-0.8c-1.2,0.6-2.1,1.6-2.9,2.6c-0.3,0.3-0.6,0.7-0.9,1l0,0c0.2,0,0.5,0,0.7,0c0,0,0,0,0,0
		c0.1-0.1,0.2-0.2,0.3-0.3c0.1-0.3,0.4-0.5,0.7-0.5c0,0,0,0,0,0c0.1-0.1,0.2-0.2,0.3-0.3c0-0.3,0.2-0.5,0.5-0.5c0,0,0,0,0,0
		c0.2-0.2,0.3-0.3,0.5-0.5C67,108.2,67.2,108,67.5,107.8z"/>
	<polygon class="st2" points="67.5,107.8 67.5,107.8 67.5,107.8 67.5,107.8 67.5,107.8 67.5,107.8 	"/>
	<path class="st2" d="M65.7,109.9C65.7,109.9,65.7,109.9,65.7,109.9c0.1-0.1,0.2-0.2,0.3-0.3C65.9,109.7,65.8,109.8,65.7,109.9
		C65.7,109.9,65.7,109.9,65.7,109.9z"/>
	<path class="st2" d="M66.5,109.1C66.5,109.1,66.5,109.1,66.5,109.1c0.2-0.2,0.3-0.3,0.5-0.5C66.8,108.8,66.6,108.9,66.5,109.1
		C66.5,109.1,66.5,109.1,66.5,109.1z"/>
	<path class="st2" d="M64.7,110.7C64.7,110.7,64.7,110.7,64.7,110.7c0.1-0.1,0.2-0.2,0.3-0.3C64.9,110.5,64.8,110.6,64.7,110.7
		C64.7,110.7,64.7,110.7,64.7,110.7z"/>
	<path class="st2" d="M63.9,110.7c0.3-0.3,0.6-0.6,0.9-1C64.5,110,64.2,110.4,63.9,110.7L63.9,110.7z"/>
	<path class="st2" d="M63.9,110.7c-0.9,0.4-1.5,1.1-2.1,1.8l0,0c0,0,0,0,0,0c0.9,0.1,1.6-0.2,2-1.1
		C63.9,111.2,63.9,110.9,63.9,110.7C63.9,110.7,63.9,110.7,63.9,110.7z"/>
	<path class="st2" d="M61.9,112.5C61.9,112.4,61.9,112.4,61.9,112.5L61.9,112.5C61.9,112.5,61.9,112.5,61.9,112.5L61.9,112.5z"/>
	<path class="st2" d="M61.9,112.4C61.9,112.4,61.9,112.5,61.9,112.4C61.9,112.5,61.9,112.5,61.9,112.4
		C61.9,112.5,61.9,112.5,61.9,112.4z"/>
	<path class="st4" d="M64.7,110.7c-0.2,0-0.5,0-0.7,0c0,0.2,0,0.5,0,0.7c0.1,0,0.2,0,0.3,0C64.5,111.3,64.7,111,64.7,110.7z"/>
	<path class="st4" d="M64.2,111.4c0.3-0.1,0.4-0.3,0.4-0.7c0,0,0,0,0,0C64.7,111,64.5,111.3,64.2,111.4z"/>
	<path class="st4" d="M67,108.6c0.3,0,0.4-0.1,0.5-0.2c0.1-0.1,0.1-0.3,0.1-0.5C67.2,108,67,108.2,67,108.6z"/>
	<path class="st4" d="M67.5,108.4c0.1-0.1,0.1-0.3,0.1-0.5c0,0,0,0,0,0C67.5,108,67.5,108.2,67.5,108.4z"/>
	<path class="st4" d="M65.7,109.9c-0.4,0-0.6,0.2-0.7,0.5c0.1,0,0.2,0,0.3,0C65.5,110.4,65.7,110.3,65.7,109.9z"/>
	<path class="st4" d="M65.2,110.4c0.3,0,0.5-0.1,0.5-0.5c0,0,0,0,0,0C65.7,110.3,65.5,110.4,65.2,110.4z"/>
	<path class="st2" d="M60.1,114C60.1,114,60.1,114,60.1,114c-0.4,0-0.6,0.2-0.8,0.5c0,0,0,0,0,0l0,0v0l0,0c0,0,0,0,0,0
		c0.3,0,0.6,0,0.7-0.2C60.1,114.2,60.1,114.1,60.1,114C60.1,114,60.1,114,60.1,114z"/>
	<polygon class="st2" points="59.3,114.5 59.3,114.5 59.3,114.5 	"/>
	<polygon class="st2" points="59.3,114.5 59.3,114.5 59.3,114.5 	"/>
	<polygon class="st2" points="59.3,114.5 59.3,114.5 59.3,114.5 59.3,114.5 	"/>
	<path class="st2" d="M60.1,114L60.1,114C60.1,114,60.1,114,60.1,114C60.1,114,60.1,114,60.1,114z"/>
	<polygon class="st2" points="60.1,114 60.1,114 60.1,114 	"/>
	<rect x="59.3" y="114.5" class="st2" width="0" height="0"/>
	<path class="st2" d="M60.1,114C60.1,114,60.1,114,60.1,114L60.1,114C60.1,114,60.1,114,60.1,114z"/>
	<rect x="61.6" y="112.7" class="st2" width="0" height="0"/>
	<path class="st2" d="M61.6,112.7L61.6,112.7c-0.4,0-0.6,0.2-0.8,0.5C61.2,113.3,61.6,113.2,61.6,112.7
		C61.6,112.7,61.6,112.7,61.6,112.7z"/>
	<polygon class="st2" points="61.6,112.7 61.6,112.7 61.6,112.7 	"/>
	<polygon class="st2" points="61.6,112.7 61.6,112.7 61.6,112.7 	"/>
	<polygon class="st2" points="61.6,112.7 61.6,112.7 61.6,112.7 	"/>
	<path class="st2" d="M61.5,113c0-0.1,0.1-0.2,0.1-0.3h0C61.6,112.8,61.6,112.9,61.5,113z"/>
	<polygon class="st2" points="61.6,112.7 61.6,112.7 61.6,112.7 61.6,112.7 	"/>
	<polygon class="st2" points="61.6,112.7 61.6,112.7 61.6,112.7 	"/>
	<path class="st2" d="M53.4,119.1c-0.1,0-0.2,0.1-0.2,0.2c0,0.1-0.1,0.2-0.1,0.3c0.1,0,0.2,0,0.2,0c0.1,0,0.2-0.1,0.3-0.2
		c0-0.1,0-0.1,0-0.2C53.6,119.1,53.5,119.1,53.4,119.1z"/>
	<path class="st4" d="M66.5,109.1c-0.3,0-0.5,0.2-0.5,0.5c0.1,0,0.2,0,0.2,0C66.4,109.5,66.5,109.4,66.5,109.1z"/>
	<path class="st4" d="M66.2,109.6c0.2-0.1,0.3-0.2,0.3-0.5c0,0,0,0,0,0C66.5,109.4,66.4,109.5,66.2,109.6z"/>
	<path class="st2" d="M59.3,114.5C59.3,114.5,59.3,114.5,59.3,114.5c-0.2,0-0.3,0-0.5,0c0,0.2,0,0.4,0,0.6c0.3,0,0.4-0.1,0.5-0.3
		C59.3,114.7,59.3,114.6,59.3,114.5C59.3,114.5,59.3,114.5,59.3,114.5z"/>
	<path class="st2" d="M59.3,114.7c0-0.1,0-0.1,0-0.2l0,0C59.3,114.6,59.3,114.7,59.3,114.7z"/>
	<path class="st2" d="M59.3,114.5C59.3,114.5,59.3,114.5,59.3,114.5L59.3,114.5C59.3,114.5,59.3,114.5,59.3,114.5L59.3,114.5z"/>
	<path class="st2" d="M59.3,114.5C59.3,114.5,59.3,114.5,59.3,114.5C59.3,114.5,59.3,114.5,59.3,114.5
		C59.3,114.5,59.3,114.5,59.3,114.5z"/>
	<polygon class="st2" points="59.3,114.5 59.3,114.5 59.3,114.5 	"/>
	<path class="st2" d="M59.3,114.5C59.3,114.5,59.3,114.5,59.3,114.5L59.3,114.5C59.3,114.5,59.3,114.5,59.3,114.5z"/>
	<polygon class="st2" points="59.3,114.5 59.3,114.5 59.3,114.5 59.3,114.5 	"/>
	<path class="st7" d="M53.7,118.9C53.7,118.9,53.7,118.9,53.7,118.9C53.7,118.9,53.7,118.9,53.7,118.9
		C53.7,118.9,53.7,118.9,53.7,118.9c-0.1,0-0.2,0.1-0.3,0.2c0.1,0,0.2,0,0.3,0.1C53.7,119.1,53.7,119,53.7,118.9
		C53.7,118.9,53.7,118.9,53.7,118.9L53.7,118.9z"/>
	<polygon class="st7" points="53.7,118.9 53.7,118.9 53.7,118.9 	"/>
	<path class="st7" d="M53.8,118.9C53.8,118.9,53.8,118.9,53.8,118.9C53.8,118.9,53.8,118.9,53.8,118.9
		C53.8,118.9,53.8,118.9,53.8,118.9z"/>
	<path class="st7" d="M53.7,118.9C53.7,118.9,53.7,118.9,53.7,118.9C53.7,118.9,53.7,118.9,53.7,118.9
		C53.7,118.9,53.7,118.9,53.7,118.9L53.7,118.9z"/>
	<polygon class="st7" points="53.7,118.9 53.7,118.9 53.7,118.9 	"/>
	<path class="st7" d="M53.7,118.9C53.7,118.9,53.7,118.9,53.7,118.9C53.8,118.9,53.8,118.9,53.7,118.9
		C53.8,118.9,53.8,118.9,53.7,118.9C53.7,118.9,53.7,118.9,53.7,118.9z"/>
	<path class="st7" d="M53.7,118.9C53.7,118.9,53.7,118.9,53.7,118.9C53.8,118.9,53.8,118.9,53.7,118.9
		C53.8,118.9,53.8,118.9,53.7,118.9C53.7,118.9,53.7,118.9,53.7,118.9z"/>
	<path class="st7" d="M53.7,118.9C53.7,118.9,53.7,118.9,53.7,118.9C53.7,118.9,53.7,118.9,53.7,118.9
		C53.7,118.9,53.7,118.9,53.7,118.9C53.7,118.9,53.7,118.9,53.7,118.9z"/>
	<path class="st2" d="M54.3,118.6c0.1-0.1,0.2-0.1,0.2-0.2C54.3,118.4,54.2,118.5,54.3,118.6z"/>
	<path class="st2" d="M58.1,115.6c0.1-0.1,0.2-0.1,0.2-0.2C58.2,115.3,58.1,115.4,58.1,115.6z"/>
	<path class="st2" d="M55.7,117.5l0,0.1c0.1,0,0.1,0,0.1-0.1C55.8,117.5,55.7,117.5,55.7,117.5z"/>
	<path class="st3" d="M47,115.3c0-0.4,0.1-0.8,0.1-1.1c0,0,0,0,0,0C47.1,114.5,47.1,114.9,47,115.3z"/>
	<path class="st4" d="M30.4,76.1c-0.5,0-0.8,0.2-0.9,0.6c0,0.1-0.1,0.3-0.1,0.4C30,77,30.3,76.7,30.4,76.1z"/>
	<path class="st4" d="M29.5,76.7c0,0.1-0.1,0.3-0.1,0.4h0C29.4,77,29.5,76.8,29.5,76.7z"/>
	<path class="st4" d="M28.4,78.1c0.5,0,0.7-0.3,0.8-0.8c-0.1,0-0.2,0-0.3,0.1C28.5,77.5,28.4,77.8,28.4,78.1z"/>
	<path class="st4" d="M28.8,77.4c-0.3,0.1-0.4,0.3-0.4,0.7c0,0,0,0,0,0C28.4,77.8,28.5,77.5,28.8,77.4z"/>
	<path class="st5" d="M9.8,53.8c3.1,0.1,5.6-1.1,8.1-3c2.3-1.8,3.5-7.5,2.3-10.1c-1.6-3.5-4.3-5.4-9.8-5.5c-2.7-0.2-5.8,1.9-7.9,5.4
		C1.5,42.1,0.8,44,1,45.8C1.4,50.1,5.5,53.7,9.8,53.8z M11.3,36.4c3.7,0,7.5,3,7.1,6.9C16.2,65-10.5,40.3,11.3,36.4z"/>
	<path class="st8" d="M53.9,107c0.2-4.2,0.3-8.4,0.3-12.6c0.2-1.1,0-3.3-1.3-3.4c-0.5,0.1-0.5,0.5-0.6,0.9c-0.6,2.4-0.5,4.9-0.5,7.4
		c0,4.2,0.1,8.4,0.3,12.7c0,0.8-0.3,1.9,0.7,2.5c0.4-0.2,0.5-0.5,0.5-0.8C53.6,111.5,53.9,109.2,53.9,107z"/>
	<path class="st6" d="M64,97.1c2.3,1.5,4.5,3,6,5.4c0.4,0,0.7-0.1,0.8-0.6c0.6-2.3-1.3-3.8-1.8-5.7c-0.1-0.3-0.6-0.3-0.9-0.3
		c-2.3,0-3.8-1.5-5.3-2.9c-0.7-0.7-1.6-1.2-2-2.1c-0.3-0.7-0.8-0.9-1.5-0.9c0,1.5,0,3,0,4.4C60.9,95.3,62.5,96.1,64,97.1z"/>
	<path class="st4" d="M67.6,94.1c0.4,0.3,0.6,0.1,0.7-0.3l0,0C68,93.8,67.7,93.6,67.6,94.1z"/>
	<path class="st3" d="M11,52c4.6-0.1,7.4-3.2,7.4-8.8C14.1,24.5-9.3,48.5,11,52z"/>
</g>
</svg>
