<svg viewBox="64 64 896 896" focusable="false"><path fill="#E6F1F6" d="M256.4 325.1c0-95.8 77.5-173.4 173.4-173.4 44 0 84.1 16.3 114.6 43.2C410.5 220.5 327 347.5 340.2 473.6c-50.3-30.3-83.8-85.5-83.8-148.5zm134.9 275.6c-21.5-28.1-36-58.5-44.2-89.6-111.1 35-191.6 138.8-191.6 261.6h103.1c25.5-71.3 72.9-130.7 132.7-172zm376.3-155.1c0-95.8-77.6-173.4-173.4-173.4-95.8 0-173.4 77.6-173.4 173.4 0 95.8 77.6 173.4 173.4 173.4 95.9 0 173.4-77.5 173.4-173.4zM320 893.3C320 741.7 442.7 619 594.3 619c151.6 0 274.3 122.7 274.3 274.3H320z"/><path fill="#58A0C4" d="M187.5 772.7c0 17.7-14.3 32-32 32s-32-14.3-32-32c0-134 80.8-235.9 185.9-281.1-160.1-115.8-79.5-371.9 120.3-371.9 66 0 119.4 28.5 155.2 70.7-28.4 1-55 6.3-79.4 15.2-21.9-13.9-47.9-21.9-75.8-21.9-78.2 0-141.4 63.2-141.4 141.4 0 43.7 19.7 82.7 50.8 108.6-1.9 36.1 3.8 72.9 18.2 108.2-93.8 29.8-169.8 114.9-169.8 230.8zm713 120.6c0 17.7-14.3 32-32 32s-32-14.3-32-32c0-64.8-25.2-125.6-70.9-171.3C613.6 570 352 678 352 893.3c0 17.7-14.3 32-32 32s-32-14.3-32-32c0-134 80.8-235.9 185.9-281.1-160.1-115.8-79.5-371.9 120.3-371.9 197.1 0 281.4 253.6 121.6 371 105.9 46.2 184.7 153.5 184.7 282zM586.3 586.8c5.9-.2 11.9-.3 17.8-.1 73.6-5.1 131.5-66.1 131.5-141 0-78.2-63.2-141.4-141.4-141.4s-141.4 63.2-141.4 141.4c.1 75.5 59 137 133.5 141.1z"/></svg>