<svg viewBox="64 64 896 896" focusable="false"><path d="m353.2 404.1-158-158c-14.1-14.1-14.1-36.9 0-50.9 14.1-14.1 36.9-14.1 50.9 0l158 158c-19.7 13.4-37.1 30.6-50.9 50.9zm327.4 523.1c228.3-92.6 339.9-353.7 246.6-583.8-103.8-256-411.9-356.2-645.7-215.7-17 10.2-22.6 32.4-12.3 49.4 10.2 17 32.4 22.6 49.4 12.3 70.6-42.4 154.8-60.5 237.1-50.9 308.2 35.8 446 415.5 222.2 639.3-223.8 223.8-602.4 86-639.2-220.8-9.8-81.9 7.3-165 49.3-236.1 10.1-17.1 4.4-39.2-12.7-49.3-17.1-10.1-39.2-4.4-49.3 12.7C77.2 367 55.2 465.6 67.2 565.6c35.1 293.1 340.3 472.3 613.4 361.6zm-32.8-551c-66.3-66.3-169-74-243.7-23.1l133.4 133.4c22.7 22.7 6.3 61.5-25.5 61.5-20 0-12.1 2.8-158.8-143.9-50.9 74.7-43.2 177.4 23.1 243.7 75 75 196.5 75 271.5 0s74.9-196.6 0-271.6z"/></svg>