<?xml version="1.0" encoding="utf-8"?>
<!-- Generator: Adobe Illustrator 25.2.3, SVG Export Plug-In . SVG Version: 6.00 Build 0)  -->
<svg version="1.1" id="icon" xmlns="http://www.w3.org/2000/svg" xmlns:xlink="http://www.w3.org/1999/xlink" x="0px" y="0px"
	 viewBox="0 0 1024 1024" enable-background="new 0 0 1024 1024" xml:space="preserve">
<path fill="#666666" d="M895.2,870.4c-10.2-154.4-111-279-238.5-331.1C724.2,492.9,768,415.9,768,328V151.4h64.3
	c24,0,43.4-19.4,43.4-43.4s-19.4-43.4-43.4-43.4H191.7c-24,0-43.4,19.4-43.4,43.4s19.4,43.4,43.4,43.4H256V328
	c0,86.8,43,165.2,113.1,212.5c-128.7,51.9-230.4,170.8-240.3,330c-0.9,13.9,10.2,25.5,24,25.5c782.7,0,725.9,3.2,736-7.6
	C893.3,883.5,895.6,877,895.2,870.4z M328,328V192h368v136c0,164.8-199.4,244.9-314.1,130.1C347.1,423.4,328,377.2,328,328z"/>
</svg>
