<?xml version="1.0" encoding="utf-8"?>
<!-- Generator: Adobe Illustrator 25.2.3, SVG Export Plug-In . SVG Version: 6.00 Build 0)  -->
<svg version="1.1" id="icon" xmlns="http://www.w3.org/2000/svg" xmlns:xlink="http://www.w3.org/1999/xlink" x="0px" y="0px"
	 viewBox="0 0 1024 1024" enable-background="new 0 0 1024 1024" xml:space="preserve">
<path fill="#666666" d="M655.8,539.9C862.9,399.3,764.6,72,512,72c-253.1,0-350.2,327.6-143.9,467.8C225.9,597.4,128,736,128,896
	c0,19.9,16.1,36,36,36s36-16.1,36-36c0-182.6,150.1-312,312-312c178.6,0,312,144.8,312,312c0,19.9,16.1,36,36,36s36-16.1,36-36
	C896,729.1,792.9,595.8,655.8,539.9z M328,328c0-101.8,82.2-184,184-184c101.8,0,184,82.2,184,184c0,98.5-77,178.7-174.2,183.7
	c-6.5-0.2-13.1-0.2-19.7,0C404.9,506.6,328,426.5,328,328z"/>
</svg>
