<?xml version="1.0" encoding="utf-8"?>
<!-- Generator: Adobe Illustrator 25.2.3, SVG Export Plug-In . SVG Version: 6.00 Build 0)  -->
<svg version="1.1" id="icon" xmlns="http://www.w3.org/2000/svg" xmlns:xlink="http://www.w3.org/1999/xlink" x="0px" y="0px"
	 viewBox="0 0 1024 1024" enable-background="new 0 0 1024 1024" xml:space="preserve">
<path fill="#666666" d="M187.5,772.7c0,17.7-14.3,32-32,32s-32-14.3-32-32c0-134,80.8-235.9,185.9-281.1
	c-160.1-115.8-79.5-371.9,120.3-371.9c66,0,119.4,28.5,155.2,70.8c-27.7,1-54.2,6.4-78.9,15.5c-22-14.1-48.1-22.2-76.3-22.2
	c-132.4,0-191.3,166-90.6,250c-1.7,37.4,4.6,74,18.4,108.1C263.6,571.6,187.5,656.7,187.5,772.7z M900.5,893.3c0,17.7-14.3,32-32,32
	s-32-14.3-32-32c0-64.8-25.2-125.6-70.9-171.3c-152-152-413.6-44-413.6,171.3c0,17.7-14.3,32-32,32c-17.7,0-32-14.3-32-32
	c0-134,80.8-235.9,185.9-281.1c-160.1-115.8-79.5-371.9,120.3-371.9c197.1,0,281.4,253.6,121.6,371
	C821.7,657.5,900.5,764.8,900.5,893.3z M586.3,586.8c5.9-0.2,11.9-0.3,17.8-0.1c73.6-5.1,131.5-66.1,131.5-141
	c0-78.2-63.2-141.4-141.4-141.4c-78.2,0-141.4,63.2-141.4,141.4C452.9,521.2,511.8,582.7,586.3,586.8z"/>
</svg>
