<?xml version="1.0" encoding="utf-8"?>
<!-- Generator: Adobe Illustrator 26.2.1, SVG Export Plug-In . SVG Version: 6.00 Build 0)  -->
<svg version="1.1" id="icon" xmlns="http://www.w3.org/2000/svg" xmlns:xlink="http://www.w3.org/1999/xlink" x="0px" y="0px"
	 viewBox="0 0 1024 1024" enable-background="new 0 0 1024 1024" xml:space="preserve">
<line fill="none" x1="512" y1="409.7" x2="512" y2="614.4"/>
<path fill="#666666" d="M312.3,913.1C165.1,839.7,64,687.7,64,512c0-175.7,101.1-327.7,248.3-401.1c-28.6,35.1-48.2,77.8-55.1,124.6
	C182.7,304.2,136,402.6,136,512c0,109.4,46.6,207.8,121.1,276.5C264.1,835.3,283.7,878.1,312.3,913.1z M766.9,235.5
	C841.4,304.2,888,402.6,888,512c0,109.4-46.7,207.8-121.2,276.5c-7,46.8-26.5,89.6-55.1,124.6C858.9,839.7,960,687.7,960,512
	c0-175.7-101.1-327.7-248.3-401.1C740.3,145.9,759.9,188.7,766.9,235.5z M721.5,741.5C726.4,861.1,631,960,512,960
	c-119.1,0-214.4-99.1-209.5-218.5c23.6,32.9,54.7,59.9,90.8,78.7c53.4,90.6,184.2,90.1,237.3,0C666.8,801.4,697.9,774.4,721.5,741.5
	z M630.7,661.3c-53.1,90.1-183.9,90.6-237.3,0c-36.1-18.8-67.2-45.8-90.8-78.7C297.6,702,392.8,801.1,512,801.1
	c119,0,214.4-98.9,209.5-218.5C697.9,615.5,666.8,642.6,630.7,661.3z M630.7,502.4c-53.1,90.1-183.9,90.6-237.3,0
	c-36.1-18.8-67.2-45.8-90.8-78.7c-4.9,119.4,90.3,218.5,209.5,218.5c119,0,214.4-98.9,209.5-218.5
	C697.9,456.6,666.8,483.7,630.7,502.4z M374.3,273.7c0,76.1,61.6,137.7,137.7,137.7c76.1,0,137.7-61.6,137.7-137.7
	c0-76.1-61.6-137.7-137.7-137.7C435.9,136,374.3,197.6,374.3,273.7 M302.3,273.7C302.3,157.9,396.2,64,512,64
	s209.7,93.9,209.7,209.7S627.8,483.3,512,483.3S302.3,389.5,302.3,273.7L302.3,273.7z"/>
</svg>
