<?xml version="1.0" encoding="utf-8"?>
<!-- Generator: Adobe Illustrator 25.2.3, SVG Export Plug-In . SVG Version: 6.00 Build 0)  -->
<svg version="1.1" id="icon" xmlns="http://www.w3.org/2000/svg" xmlns:xlink="http://www.w3.org/1999/xlink" x="0px" y="0px"
	 viewBox="0 0 1024 1024" enable-background="new 0 0 1024 1024" xml:space="preserve">
<path fill="#666666" d="M512,136c207.7,0,376,168.3,376,376c0,207.7-168.3,376-376,376c-207.7,0-376-168.3-376-376
	C136,304.3,304.3,136,512,136 M512,64C264.6,64,64,264.6,64,512s200.6,448,448,448s448-200.6,448-448S759.4,64,512,64L512,64z
	 M793.4,405.9c14.1-14.1,14.1-36.9,0-50.9L669,230.6c-14.1-14.1-36.9-14.1-50.9,0L291.7,556.9L273,737.9c-0.4,3.6,0.9,7.2,3.5,9.7
	c2.6,2.6,6.1,3.8,9.7,3.5l180.9-18.7L793.4,405.9z M717.1,380.5l-39.6,39.6l-73.5-73.5l39.6-39.6L717.1,380.5z M352.2,671.8l8.5-82
	L553,397.4l73.5,73.5L434.2,663.3L352.2,671.8z"/>
</svg>
