<?xml version="1.0" encoding="utf-8"?>
<!-- Generator: Adobe Illustrator 25.4.1, SVG Export Plug-In . SVG Version: 6.00 Build 0)  -->
<svg version="1.1" id="icon" xmlns="http://www.w3.org/2000/svg" xmlns:xlink="http://www.w3.org/1999/xlink" x="0px" y="0px"
	 viewBox="0 0 1024 1024" enable-background="new 0 0 1024 1024" xml:space="preserve">
<path fill="#333333" d="M512,64C264.6,64,64,264.6,64,512s200.6,448,448,448s448-200.6,448-448S759.4,64,512,64z M800,704H608V512
	h60V356h-60v60h-96v472c-207.7,0-376-168.3-376-376c0-207.7,168.3-376,376-376v88h96v60h96c19.9,0,36,16.1,36,36v192h60V704z
	 M512,224v192h-96v-60h-60v156h60v192H224V512h60V320c0-19.9,16.1-36,36-36h96v-60H512z"/>
</svg>
