<svg viewBox="64 64 896 896" focusable="false"><path d="M336.1 400.5C398 400.5 448 450.4 448 512s-50.1 111.5-111.9 111.5S224.2 573.6 224.2 512s50-111.5 111.9-111.5zm-111.9-161c0 61.6 50.1 111.5 111.9 111.5S448 301.1 448 239.5 397.9 128 336.1 128s-111.9 49.9-111.9 111.5zm0 545c0 61.6 50.1 111.5 111.9 111.5S448 846.1 448 784.5 397.9 673 336.1 673s-111.9 49.9-111.9 111.5zm463.7-384c61.9 0 111.9 49.9 111.9 111.5s-50.1 111.5-111.9 111.5S576 573.6 576 512s50.1-111.5 111.9-111.5zM576 239.5c0 61.6 50.1 111.5 111.9 111.5s111.9-49.9 111.9-111.5S749.8 128 687.9 128 576 177.9 576 239.5zm0 545c0 61.6 50.1 111.5 111.9 111.5s111.9-49.9 111.9-111.5S749.8 673 687.9 673 576 722.9 576 784.5z"/></svg>