<svg viewBox="64 64 896 896" focusable="false"><path d="m929.9 619.7-77-44.4c7.8-41.9 7.8-84.9 0-126.8l77-44.4c8.9-5.1 12.8-15.5 9.9-25.3-20.1-64.3-54.2-122.5-98.8-170.9-6.9-7.4-18.1-9.2-26.7-4.2l-77 44.4c-32.3-27.8-69.5-49.3-109.8-63.4V96c0-10.1-7-19-17-21.1-66.3-14.8-134.2-14.1-197.3 0-9.9 2.2-17 11-17 21.1v88.9c-40.1 14.3-77.3 35.8-109.8 63.4l-76.8-44.4c-8.9-5.1-19.9-3.4-26.7 4.2-44.6 48.2-78.8 106.4-98.8 170.9-3.1 9.8 1.1 20.2 9.9 25.3l77 44.4c-7.8 41.9-7.8 84.9 0 126.8l-77 44.4c-8.9 5.1-12.8 15.5-9.9 25.3 20.1 64.3 54.2 122.5 98.8 170.9 6.9 7.4 18.1 9.2 26.7 4.2l77-44.4c32.3 27.8 69.5 49.3 109.8 63.4V928c0 10.1 7 19 17 21.1 66.3 14.8 134.2 14.1 197.3 0 9.9-2.2 17-11 17-21.1v-88.9c40.1-14.3 77.3-35.8 109.8-63.4l77 44.4c8.9 5.1 19.9 3.4 26.7-4.2C885.8 767.7 920 709.5 940 645c2.7-9.8-1.2-20.3-10.1-25.3zm-418 36.6c-79.7 0-144.5-64.9-144.5-144.5s64.9-144.5 144.5-144.5 144.5 64.9 144.5 144.5-64.8 144.5-144.5 144.5z"/></svg>