<svg viewBox="64 64 896 896" focusable="false"><path d="M512.6 167.7c-107.3 0-176.9 44-231.5 122.4-9.9 14.2-6.8 33.7 7 44.2l58 44c14 10.6 33.8 8.1 44.7-5.6 33.7-42.2 58.7-66.5 111.3-66.5 41.4 0 92.5 26.6 92.5 66.7 0 30.3-25 45.9-65.9 68.8C481.1 468.4 418 501.6 418 584.8V598c0 17.8 14.5 32.3 32.3 32.3h97.5c17.8 0 32.3-14.5 32.3-32.3v-7.8c0-57.6 168.5-60 168.5-216 0-117.4-121.8-206.5-236-206.5zM499.2 670c-51.4 0-93.2 41.8-93.2 93.2 0 51.4 41.8 93.2 93.2 93.2s93.2-41.8 93.2-93.2-41.9-93.2-93.2-93.2z"/></svg>