<?xml version="1.0" encoding="utf-8"?>
<!-- Generator: Adobe Illustrator 25.2.0, SVG Export Plug-In . SVG Version: 6.00 Build 0)  -->
<svg version="1.1" id="Layer_1" xmlns="http://www.w3.org/2000/svg" xmlns:xlink="http://www.w3.org/1999/xlink" x="0px" y="0px"
	 viewBox="0 0 1024 1024" enable-background="new 0 0 1024 1024" xml:space="preserve">
<g>
	<path fill="#2C84B1" d="M556.8,618.1c-8.5-17.1-25.7-27.7-44.8-27.7c-19.1,0-36.3,10.6-44.8,27.7l-134,268.1
		c-3.7,7.3-3.3,16.1,1,23.1s11.9,11.2,20.2,11.2h315.3c8.2,0,15.8-4.3,20.2-11.2s4.7-15.7,1-23.1L556.8,618.1z"/>
</g>
<g>
	<path fill="#94D5EC" d="M110.3,827.8c-9.9,19.8-8.9,43.4,2.8,62.3c11.7,18.9,32.3,30.4,54.4,30.4h53.3c9,0,17.2-5.1,21.2-13.1
		l160.7-321.5c10.1-20.3,25.7-37.3,45-49.3s41.5-18.2,64.2-18.2s44.9,6.3,64.2,18.2c19.3,11.9,34.9,29,45,49.3l0,0l160.7,321.5
		c4,8,12.2,13.1,21.2,13.1h53.3c22.2,0,42.8-11.5,54.4-30.4c11.7-18.9,12.7-42.4,2.8-62.3L569.2,138.9c-10.8-21.7-33-35.4-57.2-35.4
		s-46.4,13.7-57.2,35.4L110.3,827.8z"/>
</g>
</svg>
