<?xml version="1.0" encoding="utf-8"?>
<!-- Generator: Adobe Illustrator 25.2.3, SVG Export Plug-In . SVG Version: 6.00 Build 0)  -->
<svg version="1.1" id="icon" xmlns="http://www.w3.org/2000/svg" xmlns:xlink="http://www.w3.org/1999/xlink" x="0px" y="0px"
	 viewBox="0 0 1024 1024" enable-background="new 0 0 1024 1024" xml:space="preserve">
<path fill="#EAE3F4" d="M512,64C264.6,64,64,264.6,64,512s200.6,448,448,448s448-200.6,448-448S759.4,64,512,64L512,64z"/>
<path fill="#7243B5" d="M512,136c207.7,0,376,168.3,376,376c0,207.7-168.3,376-376,376c-207.7,0-376-168.3-376-376
	C136,304.3,304.3,136,512,136 M512,64C264.6,64,64,264.6,64,512s200.6,448,448,448s448-200.6,448-448S759.4,64,512,64L512,64z
	 M512,384c-70.7,0-128,57.3-128,128s57.3,128,128,128s128-57.3,128-128S582.7,384,512,384z M512,804c-161.4,0-292-130.6-292-292
	c0-161.4,130.6-292,292-292c161.4,0,292,130.6,292,292C804,673.4,673.4,804,512,804z M512,292c-121.6,0-220,98.4-220,220
	c0,121.6,98.4,220,220,220c121.6,0,220-98.4,220-220C732,390.4,633.6,292,512,292z"/>
</svg>
