<?xml version="1.0" encoding="utf-8"?>
<!-- Generator: Adobe Illustrator 26.2.1, SVG Export Plug-In . SVG Version: 6.00 Build 0)  -->
<svg version="1.1" id="icon" xmlns="http://www.w3.org/2000/svg" xmlns:xlink="http://www.w3.org/1999/xlink" x="0px" y="0px"
	 viewBox="0 0 1024 1024" enable-background="new 0 0 1024 1024" xml:space="preserve">
<path fill="#ECF2F5" d="M204.2,630.9C163.4,607,136,562.8,136,512c0-50.8,27.4-95,68.2-118.9c-18.5,35.6-29,76-29,118.9
	C175.2,554.9,185.7,595.3,204.2,630.9z M334.4,512c0-42.9,10.5-83.3,29-118.9c-40.8,23.9-68.2,68.2-68.2,118.9
	c0,50.8,27.4,95,68.2,118.9C344.9,595.3,334.4,554.9,334.4,512z M493.6,512c0-42.9,10.5-83.3,29-118.9
	c-40.8,23.9-68.2,68.2-68.2,118.9c0,50.8,27.4,95,68.2,118.9C504.1,595.3,493.6,554.9,493.6,512z"/>
<path fill="#ECF2F5" d="M751.2,374.3c76.1,0,137.7,61.6,137.7,137.7c0,76.1-61.6,137.7-137.7,137.7c-76.1,0-137.7-61.6-137.7-137.7
	C613.6,435.9,675.2,374.3,751.2,374.3"/>
<path fill="#3D7B99" d="M282.8,721.5C163,726.6,64,630.9,64,512c0-118.9,99-214.6,218.8-209.5c-32.8,23.5-59.8,54.5-78.5,90.5
	c-90.8,53.1-91,184.6,0,237.8C223,666.9,250,697.9,282.8,721.5z M363.4,630.9c-91-53.2-90.8-184.7,0-237.8
	c18.8-36,45.8-67,78.5-90.5c-119.8-5.1-218.8,90.5-218.8,209.5c0,119,99,214.6,218.8,209.5C409.2,697.9,382.2,666.9,363.4,630.9z
	 M522.6,630.9c-91-53.2-90.8-184.7,0-237.8c18.8-36,45.8-67,78.5-90.5c-119.8-5.1-218.8,90.5-218.8,209.5
	c0,119,99,214.6,218.8,209.5C568.4,697.9,541.4,666.9,522.6,630.9z M751.2,374.3c-76.1,0-137.7,61.6-137.7,137.7
	c0,76.1,61.6,137.7,137.7,137.7c76.1,0,137.7-61.6,137.7-137.7C888.9,435.9,827.3,374.3,751.2,374.3 M751.2,302.3
	c115.8,0,209.7,93.9,209.7,209.7S867,721.7,751.2,721.7S541.6,627.8,541.6,512S635.4,302.3,751.2,302.3L751.2,302.3z"/>
</svg>
