<?xml version="1.0" encoding="utf-8"?>
<!-- Generator: Adobe Illustrator 25.2.3, SVG Export Plug-In . SVG Version: 6.00 Build 0)  -->
<svg version="1.1" id="icon" xmlns="http://www.w3.org/2000/svg" xmlns:xlink="http://www.w3.org/1999/xlink" x="0px" y="0px"
	 viewBox="0 0 1024 1024" enable-background="new 0 0 1024 1024" xml:space="preserve">
<path fill="#E6F1F6" d="M164,896c0-192.3,155.6-348,348-348c192.3,0,348,155.6,348,348 M732,328c0-60.8,0-220,0-220H292
	c0,0,0,161.2,0,220c0,121.6,98.4,220,220,220C633.6,548,732,449.6,732,328z"/>
<path fill="#58A0C4" d="M655.8,539.9C723.6,493.9,768,416.2,768,328V151.4h64.3c24,0,43.4-19.4,43.4-43.4s-19.4-43.4-43.4-43.4
	H191.7c-24,0-43.4,19.4-43.4,43.4s19.4,43.4,43.4,43.4H256V328c0,88.2,44.4,165.8,112.1,211.8C225.9,597.4,128,736,128,896
	c0,19.9,16.1,36,36,36s36-16.1,36-36c0-182.7,147.1-306.4,303.7-312.1c6.5,0.2,11.8,0.2,19.4-0.1C685,588,824,723.4,824,896
	c0,19.9,16.1,36,36,36s36-16.1,36-36C896,729.1,792.9,595.8,655.8,539.9z M523,511.8c-8.1-0.2-16.3-0.2-24.5,0.1
	C406.5,505.9,328,427.7,328,328V192h368v136C696,433.3,613,505.5,523,511.8z"/>
</svg>
