<?xml version="1.0" encoding="utf-8"?>
<!-- Generator: Adobe Illustrator 28.0.0, SVG Export Plug-In . SVG Version: 6.00 Build 0)  -->
<svg version="1.1" id="icon" xmlns="http://www.w3.org/2000/svg" xmlns:xlink="http://www.w3.org/1999/xlink" x="0px" y="0px"
	 viewBox="0 0 1024 1024" enable-background="new 0 0 1024 1024" xml:space="preserve">
<path fill="#E6E6ED" d="M880,112H144c-17.7,0-32,14.3-32,32v736c0,17.7,14.3,32,32,32h736c17.7,0,32-14.3,32-32V144
	C912,126.3,897.7,112,880,112z"/>
<path fill="#49566D" d="M880,112H144c-17.7,0-32,14.3-32,32v736c0,17.7,14.3,32,32,32h736c17.7,0,32-14.3,32-32V144
	C912,126.3,897.7,112,880,112z M840,840H184V184h656V840z M275.2,247.1h65.4l84.9,150.7h0.7V247.1h59.9v244.5h-65.4l-84.9-152.4
	h-0.7v152.4h-59.9V247.1z M691.9,334.4c-3.4-24.7-22.6-37.7-49.3-37.7c-41.1,0-56.8,36.3-56.8,72.6s15.8,72.6,56.8,72.6
	c29.8,0,46.9-17.1,49.3-45.2h63.7c-3.4,63-49.7,100-111.6,100c-74,0-121.9-56.5-121.9-127.4S570,241.9,644,241.9
	c52.7,0,109.9,33.6,111.6,92.5H691.9z M438.2,619.7c-3.4-24.7-22.6-37.7-49.3-37.7c-41.1,0-56.8,36.3-56.8,72.6s15.8,72.6,56.8,72.6
	c29.8,0,46.9-17.1,49.3-45.2h63.7c-3.4,63-49.7,100-111.6,100c-74,0-121.9-56.5-121.9-127.4c0-70.9,47.9-127.4,121.9-127.4
	c52.7,0,109.9,33.6,111.6,92.5H438.2z M535.1,532.4h65.4l84.9,150.7h0.7V532.4H746v244.5h-65.4l-84.9-152.4H595v152.4h-59.9V532.4z"
	/>
</svg>
