<?xml version="1.0" encoding="utf-8"?>
<!-- Generator: Adobe Illustrator 26.2.1, SVG Export Plug-In . SVG Version: 6.00 Build 0)  -->
<svg version="1.1" id="icon" xmlns="http://www.w3.org/2000/svg" xmlns:xlink="http://www.w3.org/1999/xlink" x="0px" y="0px"
	 viewBox="0 0 1024 1024" enable-background="new 0 0 1024 1024" xml:space="preserve">
<circle fill="#E0F4E6" cx="512" cy="512" r="448"/>
<path fill="#33B358" d="M512,64C264.6,64,64,264.6,64,512s200.6,448,448,448s448-200.6,448-448S759.4,64,512,64z M584.6,382.7
	c1.9,3.1,101.9,167,104.9,172c51.7-6.2,97.5,34,97.5,86.4c0,48.1-39,87-87,87c-70.2,0-110.9-78.8-72-135.9
	c-2.8-4.5-103.4-169.6-104.5-171.3c-52.4,6.9-98.5-33.8-98.5-86.2c0-48.1,39-87,87-87C581.7,247.7,622.5,325.5,584.6,382.7z
	 M136,512c0-207.7,168.3-376,376-376v73.7c-109.3,0-164.6,129.9-92.5,209.1l-84.3,136c-52.1-6.7-98.2,33.8-98.2,86.3
	c0,48.1,39,87,87,87c70,0,110.6-78.3,72.3-135.4l84.9-136.9c9.8,2.5,20.2,3.8,30.8,3.8V888C304.3,888,136,719.7,136,512z"/>
</svg>
