<?xml version="1.0" encoding="utf-8"?>
<!-- Generator: Adobe Illustrator 26.2.1, SVG Export Plug-In . SVG Version: 6.00 Build 0)  -->
<svg version="1.1" id="icon" xmlns="http://www.w3.org/2000/svg" xmlns:xlink="http://www.w3.org/1999/xlink" x="0px" y="0px"
	 viewBox="0 0 1024 1024" enable-background="new 0 0 1024 1024" xml:space="preserve">
<path fill="#E6E6E6" d="M512,183.4c181.5,0,328.6,146.9,328.6,328.6c0,181.5-146.9,328.6-328.6,328.6
	c-180.6,0-328.6-146.1-328.6-328.6C183.4,330.5,330.3,183.4,512,183.4"/>
<path fill="#333333" d="M512,136c207.7,0,376,168.3,376,376c0,207.7-168.3,376-376,376c-207.7,0-376-168.3-376-376
	C136,304.3,304.3,136,512,136 M512,64C264.6,64,64,264.6,64,512s200.6,448,448,448s448-200.6,448-448S759.4,64,512,64L512,64z
	 M790.6,631.9C667.2,558.8,654.5,301.4,512,301.4c-141.7,0-155,254.2-276.4,329.2c-16.9,10.5-22.1,32.6-11.7,49.6
	c10.5,16.9,32.6,22.2,49.6,11.7c133-82.2,166-318.5,238.5-318.5c73.5,0,105.1,239.4,241.9,320.5
	C794.7,718.1,831.5,656.2,790.6,631.9z"/>
</svg>
