<?xml version="1.0" encoding="utf-8"?>
<!-- Generator: Adobe Illustrator 26.2.1, SVG Export Plug-In . SVG Version: 6.00 Build 0)  -->
<svg version="1.1" id="icon" xmlns="http://www.w3.org/2000/svg" xmlns:xlink="http://www.w3.org/1999/xlink" x="0px" y="0px"
	 viewBox="0 0 1024 1024" enable-background="new 0 0 1024 1024" xml:space="preserve">
<g>
	<ellipse transform="matrix(0.7071 -0.7071 0.7071 0.7071 -212.0773 512)" fill="#E6E6E6" cx="512" cy="512" rx="416" ry="412"/>
</g>
<path fill="#333333" d="M512,136c207.7,0,376,168.3,376,376c0,207.7-168.3,376-376,376c-207.7,0-376-168.3-376-376
	C136,304.3,304.3,136,512,136 M512,64C264.6,64,64,264.6,64,512s200.6,448,448,448s448-200.6,448-448S759.4,64,512,64L512,64z
	 M688,515H544v-36.6c46.3-13.8,80-56.6,80-107.4c0-61.9-50.1-112-112-112s-112,50.1-112,112c0,50.7,33.7,93.6,80,107.4V515H336
	c-8.8,0-16,7.2-16,16v152c0,8.8,7.2,16,16,16h352c8.8,0,16-7.2,16-16V531C704,522.2,696.8,515,688,515z M464,371
	c0-26.5,21.5-48,48-48c26.5,0,48,21.5,48,48c0,26.5-21.5,48-48,48C485.5,419,464,397.5,464,371z M640,635H384v-56h96h64h96V635z"/>
</svg>
