<?xml version="1.0" encoding="utf-8"?>
<!-- Generator: Adobe Illustrator 25.2.3, SVG Export Plug-In . SVG Version: 6.00 Build 0)  -->
<svg version="1.1" id="icon" xmlns="http://www.w3.org/2000/svg" xmlns:xlink="http://www.w3.org/1999/xlink" x="0px" y="0px"
	 viewBox="0 0 1024 1024" enable-background="new 0 0 1024 1024" xml:space="preserve">
<circle fill="#E6E6E6" cx="512" cy="512" r="448"/>
<path fill="#333333" d="M512,136c207.7,0,376,168.3,376,376c0,207.7-168.3,376-376,376c-207.7,0-376-168.3-376-376
	C136,304.3,304.3,136,512,136 M512,64C264.6,64,64,264.6,64,512s200.6,448,448,448s448-200.6,448-448S759.4,64,512,64L512,64z
	 M659.8,450.8L693,331l-119.8,33.2L512,256l-61.2,108.2L331,331l33.2,119.8L256,512l108.2,61.2L331,693l119.8-33.2L512,768
	l61.2-108.2L693,693l-33.2-119.8L768,512L659.8,450.8z"/>
</svg>
