<?xml version="1.0" encoding="utf-8"?>
<!-- Generator: Adobe Illustrator 25.2.3, SVG Export Plug-In . SVG Version: 6.00 Build 0)  -->
<svg version="1.1" id="icon" xmlns="http://www.w3.org/2000/svg" xmlns:xlink="http://www.w3.org/1999/xlink" x="0px" y="0px"
	 viewBox="0 0 1024 1024" enable-background="new 0 0 1024 1024" xml:space="preserve">
<circle fill="#E6E6E6" cx="512" cy="512" r="448"/>
<path fill="#333333" d="M195.2,195.2c-175,175-175,458.6,0,633.6s458.6,175,633.6,0s175-458.6,0-633.6S370.2,20.3,195.2,195.2z
	 M476,137.7V476H137.7C154.7,297,297.1,154.7,476,137.7z M137.7,548H476v338.3C297,869.3,154.7,726.9,137.7,548z M548,886.3V548
	h338.3C869.3,727,726.9,869.3,548,886.3z M886.3,476H548V137.7C727,154.7,869.3,297.1,886.3,476z"/>
</svg>
