<?xml version="1.0" encoding="utf-8"?>
<!-- Generator: Adobe Illustrator 25.2.3, SVG Export Plug-In . SVG Version: 6.00 Build 0)  -->
<svg version="1.1" id="icon" xmlns="http://www.w3.org/2000/svg" xmlns:xlink="http://www.w3.org/1999/xlink" x="0px" y="0px"
	 viewBox="0 0 1024 1024" enable-background="new 0 0 1024 1024" xml:space="preserve">
<g>
	<ellipse transform="matrix(0.7071 -0.7071 0.7071 0.7071 -212.0773 512)" fill="#E6E6E6" cx="512" cy="512" rx="416" ry="412"/>
</g>
<path fill="#333333" d="M353.2,404.1l-158-158c-14.1-14.1-14.1-36.9,0-50.9c14.1-14.1,36.9-14.1,50.9,0l158,158
	C384.4,366.6,367,383.8,353.2,404.1z M680.6,927.2c228.3-92.6,339.9-353.7,246.6-583.8C823.4,87.4,515.3-12.8,281.5,127.7
	c-17,10.2-22.6,32.4-12.3,49.4c10.2,17,32.4,22.6,49.4,12.3c70.6-42.4,154.8-60.5,237.1-50.9c308.2,35.8,446,415.5,222.2,639.3
	c-223.8,223.8-602.4,86-639.2-220.8c-9.8-81.9,7.3-165,49.3-236.1c10.1-17.1,4.4-39.2-12.7-49.3c-17.1-10.1-39.2-4.4-49.3,12.7
	C77.2,367,55.2,465.6,67.2,565.6C102.3,858.7,407.5,1037.9,680.6,927.2z M647.8,376.2c-66.3-66.3-169-74-243.7-23.1l133.4,133.4
	c22.7,22.7,6.3,61.5-25.5,61.5c-20,0-12.1,2.8-158.8-143.9c-50.9,74.7-43.2,177.4,23.1,243.7c75,75,196.5,75,271.5,0
	S722.7,451.2,647.8,376.2z"/>
</svg>
